<?xml version="1.0" encoding="UTF-8" standalone="no"?>
<svg
   xmlns:dc="http://purl.org/dc/elements/1.1/"
   xmlns:cc="http://creativecommons.org/ns#"
   xmlns:rdf="http://www.w3.org/1999/02/22-rdf-syntax-ns#"
   xmlns:svg="http://www.w3.org/2000/svg"
   xmlns="http://www.w3.org/2000/svg"
   viewBox="0 0 491.29999 398.01068"
   height="398.01068"
   width="491.29999"
   xml:space="preserve"
   id="svg2"
   version="1.1"><metadata
     id="metadata8"><rdf:RDF><cc:Work
         rdf:about=""><dc:format>image/svg+xml</dc:format><dc:type
           rdf:resource="http://purl.org/dc/dcmitype/StillImage" /></cc:Work></rdf:RDF></metadata><defs
     id="defs6"><clipPath
       id="clipPath18"
       clipPathUnits="userSpaceOnUse"><path
         id="path16"
         d="M 0,298.508 H 368.475 V 0 H 0 Z" /></clipPath></defs><g
     transform="matrix(1.3333333,0,0,-1.3333333,0,398.01067)"
     id="g10"><g
       id="g12"><g
         clip-path="url(#clipPath18)"
         id="g14"><g
           transform="translate(103.3188,94.6306)"
           id="g20"><path
             id="path22"
             style="fill:#2ccaed;fill-opacity:1;fill-rule:nonzero;stroke:none"
             d="m 0,0 v -6.526 h 4.535 c 2.448,0 3.854,1.163 3.854,3.263 C 8.389,-1.162 6.983,0 4.535,0 Z M 0,11.621 V 5.633 h 3.628 c 2.222,0 3.491,1.072 3.491,2.994 0,1.922 -1.269,2.994 -3.491,2.994 z m 4.898,6.795 c 6.53,0 10.656,-3.263 10.656,-8.449 0,-2.86 -1.224,-5.094 -3.537,-6.481 V 3.397 c 3.083,-1.341 4.762,-3.977 4.762,-7.42 0,-5.721 -4.535,-9.297 -11.745,-9.297 H -8.434 v 31.736 z" /></g><g
           transform="translate(150.2248,81.152)"
           id="g24"><path
             id="path26"
             style="fill:#2ccaed;fill-opacity:1;fill-rule:nonzero;stroke:none"
             d="m 0,0 h -20.86 v 31.735 h 8.435 V 7.42 L 0,7.42 Z" /></g><g
           transform="translate(182.446,113.1163)"
           id="g28"><path
             id="path30"
             style="fill:#2ccaed;fill-opacity:1;fill-rule:nonzero;stroke:none"
             d="m 0,0 v -19.354 c 0,-8.18 -4.943,-13.007 -13.332,-13.007 -8.389,0 -13.332,4.827 -13.332,13.007 V 0 h 8.435 v -19.309 c 0,-3.755 1.723,-5.811 4.897,-5.811 3.174,0 4.898,2.056 4.898,5.811 V 0 Z" /></g><g
           transform="translate(212.9225,81.381)"
           id="g32"><path
             id="path34"
             style="fill:#2ccaed;fill-opacity:1;fill-rule:nonzero;stroke:none"
             d="m 0,0 h -20.86 v 31.735 h 8.435 V 7.42 L 0,7.42 Z" /></g><g
           transform="translate(228.5298,93.1425)"
           id="g36"><path
             id="path38"
             style="fill:#2ccaed;fill-opacity:1;fill-rule:nonzero;stroke:none"
             d="M 0,0 H 6.712 L 3.446,12.828 H 3.355 Z M -11.699,-11.532 -1.95,20.203 H 9.024 l 9.568,-31.735 H 9.659 l -1.361,5.274 h -9.885 l -1.361,-5.274 z" /></g><g
           transform="translate(263.9876,94.9297)"
           id="g40"><path
             id="path42"
             style="fill:#2ccaed;fill-opacity:1;fill-rule:nonzero;stroke:none"
             d="m 0,0 v -6.526 h 4.535 c 2.448,0 3.854,1.163 3.854,3.263 C 8.389,-1.162 6.983,0 4.535,0 Z M 0,11.621 V 5.633 h 3.628 c 2.222,0 3.491,1.072 3.491,2.994 0,1.922 -1.269,2.994 -3.491,2.994 z m 4.898,6.795 c 6.53,0 10.656,-3.263 10.656,-8.449 0,-2.86 -1.224,-5.094 -3.537,-6.481 V 3.397 c 3.083,-1.341 4.762,-3.977 4.762,-7.42 0,-5.721 -4.535,-9.297 -11.745,-9.297 H -8.434 v 31.736 z" /></g><g
           transform="translate(145.2164,61.1962)"
           id="g44"><path
             id="path46"
             style="fill:#b9bbbd;fill-opacity:1;fill-rule:nonzero;stroke:none"
             d="m 0,0 c -0.457,1.258 -1.293,1.914 -2.434,1.914 -1.693,0 -2.663,-1.385 -2.663,-3.773 0,-2.369 0.97,-3.774 2.587,-3.774 1.14,0 2.053,0.712 2.567,2.006 L 3.118,-4.886 C 2.13,-7.219 0.039,-8.585 -2.567,-8.585 c -3.708,0 -6.181,2.66 -6.181,6.671 0,4.047 2.548,6.78 6.314,6.78 2.585,0 4.601,-1.294 5.552,-3.572 z" /></g><g
           transform="translate(156.6641,57.6046)"
           id="g48"><path
             id="path50"
             style="fill:#b9bbbd;fill-opacity:1;fill-rule:nonzero;stroke:none"
             d="m 0,0 c 0,1.458 -0.59,2.333 -1.521,2.333 -0.932,0 -1.522,-0.875 -1.522,-2.333 0,-1.458 0.59,-2.333 1.522,-2.333 C -0.59,-2.333 0,-1.458 0,0 m -6.465,-0.018 c 0,3.009 1.997,5.013 4.982,5.013 2.947,0 4.906,-1.987 4.906,-4.976 0,-3.008 -1.996,-5.012 -4.981,-5.012 -2.949,0 -4.907,1.986 -4.907,4.975" /></g><g
           transform="translate(162.2568,52.8657)"
           id="g52"><path
             id="path54"
             style="fill:#b9bbbd;fill-opacity:1;fill-rule:nonzero;stroke:none"
             d="M 0,0 V 9.479 H 3.31 V 8.604 c 0.78,0.766 1.654,1.13 2.72,1.13 2.015,0 3.251,-1.349 3.251,-3.572 V 0 H 5.858 v 5.76 c 0,0.858 -0.381,1.312 -1.102,1.312 -0.476,0 -0.933,-0.2 -1.332,-0.583 L 3.424,0 Z" /></g><g
           transform="translate(178.0601,62.5997)"
           id="g56"><path
             id="path58"
             style="fill:#b9bbbd;fill-opacity:1;fill-rule:nonzero;stroke:none"
             d="M 0,0 C 1.313,0 2.663,-0.364 3.88,-1.057 L 2.548,-3.281 c -0.892,0.566 -1.729,0.875 -2.377,0.875 -0.532,0 -0.874,-0.219 -0.874,-0.528 0,-1.186 4.754,-0.584 4.754,-3.829 0,-1.932 -1.693,-3.226 -4.221,-3.226 -1.484,0 -3.042,0.437 -4.374,1.24 l 1.332,2.223 c 1.045,-0.673 2.091,-1.057 2.908,-1.057 0.571,0 0.933,0.202 0.933,0.529 0,1.184 -4.754,0.601 -4.754,3.828 C -4.125,-1.312 -2.453,0 0,0" /></g><g
           transform="translate(193.559,62.3451)"
           id="g60"><path
             id="path62"
             style="fill:#b9bbbd;fill-opacity:1;fill-rule:nonzero;stroke:none"
             d="m 0,0 v -9.479 h -2.967 l -0.151,0.984 c -0.837,-0.838 -1.769,-1.239 -2.871,-1.239 -2.036,0 -3.292,1.349 -3.292,3.572 V 0 h 3.424 v -5.76 c 0,-0.858 0.38,-1.314 1.103,-1.314 0.456,0 0.931,0.202 1.331,0.566 l 0,6.508 z" /></g><g
           transform="translate(199.53,55.9642)"
           id="g64"><path
             id="path66"
             style="fill:#b9bbbd;fill-opacity:1;fill-rule:nonzero;stroke:none"
             d="m 0,0 c 0,-0.364 0.171,-0.546 0.514,-0.546 0.152,0 0.342,0.037 0.513,0.092 l 0.153,-2.48 c -0.647,-0.2 -1.35,-0.31 -1.958,-0.31 -1.713,0 -2.645,0.875 -2.645,2.498 V 9.844 H 0 Z" /></g><g
           transform="translate(201.7002,62.3451)"
           id="g68"><path
             id="path70"
             style="fill:#b9bbbd;fill-opacity:1;fill-rule:nonzero;stroke:none"
             d="M 0,0 H 1.56 V 2.57 L 4.983,3.208 V 0 H 7.112 V -2.37 H 4.983 v -3.61 c 0,-0.673 0.304,-0.984 0.951,-0.984 0.323,0 0.78,0.092 1.103,0.201 L 7.341,-9.151 C 6.41,-9.46 5.515,-9.624 4.735,-9.624 c -2.054,0 -3.175,1.057 -3.175,2.989 v 4.265 l -1.56,0 z" /></g><path
           id="path72"
           style="fill:#b9bbbd;fill-opacity:1;fill-rule:nonzero;stroke:none"
           d="m 211.057,62.345 h 3.423 v -9.479 h -3.423 z m 1.711,0.728 c -1.084,0 -1.863,0.73 -1.863,1.75 0,1.022 0.779,1.75 1.863,1.75 1.084,0 1.864,-0.728 1.864,-1.75 0,-1.02 -0.78,-1.75 -1.864,-1.75" /><g
           transform="translate(217.0277,52.8657)"
           id="g74"><path
             id="path76"
             style="fill:#b9bbbd;fill-opacity:1;fill-rule:nonzero;stroke:none"
             d="M 0,0 V 9.479 H 3.31 V 8.604 c 0.78,0.766 1.654,1.13 2.72,1.13 2.015,0 3.251,-1.349 3.251,-3.572 V 0 H 5.858 v 5.76 c 0,0.858 -0.381,1.312 -1.102,1.312 -0.476,0 -0.933,-0.2 -1.332,-0.583 L 3.424,0 Z" /></g><g
           transform="translate(234.791,56.3477)"
           id="g78"><path
             id="path80"
             style="fill:#b9bbbd;fill-opacity:1;fill-rule:nonzero;stroke:none"
             d="M 0,0 V 2.971 C -0.439,3.39 -0.876,3.59 -1.37,3.59 c -0.97,0 -1.521,-0.765 -1.521,-2.095 0,-1.331 0.551,-2.096 1.521,-2.096 0.494,0 0.951,0.2 1.37,0.601 m 0,-2.206 v 0.073 c -0.723,-0.674 -1.541,-1.003 -2.491,-1.003 -2.302,0 -3.823,1.823 -3.823,4.612 0,2.862 1.597,4.776 3.974,4.776 1.046,0 1.864,-0.382 2.644,-1.257 l 0.152,1.002 h 2.967 v -8.24 c 0,-2.934 -1.997,-4.592 -5.477,-4.592 -1.313,0 -2.663,0.237 -4.013,0.71 l 0.913,2.461 c 1.064,-0.382 2.034,-0.583 2.91,-0.583 1.54,0 2.244,0.638 2.244,2.041" /></g><g
           transform="translate(263.5037,214.4904)"
           id="g82"><path
             id="path84"
             style="fill:#2f85c6;fill-opacity:1;fill-rule:nonzero;stroke:none"
             d="m 0,0 c -4.775,-4.779 -15.209,-1.678 -21.292,-2.863 l -25.756,-51.698 c 1.675,-2.16 3.59,-3.795 4.014,-6.723 0.427,-2.953 0.424,-15.054 -0.404,-17.613 -1.153,-3.565 -4.264,-5.764 -7.955,-6.081 -3.281,-0.281 -14.63,-0.385 -17.296,0.591 -2.947,1.078 -4.843,3.616 -5.496,6.625 l 0.142,18.307 -17.891,17.563 c -0.76,0.019 -1.444,-0.328 -2.203,-0.343 -4.514,-0.09 -13.575,-0.615 -17.485,0.725 -0.859,0.294 -1.434,0.866 -2.247,1.153 l -13.774,-10.159 c -0.658,-1.095 0.141,-11.423 -0.189,-13.847 -0.318,-2.34 -2.271,-4.075 -4.596,-4.335 -2.882,-0.324 -10.175,-0.316 -13.043,0.038 -2.561,0.315 -4.117,2.046 -4.356,4.576 -0.217,2.309 -0.291,12.651 0.316,14.382 0.629,1.793 2.151,2.808 4.002,3.016 4.549,0.511 10.178,-0.263 14.819,-0.16 l 13.761,10.192 0.266,0.629 c -0.107,0.537 -0.304,1.048 -0.31,1.607 -0.054,4.595 -0.576,12.29 0.092,16.523 0.506,3.202 3.688,6.234 6.805,6.912 3.225,0.701 14.551,0.699 17.7,-0.117 3.223,-0.836 6.214,-4.045 6.653,-7.383 0.549,-4.185 0.118,-11.158 0.042,-15.616 -0.011,-0.659 -0.28,-1.249 -0.336,-1.896 l 17.555,-17.879 13.339,0.222 25.519,51.204 c -1.833,2.283 -4.562,3.613 -5.025,6.988 0.443,7.289 -0.686,15.45 -0.041,22.633 0.406,4.522 4.467,7.475 8.774,7.815 5.193,0.409 14.624,0.445 19.784,-0.017 C -1.08,34.52 2.21,31.229 2.66,26.199 3.125,21.004 3.045,11.988 2.68,6.73 2.508,4.252 1.792,1.793 0,0" /></g><g
           transform="translate(238.333,163.8998)"
           id="g86"><path
             id="path88"
             style="fill:#b2b4b7;fill-opacity:1;fill-rule:nonzero;stroke:none"
             d="m 0,0 c 3.247,0.548 16.627,0.509 19.993,0.048 2.917,-0.4 6.134,-3.209 7.134,-5.944 1.162,-3.176 1.047,-16.187 0.704,-20.021 -0.37,-4.131 -3.472,-8.609 -7.809,-9.098 -4.275,-0.481 -15.506,-0.481 -19.78,0 -4.358,0.491 -7.442,4.992 -7.809,9.098 -0.385,4.306 -0.411,12.911 0.034,17.181 C -7.127,-4.834 -3.992,-0.674 0,0" /></g><g
           transform="translate(190.7738,246.802)"
           id="g90"><path
             id="path92"
             style="fill:#2bcaed;fill-opacity:1;fill-rule:nonzero;stroke:none"
             d="m 0,0 c 0.569,-0.569 1.433,-1.789 1.767,-2.54 1.368,-3.074 1.174,-14.465 0.912,-18.256 -0.378,-5.473 -3.596,-8.942 -9.094,-9.408 -3.82,-0.323 -11.211,-0.35 -15.002,0.015 -3.805,0.366 -7.328,2.847 -8.361,6.631 -0.836,3.058 -0.736,14.267 -0.375,17.73 0.547,5.249 4.259,8.153 9.357,8.507 C -17.008,2.942 -5.612,3.134 -2.54,1.767 -1.789,1.433 -0.569,0.569 0,0" /></g><g
           transform="translate(194.6307,212.3871)"
           id="g94"><path
             id="path96"
             style="fill:#2f85c6;fill-opacity:1;fill-rule:nonzero;stroke:none"
             d="m 0,0 c 2.444,0.413 11.082,0.381 13.614,0.049 2.672,-0.351 5.598,-2.781 5.936,-5.548 0.366,-2.992 0.321,-11.003 -0.007,-14.044 -0.261,-2.42 -2.177,-4.679 -4.47,-5.419 -2.514,-0.812 -14.06,-0.831 -16.495,0.086 -2.274,0.855 -3.99,3.275 -4.232,5.657 -0.305,3.014 -0.374,10.764 0.023,13.685 C -5.263,-2.833 -2.651,-0.448 0,0" /></g><g
           transform="translate(149.5308,151.74)"
           id="g98"><path
             id="path100"
             style="fill:#2ac9ee;fill-opacity:1;fill-rule:nonzero;stroke:none"
             d="m 0,0 c 1.035,1.022 2.434,1.559 3.877,1.705 3,0.304 9.109,0.287 12.131,0.017 2.796,-0.25 5.54,-2.354 5.897,-5.269 0.352,-2.879 0.27,-9.81 0.005,-12.78 -0.276,-3.097 -2.543,-5.483 -5.631,-5.853 -2.835,-0.341 -8.881,-0.296 -11.779,-0.047 -2.555,0.219 -4.939,1.5 -5.953,3.936 -0.895,2.152 -0.814,10.815 -0.586,13.472 C -1.891,-3.096 -1.243,-1.228 0,0" /></g><g
           transform="translate(118.3907,212.7062)"
           id="g102"><path
             id="path104"
             style="fill:#2bcaed;fill-opacity:1;fill-rule:nonzero;stroke:none"
             d="m 0,0 c 2.147,0.36 9.498,0.35 11.699,0.048 2.827,-0.389 4.677,-2.798 4.974,-5.553 0.253,-2.338 0.27,-8.2 -0.029,-10.501 -0.365,-2.81 -2.746,-5.003 -5.559,-5.286 -2.349,-0.237 -10.634,-0.284 -12.504,0.566 -1.722,0.782 -3.081,2.828 -3.283,4.692 -0.254,2.34 -0.301,9.184 0.077,11.408 C -4.247,-2.407 -2.234,-0.374 0,0" /></g><g
           transform="translate(260.3125,196.3987)"
           id="g106"><path
             id="path108"
             style="fill:#2bcaed;fill-opacity:1;fill-rule:nonzero;stroke:none"
             d="m 0,0 c 0.315,-0.307 1.086,-1.39 1.239,-1.793 0.802,-2.103 0.755,-10.916 -0.105,-12.988 -0.463,-1.12 -1.537,-2.285 -2.648,-2.775 -1.679,-0.741 -9.54,-0.763 -11.582,-0.484 -2.671,0.364 -4.418,2.271 -4.665,4.904 -0.226,2.404 -0.244,7.521 0.011,9.902 0.237,2.21 2.023,4.358 4.3,4.632 2.166,0.26 8.703,0.271 10.824,-0.037 C -1.698,1.227 -0.665,0.648 0,0" /></g><g
           transform="translate(206.1151,241.415)"
           id="g110"><path
             id="path112"
             style="fill:#b2b4b7;fill-opacity:1;fill-rule:nonzero;stroke:none"
             d="m 0,0 c 1.8,0.302 7.308,0.299 9.146,0.049 2.486,-0.339 4.286,-2.134 4.626,-4.626 0.277,-2.035 0.258,-9.131 -0.653,-10.775 -0.744,-1.343 -2.433,-2.267 -3.944,-2.436 -1.97,-0.221 -6.992,-0.243 -8.94,-0.006 -2.207,0.268 -4.046,2.088 -4.299,4.313 -0.208,1.823 -0.265,8.154 0.073,9.816 C -3.66,-2.04 -1.631,-0.274 0,0" /></g><g
           transform="translate(141.6839,229.6064)"
           id="g114"><path
             id="path116"
             style="fill:#3086c6;fill-opacity:1;fill-rule:nonzero;stroke:none"
             d="m 0,0 c 2.385,0.324 8.239,0.369 10.304,-0.696 1.244,-0.642 2.053,-1.805 2.221,-3.202 0.231,-1.92 0.259,-8.021 -0.028,-9.875 -0.165,-1.069 -1.177,-2.459 -2.101,-3.003 -1.62,-0.954 -8.394,-0.913 -10.479,-0.687 -2.37,0.256 -4.334,1.86 -4.633,4.299 -0.206,1.692 -0.236,7.947 0.081,9.505 C -4.209,-1.564 -1.984,-0.27 0,0" /></g><g
           transform="translate(134.0236,254.1734)"
           id="g118"><path
             id="path120"
             style="fill:#21baf2;fill-opacity:1;fill-rule:nonzero;stroke:none"
             d="m 0,0 c 1.108,0.281 7.888,0.261 9.155,0.06 3.727,-0.593 3.352,-7.522 3.049,-10.35 -0.292,-2.73 -1.988,-4.038 -4.63,-4.302 -3.329,-0.333 -9.527,-0.712 -10.052,3.657 -0.192,1.6 -0.211,6.413 0.028,7.962 C -2.275,-1.837 -1.121,-0.284 0,0" /></g><g
           transform="translate(111.7004,244.5971)"
           id="g122"><path
             id="path124"
             style="fill:#b2b4b7;fill-opacity:1;fill-rule:nonzero;stroke:none"
             d="m 0,0 c 2.176,0.339 6.874,0.525 8.009,-1.711 0.539,-1.064 0.586,-7.244 0.12,-8.332 -1.022,-2.384 -9.158,-2.317 -10.562,-0.515 -0.887,1.138 -0.944,6.729 -0.615,8.183 C -2.732,-0.981 -1.29,-0.201 0,0" /></g></g></g></g></svg>