<svg version="1.1" id="Layer_1" xmlns="http://www.w3.org/2000/svg" xmlns:xlink="http://www.w3.org/1999/xlink" x="0px" y="0px"
	 width="100%" viewBox="0 0 200 200" enable-background="new 0 0 200 200" xml:space="preserve">
<path fill="#FCFEFE" opacity="1.000000" stroke="none" 
	d="
M114.000000,201.000000 
	C76.364166,201.000000 38.728333,201.000000 1.092495,201.000000 
	C1.061661,200.864304 1.003812,200.728607 1.003804,200.592911 
	C0.999942,134.147339 1.000000,67.701775 1.000000,1.128103 
	C67.666496,1.128103 134.333206,1.128103 201.000000,1.128103 
	C201.000000,8.073928 201.000000,15.068182 200.681686,22.530687 
	C199.938980,22.989971 199.514603,22.981005 198.900421,22.865200 
	C198.710648,22.758362 198.285858,22.661997 198.228241,22.756878 
	C198.170639,22.851757 198.339371,22.707491 198.297974,22.430065 
	C198.163452,21.791239 198.070328,21.429838 197.904099,20.834406 
	C197.662170,20.302118 197.416306,20.095577 196.829498,19.856091 
	C196.022919,19.204250 195.480240,18.677071 194.916153,17.801296 
	C193.253891,17.001669 191.613007,16.550636 189.599960,16.151386 
	C188.482712,16.131371 187.737656,16.059576 186.848984,15.764118 
	C186.139191,15.688002 185.572998,15.835548 184.543549,16.063580 
	C177.059235,16.116325 170.038193,16.088587 162.862244,15.819115 
	C161.809006,16.004635 160.910690,16.431890 159.819550,16.960262 
	C159.626740,17.061380 159.191879,17.084082 158.807007,17.059605 
	C157.654724,17.777302 156.887314,18.519474 156.050400,19.467640 
	C155.810745,19.934929 155.570770,20.083374 154.879120,20.134480 
	C154.006485,21.451685 153.515717,22.753382 153.031403,24.306171 
	C152.976654,24.713116 152.915421,24.868969 152.587326,25.339128 
	C152.210175,30.405983 151.944702,35.161434 152.033463,39.910263 
	C152.121155,44.601768 152.566895,49.286575 152.952240,54.241768 
	C153.083099,54.884411 153.117249,55.259609 153.116241,55.982765 
	C153.439255,56.867035 153.797424,57.403355 154.111023,57.942154 
	C154.066467,57.944633 154.087875,57.857979 154.145355,58.108311 
	C154.456848,58.577190 154.710846,58.795738 154.983765,59.007862 
	C155.002686,59.001442 154.979721,59.034317 154.985077,59.415382 
	C155.669464,62.210201 156.348511,64.623955 157.011627,67.022118 
	C156.995712,67.006523 157.039093,67.015137 156.781830,67.173630 
	C156.353226,67.893066 156.181915,68.453995 156.004684,69.007843 
	C155.998779,69.000748 156.015228,69.005852 155.760056,69.170319 
	C155.341354,69.901878 155.177826,70.468971 154.981140,71.359894 
	C154.312378,72.793190 153.676773,73.902641 152.783203,75.175644 
	C152.362152,75.908775 152.199051,76.478371 152.015900,77.027588 
	C151.995865,77.007195 152.047836,77.029762 151.749451,77.049652 
	C151.311554,77.717133 151.172043,78.364723 150.996735,79.356247 
	C149.990891,81.474258 149.020828,83.248337 147.789871,85.178055 
	C147.358856,85.898094 147.188766,86.462479 147.008102,87.014969 
	C146.997543,87.003059 147.025497,87.014847 146.657639,87.051338 
	C145.203384,89.748970 144.116989,92.410110 142.999741,95.393852 
	C142.331207,96.816521 141.693527,97.916595 140.795410,99.175102 
	C140.364136,99.899406 140.193268,100.465271 140.009476,101.017517 
	C139.996567,101.003899 140.032608,101.012299 139.772949,101.175354 
	C139.349854,101.911003 139.186417,102.483612 138.985809,103.399048 
	C138.211380,105.168892 137.474152,106.595901 136.554749,108.146362 
	C136.156586,108.491821 136.045792,108.757698 136.018448,109.039627 
	C135.996689,109.011810 136.061890,109.038879 135.761398,109.056152 
	C135.324753,109.722099 135.188614,110.370773 135.014404,111.362900 
	C134.235336,113.130836 133.494308,114.555328 132.399811,115.993004 
	C131.051712,118.345039 130.057083,120.683891 129.037125,123.352730 
	C128.587265,124.447807 128.162750,125.212898 127.428238,125.979172 
	C126.412933,126.305084 125.707642,126.629814 124.672264,127.035324 
	C123.894569,127.068146 123.446960,127.020187 122.911530,126.807198 
	C122.549507,126.753105 122.275322,126.864044 121.557190,127.054443 
	C118.412376,127.102478 115.711510,127.071030 112.793945,126.765327 
	C111.430367,126.313362 110.283478,126.135658 108.892303,125.881866 
	C108.479446,125.779648 108.310883,125.753510 108.121521,125.794312 
	C108.100708,125.861244 108.240631,125.852669 108.149277,125.589645 
	C107.739731,125.154266 107.421539,124.981918 107.095276,124.861420 
	C107.087212,124.913269 107.189919,124.891724 107.112488,124.624466 
	C106.732887,124.164124 106.430733,123.971054 106.118759,123.836052 
	C106.108948,123.894127 106.223633,123.867226 106.141342,123.599182 
	C105.746796,123.147095 105.434540,122.963066 105.126602,122.841217 
	C105.130928,122.903397 105.243759,122.850372 105.203445,122.590485 
	C105.122421,122.160049 105.081718,121.989502 104.947540,121.630234 
	C104.681664,121.206169 104.456085,121.045479 103.921616,120.848114 
	C103.457016,120.436722 103.248123,120.136665 102.939987,119.644493 
	C102.662460,119.213326 102.432266,119.045479 102.096039,118.955025 
	C102.041924,118.961220 102.036163,118.852432 102.022522,118.498734 
	C101.054482,117.374405 100.100075,116.603760 99.020050,115.647095 
	C98.701469,115.220284 98.458969,115.050110 97.909897,114.888245 
	C97.478416,114.800591 97.303947,114.775208 97.116684,114.823090 
	C97.103882,114.896362 97.251381,114.876999 97.211693,114.610580 
	C97.132355,114.169128 97.092712,113.994095 96.956726,113.628052 
	C96.683899,113.199684 96.454559,113.036682 96.116135,112.955940 
	C96.059898,112.963837 96.064613,112.850357 96.044846,112.490417 
	C94.395897,110.700958 92.766708,109.271431 91.022873,107.651108 
	C90.728279,107.208359 90.490250,107.037140 89.948990,106.887177 
	C89.537308,106.804230 89.370781,106.780769 89.142654,106.841972 
	C89.081055,106.926628 89.244499,106.795738 89.149147,106.401772 
	C89.092636,104.662773 89.131485,103.317741 89.427246,101.652954 
	C89.512337,95.897377 89.340523,90.461555 89.099854,84.654938 
	C89.005646,83.531990 88.980286,82.779839 89.218300,81.820419 
	C88.918915,80.793892 88.356155,79.974617 87.833687,79.120361 
	C87.873978,79.085373 87.873131,79.192101 87.818810,78.931679 
	C87.495430,78.454185 87.226372,78.237114 86.981232,78.013199 
	C87.005142,78.006355 86.975845,78.046646 86.901215,77.814354 
	C86.654327,77.287201 86.406097,77.086159 85.843307,76.881927 
	C85.406555,76.511551 85.208374,76.238174 84.881744,75.737282 
	C84.447121,75.359993 84.140953,75.210213 83.601486,75.024124 
	C83.368179,74.987823 82.977104,74.723152 82.838272,74.537994 
	C82.452507,74.138969 82.165932,74.041191 81.609924,74.055237 
	C81.380135,74.050964 80.976707,73.830635 80.719025,73.553673 
	C74.088730,72.856354 67.719948,72.300026 61.340553,72.120277 
	C59.913818,72.080078 58.449871,73.360535 56.912598,74.134392 
	C56.822136,74.235809 56.552948,74.198250 56.241085,74.212524 
	C55.622078,74.488800 55.314934,74.750793 55.004181,75.006241 
	C55.000572,74.999695 55.012993,75.010880 54.644798,75.004791 
	C53.581791,75.744003 52.886971,76.489304 52.145653,77.162346 
	C52.099159,77.090088 52.240082,77.188438 51.839176,77.191315 
	C51.155781,78.042641 50.873291,78.891090 50.575371,80.045540 
	C50.312653,80.909134 50.065365,81.466721 49.545582,82.284119 
	C49.208561,90.423332 49.144032,98.302734 49.058056,106.384644 
	C49.036613,106.587143 48.983879,106.990997 48.991753,106.995987 
	C48.999626,107.000977 48.992214,106.984909 48.748451,106.988297 
	C48.504684,106.991692 48.017342,107.006836 47.666855,107.001221 
	C46.505058,107.625565 45.693745,108.255531 44.522469,108.923965 
	C43.136177,110.014465 42.109856,111.066490 41.053143,112.079651 
	C41.022751,112.040794 41.118084,112.066231 40.872765,112.138504 
	C40.417122,112.470688 40.206806,112.730598 39.998062,112.995712 
	C39.999634,113.000916 39.988647,112.995239 39.781746,113.063141 
	C39.308701,113.278557 39.124260,113.495514 38.838936,114.006927 
	C38.159389,114.511772 37.662411,114.791595 36.786411,115.051514 
	C35.663921,115.763504 34.920456,116.495407 34.089565,117.178612 
	C34.002144,117.129921 34.193542,117.188370 33.834145,117.130363 
	C32.306305,117.531799 31.137871,117.991249 29.515469,118.541634 
	C24.717310,118.528877 20.373119,118.425186 15.896286,118.037064 
	C13.880425,118.551262 11.997206,119.349884 10.082453,120.110382 
	C10.050919,120.072266 10.149704,120.077919 9.875692,120.192276 
	C9.444147,120.656952 9.286613,121.007278 9.126596,121.536705 
	C9.124112,121.715813 8.909412,122.002602 8.753055,122.074600 
	C8.527611,122.236954 8.381976,122.356285 8.403241,122.412468 
	C8.478722,122.611908 8.611126,122.789803 8.748724,123.444275 
	C8.723127,129.622070 8.670774,135.331436 8.503332,141.149475 
	C8.286625,141.603271 8.414212,141.845398 8.867744,142.238312 
	C8.972011,142.673050 8.979533,142.853989 9.006887,143.344757 
	C9.435297,144.056458 9.843875,144.458328 10.182175,144.875305 
	C10.111897,144.890427 10.129542,144.747742 10.247084,145.057831 
	C10.971267,145.547714 11.577910,145.727524 12.400448,145.910278 
	C12.616343,145.913254 12.996737,146.117645 13.007013,146.487122 
	C14.051466,147.375931 15.120114,148.391312 16.113405,148.322281 
	C19.188162,148.108627 22.232302,147.468979 25.292080,147.020309 
	C27.518559,146.693848 29.750978,146.407898 32.157291,146.006317 
	C32.333832,145.908737 32.737103,145.897507 33.006111,145.846558 
	C33.518162,145.533783 33.761200,145.271988 34.002258,145.004791 
	C34.000275,144.999390 34.011715,145.005234 34.236691,144.913422 
	C34.744762,144.632690 34.929161,144.373535 35.004280,144.023956 
	C34.993702,144.003769 35.038624,144.011520 35.270569,143.864258 
	C35.632408,143.383377 35.762310,143.049744 35.894707,142.518036 
	C35.897202,142.319977 36.103687,141.981888 36.390148,141.731247 
	C37.115486,139.743393 37.784073,138.027649 37.949001,136.264816 
	C38.395283,131.494751 38.627537,126.704651 38.967510,121.957687 
	C38.990341,121.992882 38.915417,121.955132 39.153419,121.883881 
	C39.693188,121.642334 39.904942,121.394974 40.027313,121.035538 
	C40.027950,121.000511 40.088394,121.035927 40.271561,120.970688 
	C40.691891,120.776321 40.862602,120.587212 41.115646,120.171951 
	C41.264435,120.005783 41.693851,119.884956 41.973915,119.830856 
	C42.491718,119.492752 42.729458,119.208748 42.977737,118.959457 
	C42.988285,118.994186 42.924049,118.960396 43.159050,118.889664 
	C43.692585,118.651260 43.901974,118.407127 44.164898,117.857193 
	C44.776005,117.382439 45.244434,117.137016 45.989346,116.837051 
	C46.502628,116.503220 46.739426,116.223930 46.985886,115.972847 
	C46.995548,116.001053 46.943699,115.971611 47.174683,115.898666 
	C47.698669,115.658585 47.905807,115.417618 48.209377,114.849754 
	C49.299732,113.763969 50.207787,112.931274 51.057732,112.067017 
	C50.999619,112.035446 51.094036,112.128098 51.451340,112.036652 
	C52.725227,111.678001 53.657238,111.136017 54.555981,111.186493 
	C62.686699,111.643097 70.811592,112.203354 79.327538,112.784409 
	C80.502052,112.815483 81.287216,112.795380 82.248154,113.035568 
	C83.228981,113.930908 84.034035,114.565948 84.887428,115.134857 
	C84.935760,115.068718 84.797951,115.157318 84.886368,115.448181 
	C85.590324,116.235420 86.205849,116.731789 86.869339,117.152306 
	C86.917297,117.076454 86.776108,117.187263 86.879219,117.495010 
	C88.258545,118.947838 89.534760,120.092926 90.852242,121.172264 
	C90.893509,121.106514 90.759933,121.185638 90.853302,121.476715 
	C91.572273,122.255997 92.197876,122.744202 92.850578,123.181160 
	C92.877678,123.129921 92.761795,123.126419 92.870773,123.447769 
	C102.128410,130.261169 105.022240,139.160431 103.158867,149.955353 
	C102.908363,151.406555 103.088692,152.940399 103.137932,154.433701 
	C103.389435,162.060242 107.699791,166.494919 115.254829,166.696869 
	C120.400177,166.834396 125.632339,167.285767 130.672241,166.548233 
	C134.006378,166.060318 137.818527,164.431763 140.095093,162.050430 
	C144.691605,157.242386 143.698166,135.842819 139.303955,130.719940 
	C138.993118,130.357559 138.533600,130.122711 138.126114,129.873291 
	C138.109009,129.918045 138.203964,129.905319 138.134338,129.543518 
	C138.371429,127.785912 138.678146,126.390099 138.993805,124.995682 
	C139.002747,124.997078 138.991074,124.980705 139.252808,124.762047 
	C142.766815,117.744949 146.019104,110.946510 149.212677,104.112625 
	C149.153961,104.077194 149.212067,104.201439 149.471008,104.039429 
	C149.935898,103.311066 150.141815,102.744728 150.278595,102.155670 
	C150.209457,102.132957 150.236908,102.275902 150.475891,102.151817 
	C150.797104,101.686333 150.879349,101.344925 151.070969,100.907211 
	C151.180344,100.810890 151.127335,100.524284 151.374893,100.343285 
	C151.730835,99.778038 151.839218,99.393784 152.065430,98.913589 
	C152.183273,98.817650 152.151031,98.515457 152.434311,98.283012 
	C156.455078,90.356949 160.192581,82.663338 163.965088,74.965195 
	C164.000092,74.960663 163.953964,74.907211 164.197418,74.699303 
	C164.713348,73.696091 164.985794,72.900787 165.203888,72.102524 
	C165.149521,72.099556 165.197571,72.197273 165.459518,72.036850 
	C165.926636,71.306557 166.131805,70.736687 166.266785,70.146339 
	C166.196579,70.125854 166.224670,70.269386 166.462341,70.145905 
	C166.784241,69.683479 166.868454,69.344543 167.065918,68.908249 
	C167.179153,68.810898 167.145477,68.514145 167.418488,68.284943 
	C168.541687,66.402107 169.391861,64.748459 170.444992,63.106056 
	C170.647949,63.117298 171.015656,62.943913 171.477570,63.021431 
	C176.936249,63.108261 181.940186,62.954166 186.927643,63.174126 
	C191.654343,63.382580 195.377777,61.806824 198.489014,57.995026 
	C199.526642,57.642498 200.263321,57.321247 201.000000,56.999996 
	C201.000000,104.906921 201.000000,152.813843 201.000000,201.000000 
	C173.979752,201.000000 146.958527,201.000000 119.444511,200.662537 
	C118.872765,198.948608 118.926033,197.546082 118.661865,196.206116 
	C118.519249,195.482788 117.833801,194.866470 117.393265,194.201874 
	C115.899437,195.607986 114.287895,196.918396 113.005074,198.496063 
	C112.728523,198.836182 113.637245,200.140060 114.000000,201.000000 
M39.003403,43.007931 
	C39.003403,43.007931 39.067905,43.027073 38.559399,43.310158 
	C38.418884,43.661499 38.278370,44.012844 38.120182,44.727997 
	C38.120182,44.727997 37.905647,45.022346 37.337070,45.507187 
	C34.804596,50.107887 35.977840,54.557617 38.086838,59.316154 
	C38.086838,59.316154 38.105057,59.709618 38.206821,60.257229 
	C38.472523,60.504025 38.738224,60.750824 39.000000,61.000000 
	C39.000000,61.000000 39.002544,60.995991 39.214142,61.453171 
	C39.494400,61.625938 39.774658,61.798702 40.002804,61.999985 
	C40.002804,61.999985 40.024166,61.944553 40.328182,62.464920 
	C40.699039,62.595493 41.069897,62.726063 42.206532,62.852306 
	C43.476879,62.962734 44.747223,63.073158 46.326477,63.566563 
	C46.877560,63.441574 47.428638,63.316586 48.737125,63.073273 
	C49.500443,63.112709 50.263763,63.152145 51.493309,63.638641 
	C52.658916,63.446278 53.824520,63.253914 55.297764,62.854816 
	C55.297764,62.854816 55.668304,62.863686 56.451271,62.949467 
	C60.307335,61.885578 60.732418,61.239918 59.716480,57.020061 
	C59.757442,53.482357 59.798409,49.944649 59.941277,45.574818 
	C59.743965,42.467342 59.696087,39.195866 54.171509,41.092102 
	C53.103649,41.159222 52.035789,41.226345 50.283268,41.144714 
	C49.122326,41.203945 47.961384,41.263172 46.177994,41.140419 
	C44.851501,41.121502 43.525009,41.102581 41.542759,41.046154 
	C41.039890,41.395420 40.537022,41.744686 40.016567,42.019520 
	C40.016567,42.019520 40.088608,42.045219 39.598843,42.222889 
	C39.409756,42.504936 39.220673,42.786980 39.003403,43.007931 
M105.031281,65.031334 
	C105.031281,65.031334 105.109001,65.045753 104.577637,65.308853 
	C104.428604,65.663528 104.279572,66.018204 104.093918,66.745552 
	C104.093918,66.745552 103.841393,67.022049 103.424751,67.332359 
	C103.327591,67.657066 103.230431,67.981781 103.129829,68.897842 
	C103.032715,69.279106 102.935593,69.660378 102.314453,70.658180 
	C102.473427,74.760849 102.632408,78.863518 102.930420,83.785324 
	C102.982986,85.443794 103.035545,87.102257 103.141907,89.250771 
	C103.251450,89.580658 103.461662,89.823341 104.243637,90.456383 
	C105.177254,91.413330 106.110870,92.370270 107.273911,93.663269 
	C107.478508,93.860512 107.722572,93.968971 108.000305,94.000000 
	C108.000305,94.000000 108.010506,93.991150 108.477753,94.606239 
	C115.231956,95.013382 121.984825,95.451950 128.744064,95.741501 
	C129.109573,95.757164 129.528580,94.524139 129.962051,93.960197 
	C129.962051,93.960197 129.872955,93.923798 130.336456,93.841331 
	C130.641113,93.710541 130.855606,93.491470 131.413635,92.722984 
	C132.022018,92.138329 132.630386,91.553665 133.609909,90.732811 
	C133.830978,90.516533 133.949707,90.253952 134.003723,89.990753 
	C134.003723,89.990753 133.946106,89.977303 134.505859,89.590691 
	C134.622040,88.938065 134.738220,88.285431 134.778915,87.074944 
	C134.871796,86.713036 134.964691,86.351120 135.533646,85.615952 
	C135.375610,84.746353 135.217575,83.876747 134.915665,82.125771 
	C134.966339,79.747330 135.017014,77.368896 135.579773,74.508705 
	C135.376343,73.006210 135.172913,71.503708 134.797684,69.679718 
	C134.797684,69.679718 134.870193,69.322479 134.854858,68.816063 
	C134.653992,68.555801 134.453125,68.295540 133.935074,67.526520 
	C133.570221,66.819138 133.205353,66.111763 132.920898,64.571419 
	C131.994629,59.496391 129.229843,60.169506 125.090378,62.620712 
	C120.359482,62.576866 115.628578,62.533024 110.532349,62.211872 
	C110.029869,62.422211 109.527397,62.632549 108.506783,63.144901 
	C107.783043,63.470711 107.059311,63.796520 105.761971,64.229584 
	C105.523483,64.522690 105.285004,64.815788 105.031281,65.031334 
M103.401237,55.869595 
	C103.670784,55.733299 103.860916,55.524639 104.281677,54.963585 
	C104.281677,54.963585 104.688019,54.866436 105.457581,54.892494 
	C106.954170,52.341370 109.527725,49.877022 109.741623,47.222538 
	C110.338478,39.815277 110.105713,32.323612 109.822060,24.879686 
	C109.772873,23.588793 107.876038,22.368303 106.953224,21.004364 
	C106.953224,21.004364 106.872665,21.147043 106.956497,20.377556 
	C105.891510,15.146359 101.212830,14.033317 97.370834,13.602257 
	C91.548431,12.949005 85.507637,13.410173 79.661438,14.175587 
	C77.003242,14.523611 74.588829,16.733688 72.005722,18.022240 
	C72.005722,18.022240 72.097984,18.050108 71.600388,18.211916 
	C71.406860,18.491951 71.213333,18.771984 70.897743,19.527252 
	C70.713676,19.830330 70.445229,19.999588 69.581535,20.270128 
	C69.421341,20.598492 69.261147,20.926857 69.014610,21.681427 
	C69.014610,21.681427 68.751595,22.027735 68.378250,22.282434 
	C68.158043,22.511801 68.044701,22.785456 67.997940,23.574675 
	C67.997940,23.574675 67.762703,23.985025 67.013161,24.217094 
	C66.718346,24.592094 66.170319,24.964279 66.166115,25.342510 
	C66.082161,32.895897 65.916664,40.454617 66.158920,47.999695 
	C66.202972,49.371727 67.965759,50.688572 69.006271,52.022900 
	C69.006271,52.022900 68.957848,52.075695 68.975121,52.824371 
	C69.713326,56.160328 71.675606,58.009727 75.204422,58.006195 
	C83.351555,57.998035 91.500290,58.082642 99.644012,57.916180 
	C100.771370,57.893135 101.873978,56.659416 103.000000,56.000000 
	C103.000000,56.000000 102.985580,55.988533 103.401237,55.869595 
M107.931602,185.705200 
	C110.636444,186.197571 113.341286,186.689941 116.751472,187.310699 
	C115.580574,183.829086 114.780144,180.827774 113.533722,178.024765 
	C112.973839,176.765671 111.522217,175.903122 110.475227,174.860626 
	C109.451439,175.907776 108.427650,176.954926 107.039612,178.701645 
	C106.432716,180.490143 105.699150,182.252640 105.322334,184.088379 
	C105.243889,184.470520 106.485832,185.123718 107.931602,185.705200 
M34.021431,64.964088 
	C34.021431,64.964088 34.065048,64.869293 34.024151,64.102440 
	C32.967743,63.059971 31.997118,61.236172 30.840204,61.109154 
	C25.596441,60.533440 20.242256,59.876537 15.048061,60.413025 
	C12.596468,60.666241 8.658145,63.329857 8.428987,65.261444 
	C7.622054,72.063110 7.802246,79.047302 8.355169,85.901970 
	C8.506021,87.772095 10.274255,91.332565 14.682293,88.964378 
	C15.132877,89.036270 15.583462,89.108162 16.669859,89.696617 
	C20.788101,89.799316 24.908587,89.848190 29.023958,90.019753 
	C33.198944,90.193810 35.660492,88.272980 36.091637,84.152733 
	C36.440281,80.820900 35.909645,77.316696 36.726780,74.134918 
	C37.713036,70.294609 36.467896,67.587631 34.021431,64.964088 
M164.619308,123.701561 
	C158.937668,125.258041 155.789642,129.244171 155.458008,134.847610 
	C155.036057,141.977295 154.905365,149.192200 155.514908,156.296082 
	C156.142273,163.607788 160.751190,167.446869 168.247849,167.737946 
	C174.569458,167.983414 180.913223,167.946014 187.238052,167.745789 
	C194.668167,167.510574 199.488846,162.908188 199.808395,155.550110 
	C200.097275,148.898224 200.076019,142.216431 199.822327,135.561905 
	C199.550629,128.435059 194.941650,123.520782 187.864395,123.227814 
	C180.394745,122.918602 172.895142,123.333488 164.619308,123.701561 
M52.442650,140.225479 
	C52.109894,147.108414 51.164680,154.048737 51.801178,160.840851 
	C52.003712,163.002090 56.176620,165.871658 58.950424,166.465225 
	C63.413925,167.420364 68.236847,166.974350 72.885017,166.713013 
	C77.949631,166.428253 80.971893,162.982483 81.064423,157.848892 
	C81.142464,153.519150 81.167816,149.184082 81.044891,144.856247 
	C80.907539,140.020615 78.303665,136.987366 73.453232,136.643234 
	C68.655067,136.302811 63.785759,136.293198 59.002045,136.731750 
	C56.911144,136.923431 54.955650,138.592117 52.442650,140.225479 
M171.595612,102.823929 
	C177.804260,107.098869 184.785629,105.984818 191.041885,104.111076 
	C195.978424,102.632584 194.478790,96.885574 194.655930,92.689232 
	C194.718765,91.200470 194.778931,89.689171 194.601120,88.217056 
	C194.147842,84.464531 192.589615,80.825722 188.401672,81.157173 
	C182.400253,81.632141 175.229004,77.699409 170.691711,85.015213 
	C170.520050,85.291992 170.325211,85.632347 170.338562,85.934349 
	C170.577515,91.336342 170.847000,96.736977 171.595612,102.823929 
M125.248245,26.172832 
	C120.789925,27.199034 119.030220,30.189199 119.108047,34.552219 
	C119.146538,36.710026 119.098221,38.869247 119.121872,41.027473 
	C119.168243,45.259975 121.215019,47.973351 125.403572,48.758900 
	C133.987411,50.368759 139.582336,48.721596 141.346176,44.213356 
	C141.466858,43.904877 141.665863,43.595413 141.677963,43.280628 
	C142.138840,31.279228 143.701370,24.962528 128.591644,26.096926 
	C127.765938,26.158920 126.931885,26.109819 125.248245,26.172832 
M40.449661,10.034458 
	C36.771244,10.238116 32.179821,8.954197 31.157526,14.297725 
	C30.573532,17.350266 30.550129,20.695435 31.177490,23.721605 
	C31.527943,25.412064 33.522579,27.649847 35.134457,28.002071 
	C38.298370,28.693451 41.840935,28.781145 44.971115,28.039473 
	C46.630409,27.646315 48.182743,25.173082 48.985001,23.297392 
	C49.648636,21.745804 49.157181,19.693026 49.148842,17.862442 
	C49.118095,11.110910 48.247417,10.242869 40.449661,10.034458 
M2.355425,25.287977 
	C2.256530,27.441555 1.583947,29.785330 2.217437,31.696093 
	C2.872474,33.671844 4.727190,36.616493 6.178131,36.688187 
	C9.605107,36.857513 14.728517,39.188000 16.134756,34.104160 
	C17.041109,30.827513 16.390779,26.499920 14.903535,23.373293 
	C13.662243,20.763731 5.854663,21.938692 2.355425,25.287977 
M127.431183,187.114594 
	C128.711487,186.074081 130.349609,177.457489 129.061630,176.807266 
	C126.525642,175.527008 123.565903,175.086136 120.695786,174.273804 
	C118.541946,186.790497 119.206383,188.054337 127.431183,187.114594 
M58.455009,187.275009 
	C60.985016,186.766235 63.515022,186.257462 65.013489,185.956131 
	C65.013489,182.578705 65.376701,180.536026 64.896149,178.716187 
	C64.525772,177.313553 63.328381,175.557373 62.079678,175.098358 
	C60.387226,174.476242 58.294300,174.943573 55.139767,174.943573 
	C56.058643,179.599976 56.808155,183.398102 58.455009,187.275009 
M84.510399,183.709549 
	C84.166702,181.469070 83.933868,179.202637 83.418739,177.002289 
	C83.240097,176.239258 82.361427,175.640106 81.802498,174.966110 
	C81.199745,175.601974 80.122780,176.207855 80.080345,176.879150 
	C79.934593,179.185074 79.512703,181.813950 80.420143,183.744339 
	C81.227005,185.460800 83.667572,187.432602 85.373817,187.420502 
	C87.145767,187.407959 89.459000,185.486862 90.496765,183.771835 
	C91.403328,182.273605 91.081879,179.879440 90.879181,177.925049 
	C90.772041,176.892120 89.761017,175.952957 89.158073,174.971451 
	C88.512947,175.914932 87.667068,176.780762 87.265724,177.818527 
	C86.499802,179.799042 85.987297,181.877548 84.510399,183.709549 
M73.109238,182.965942 
	C73.092674,181.154709 73.308807,179.297607 72.964615,177.550934 
	C72.783539,176.632034 71.622879,175.906174 70.904549,175.093140 
	C70.270889,175.844452 69.145073,176.561829 69.090492,177.353088 
	C68.877464,180.441406 69.003555,183.553131 69.003555,186.751526 
	C71.885246,186.751526 74.300240,186.751526 76.715233,186.751526 
	C76.710617,186.443008 76.706001,186.134476 76.701393,185.825958 
	C75.534599,185.153992 74.367805,184.482025 73.109238,182.965942 
M95.161545,186.106216 
	C97.276794,186.519516 99.392052,186.932816 100.528954,187.154938 
	C99.261116,182.676544 98.174042,178.836700 97.086975,174.996857 
	C96.552864,174.965820 96.018753,174.934799 95.484642,174.903763 
	C95.322212,178.337204 95.159782,181.770660 95.161545,186.106216 
M105.883156,195.003677 
	C105.539810,195.917572 105.196472,196.831451 104.853134,197.745346 
	C105.234077,197.851898 105.615013,197.958435 105.995949,198.064987 
	C105.995949,197.264984 105.995949,196.464966 105.883156,195.003677 
M107.252541,197.129517 
	C107.758644,197.126862 108.264755,197.124207 108.770859,197.121552 
	C108.629051,196.548309 108.487244,195.975067 108.345444,195.401840 
	C107.941925,195.768021 107.538406,196.134201 107.252541,197.129517 
z"/>
<path fill="#E1F9FD" opacity="1.000000" stroke="none" 
	d="
M201.000000,56.531338 
	C200.263321,57.321247 199.526642,57.642498 198.566238,57.620262 
	C198.819199,55.194427 199.677399,53.117302 199.705963,51.028828 
	C199.824097,42.391716 199.691086,33.751163 199.986633,25.070343 
	C200.548599,25.019205 200.774292,25.009604 201.000000,25.000000 
	C201.000000,35.354229 201.000000,45.708454 201.000000,56.531338 
z"/>
<path fill="#DDDDDD" opacity="1.000000" stroke="none" 
	d="
M114.416656,201.000000 
	C113.637245,200.140060 112.728523,198.836182 113.005074,198.496063 
	C114.287895,196.918396 115.899437,195.607986 117.393265,194.201874 
	C117.833801,194.866470 118.519249,195.482788 118.661865,196.206116 
	C118.926033,197.546082 118.872765,198.948608 118.975853,200.662537 
	C117.611107,201.000000 116.222221,201.000000 114.416656,201.000000 
z"/>
<path fill="#EAF7FC" opacity="1.000000" stroke="none" 
	d="
M201.000000,24.666748 
	C200.774292,25.009604 200.548599,25.019205 199.806107,24.847754 
	C199.222931,24.101810 199.156570,23.536924 199.090210,22.972036 
	C199.514603,22.981005 199.938980,22.989971 200.681686,22.999470 
	C201.000000,23.444498 201.000000,23.888998 201.000000,24.666748 
z"/>
<path fill="#287ABB" opacity="1.000000" stroke="none" 
	d="
M153.041168,75.012100 
	C153.676773,73.902641 154.312378,72.793190 155.219604,71.180550 
	C155.665894,70.120193 155.840561,69.563019 156.015228,69.005852 
	C156.015228,69.005852 155.998779,69.000748 156.252457,68.841820 
	C156.683792,68.126976 156.861435,67.571053 157.039093,67.015137 
	C157.039093,67.015137 156.995712,67.006523 157.281219,66.803452 
	C160.694763,62.713963 157.698196,60.921680 154.979721,59.034317 
	C154.979721,59.034317 155.002686,59.001442 154.935974,58.750107 
	C154.608810,58.285175 154.348343,58.071575 154.087875,57.857979 
	C154.087875,57.857979 154.066467,57.944633 154.078918,57.618954 
	C153.778030,56.740452 153.464722,56.187630 153.151398,55.634808 
	C153.117249,55.259609 153.083099,54.884411 153.005829,53.778015 
	C152.926529,43.706154 152.890350,34.365490 152.854187,25.024824 
	C152.915421,24.868969 152.976654,24.713116 153.267990,24.083012 
	C154.085739,22.445498 154.673370,21.282238 155.260986,20.118973 
	C155.570770,20.083374 155.810745,19.934929 156.350647,19.360001 
	C157.544205,18.392269 158.368042,17.738176 159.191879,17.084082 
	C159.191879,17.084082 159.626740,17.061380 160.138947,16.985050 
	C161.439819,16.626097 162.228485,16.343473 163.017151,16.060848 
	C170.038193,16.088587 177.059235,16.116325 184.869873,16.157696 
	C186.103836,16.110146 186.548218,16.048964 186.992584,15.987781 
	C187.737656,16.059576 188.482712,16.131371 189.826431,16.344772 
	C191.331161,16.853500 192.237244,17.220621 193.127502,17.978895 
	C193.771729,21.120562 194.637711,23.622868 198.339371,22.707491 
	C198.339371,22.707491 198.170639,22.851757 198.135162,23.249439 
	C198.066254,32.471153 198.039062,41.295212 197.997375,50.119198 
	C197.965286,56.907623 192.953156,61.844780 186.217087,62.032974 
	C181.145416,62.174679 176.082474,62.628841 171.015656,62.943916 
	C171.015656,62.943913 170.647949,63.117298 170.020828,63.087387 
	C165.456757,63.563049 167.514282,66.538437 167.145477,68.514145 
	C167.145477,68.514145 167.179153,68.810898 166.847504,69.052429 
	C166.418793,69.619110 166.321732,69.944244 166.224670,70.269386 
	C166.224670,70.269386 166.196579,70.125854 165.942505,70.243195 
	C165.524811,70.972778 165.361191,71.585022 165.197571,72.197273 
	C165.197571,72.197273 165.149521,72.099556 164.891449,72.235069 
	C164.406906,73.216125 164.180435,74.061668 163.953964,74.907211 
	C163.953964,74.907211 164.000092,74.960663 163.626114,75.029572 
	C161.823456,77.249390 160.066132,79.254150 159.031631,81.580360 
	C156.557007,87.144859 154.422714,92.860710 152.151031,98.515457 
	C152.151031,98.515457 152.183273,98.817650 151.827484,99.099396 
	C151.356918,99.762192 151.242126,100.143234 151.127335,100.524284 
	C151.127335,100.524284 151.180344,100.810890 150.850937,101.052010 
	C150.426651,101.620720 150.331787,101.948311 150.236908,102.275902 
	C150.236908,102.275902 150.209457,102.132957 149.951981,102.247894 
	C149.533691,102.975693 149.372879,103.588562 149.212067,104.201439 
	C149.212067,104.201439 149.153961,104.077194 148.856964,104.191933 
	C145.370316,111.198013 142.180695,118.089355 138.991074,124.980705 
	C138.991074,124.980705 139.002747,124.997078 138.644989,125.035934 
	C135.192108,126.632080 135.094711,128.241058 138.203964,129.905319 
	C138.203964,129.905319 138.109009,129.918045 138.084595,130.253677 
	C139.039917,138.230026 140.326233,145.847839 140.899826,153.518921 
	C141.338287,159.382629 138.972870,162.652252 133.123856,163.948685 
	C128.510345,164.971268 123.612633,164.888336 118.836067,164.960617 
	C109.678207,165.099213 105.005173,160.317764 104.998817,151.128098 
	C104.996513,147.804428 104.628639,144.430817 105.068840,141.166458 
	C106.395195,131.330917 99.530251,127.311432 92.761795,123.126419 
	C92.761795,123.126419 92.877678,123.129921 92.865738,122.821793 
	C92.155846,122.070992 91.457886,121.628319 90.759933,121.185638 
	C90.759933,121.185638 90.893509,121.106514 90.887161,120.806030 
	C90.586075,119.338966 90.291336,118.172394 90.259186,116.826271 
	C91.682861,115.434029 92.843933,114.221344 94.327286,112.985733 
	C94.863335,112.936432 95.077110,112.910049 95.484589,112.881683 
	C95.678299,112.879700 96.064613,112.850357 96.064613,112.850357 
	C96.064613,112.850357 96.059898,112.963837 96.092392,113.125435 
	C96.124893,113.287033 96.111015,113.628967 96.185799,113.926620 
	C96.590851,114.441849 96.921112,114.659424 97.251381,114.876999 
	C97.251381,114.876999 97.103882,114.896362 97.192490,115.104095 
	C97.606171,115.495117 97.931252,115.678406 98.184036,115.880371 
	C98.111740,115.899040 98.134460,115.751442 98.205429,116.029068 
	C98.591324,116.499725 98.906242,116.692741 99.164841,116.905441 
	C99.108521,116.925125 99.106430,116.805824 99.190132,117.072548 
	C99.587364,117.518532 99.900902,117.697792 100.158127,117.888435 
	C100.101822,117.899818 100.122833,117.786873 100.196030,118.055969 
	C100.573235,118.518967 100.877243,118.712868 101.133308,118.896080 
	C101.085373,118.885391 101.140900,118.804367 101.103256,119.189041 
	C102.037773,120.395981 103.009941,121.218239 104.129326,122.260025 
	C104.598946,122.603157 104.921349,122.726768 105.243759,122.850372 
	C105.243759,122.850372 105.130928,122.903397 105.203232,123.114319 
	C105.591568,123.505898 105.907600,123.686562 106.223633,123.867226 
	C106.223633,123.867226 106.108948,123.894127 106.189720,124.107574 
	C106.576965,124.511253 106.883446,124.701485 107.189919,124.891724 
	C107.189919,124.891724 107.087212,124.913269 107.183075,125.129204 
	C107.599510,125.514320 107.920067,125.683495 108.240631,125.852669 
	C108.240631,125.852669 108.100708,125.861244 108.199081,126.083679 
	C108.626137,126.507057 108.954819,126.707993 109.561844,127.010300 
	C110.897003,127.087654 111.953819,127.063622 113.010643,127.039597 
	C115.711510,127.071030 118.412376,127.102478 121.806946,127.128174 
	C122.666885,127.072357 122.833115,127.022293 122.999352,126.972229 
	C123.446960,127.020187 123.894569,127.068146 124.998718,127.125954 
	C126.349594,126.749870 127.043922,126.363930 127.738251,125.977997 
	C128.162750,125.212898 128.587265,124.447807 129.300598,123.147934 
	C130.644043,120.402039 131.698669,118.190926 132.753281,115.979820 
	C133.494308,114.555328 134.235336,113.130836 135.258026,111.197472 
	C135.713745,110.138695 135.887817,109.588783 136.061890,109.038879 
	C136.061890,109.038879 135.996689,109.011810 136.223328,108.933861 
	C136.715759,108.636841 136.811417,108.359177 136.736923,108.022911 
	C137.474152,106.595901 138.211380,105.168892 139.223907,103.216553 
	C139.676987,102.131577 139.854797,101.571938 140.032608,101.012299 
	C140.032608,101.012299 139.996567,101.003899 140.260941,100.852676 
	C140.702148,100.139862 140.878983,99.578262 141.055832,99.016663 
	C141.693527,97.916595 142.331207,96.816521 143.266327,95.176987 
	C144.717651,92.096634 145.871567,89.555740 147.025497,87.014847 
	C147.025497,87.014847 146.997543,87.003059 147.249786,86.841866 
	C147.684952,86.127922 147.867874,85.575165 148.050781,85.022415 
	C149.020828,83.248337 149.990891,81.474258 151.235596,79.184845 
	C151.689438,78.122932 151.868637,77.576347 152.047836,77.029762 
	C152.047836,77.029762 151.995865,77.007195 152.264374,76.856667 
	C152.702316,76.141457 152.871735,75.576782 153.041168,75.012100 
M136.294800,136.435196 
	C136.010773,136.706253 135.726746,136.977295 135.442719,137.248352 
	C135.555069,137.365921 135.758957,137.591904 135.766602,137.585464 
	C136.066132,137.332504 136.347778,137.058380 136.294800,136.435196 
z"/>
<path fill="#ACADB0" opacity="1.000000" stroke="none" 
	d="
M165.013962,123.566803 
	C172.895142,123.333488 180.394745,122.918602 187.864395,123.227814 
	C194.941650,123.520782 199.550629,128.435059 199.822327,135.561905 
	C200.076019,142.216431 200.097275,148.898224 199.808395,155.550110 
	C199.488846,162.908188 194.668167,167.510574 187.238052,167.745789 
	C180.913223,167.946014 174.569458,167.983414 168.247849,167.737946 
	C160.751190,167.446869 156.142273,163.607788 155.514908,156.296082 
	C154.905365,149.192200 155.036057,141.977295 155.458008,134.847610 
	C155.789642,129.244171 158.937668,125.258041 165.013962,123.566803 
z"/>
<path fill="#15C0E8" opacity="1.000000" stroke="none" 
	d="
M104.688019,54.866436 
	C104.688019,54.866436 104.281677,54.963585 103.899963,55.122375 
	C103.223778,55.428867 103.046227,55.664658 102.985580,55.988533 
	C102.985580,55.988533 103.000000,56.000000 102.579559,56.052097 
	C95.550896,56.419876 88.924950,56.534275 82.339989,57.114094 
	C76.945602,57.589085 72.544540,56.079029 68.957848,52.075695 
	C68.957848,52.075695 69.006271,52.022900 68.927315,51.607594 
	C68.475464,49.255726 67.813820,47.323997 67.781319,45.381741 
	C67.662025,38.251396 67.751694,31.117552 67.762703,23.985025 
	C67.762703,23.985025 67.997940,23.574675 68.233719,23.237274 
	C68.727089,22.662058 68.821121,22.371346 68.751595,22.027735 
	C68.751595,22.027735 69.014610,21.681427 69.303787,21.340267 
	C69.759438,20.677750 69.925919,20.356390 70.092407,20.035027 
	C70.445229,19.999588 70.713676,19.830330 71.209930,19.208752 
	C71.714066,18.610203 71.906029,18.330156 72.097984,18.050108 
	C72.097984,18.050108 72.005722,18.022240 72.424805,17.986839 
	C79.705299,17.381594 86.560440,16.713503 93.430199,16.274229 
	C98.557564,15.946371 103.230553,17.211290 106.872665,21.147043 
	C106.872665,21.147043 106.953224,21.004364 106.962509,21.469959 
	C107.414124,28.774359 108.375793,35.633682 108.106697,42.444378 
	C107.941566,46.623566 105.891602,50.728279 104.688019,54.866436 
z"/>
<path fill="#2379BC" opacity="1.000000" stroke="none" 
	d="
M82.072388,112.775276 
	C81.287216,112.795380 80.502052,112.815483 78.998184,112.545822 
	C76.484512,112.169380 74.681610,112.161362 72.896011,111.981506 
	C67.215668,111.409325 61.222816,113.656410 55.903763,109.330849 
	C54.330208,108.051193 51.238956,108.635384 51.094036,112.128098 
	C51.094036,112.128098 50.999619,112.035446 50.671944,112.036842 
	C48.488216,112.565086 46.632168,113.091934 44.515553,113.692741 
	C44.280956,112.697182 44.065365,111.782280 43.857853,110.880547 
	C43.865929,110.893715 43.869961,110.892487 44.249226,110.924034 
	C45.346104,110.215134 46.063717,109.474686 46.872272,108.759041 
	C46.963211,108.783844 46.774696,108.781982 47.117134,108.820763 
	C47.970455,108.234665 48.481335,107.609787 48.992218,106.984909 
	C48.992214,106.984909 48.999626,107.000977 49.391418,107.001968 
	C51.035496,106.874611 52.287781,106.746277 52.999195,106.673370 
	C52.644615,102.071594 52.444336,97.863739 51.969395,93.687111 
	C51.264381,87.487228 52.687469,81.716194 55.538933,76.060783 
	C63.293015,76.020782 70.587936,75.954430 77.881294,76.033623 
	C80.220932,76.059029 82.659752,75.780563 83.553688,79.221069 
	C83.876968,80.465271 86.405457,81.136497 87.950912,82.530212 
	C87.649529,90.994270 87.324913,98.997284 86.621727,107.006645 
	C85.210930,107.828690 84.178711,108.644402 83.146484,109.460106 
	C83.699287,109.912872 84.252083,110.365646 84.804886,110.818413 
	C85.533813,109.709381 86.269341,108.604546 86.981956,107.485130 
	C87.056961,107.367302 86.997025,107.163567 87.375504,106.990555 
	C88.249039,106.919525 88.746773,106.857635 89.244499,106.795746 
	C89.244499,106.795738 89.081055,106.926628 89.073196,107.155006 
	C89.045967,107.595551 89.026588,107.807709 89.004814,108.419029 
	C89.001511,111.546165 89.000603,114.274155 88.627716,117.010834 
	C87.762520,117.075432 87.269318,117.131348 86.776108,117.187263 
	C86.776108,117.187263 86.917297,117.076454 86.886703,116.796036 
	C86.170052,116.062851 85.484001,115.610085 84.797951,115.157318 
	C84.797951,115.157318 84.935760,115.068718 84.916794,114.805138 
	C83.956017,113.952797 83.014198,113.364037 82.072388,112.775276 
M58.564552,100.294479 
	C58.293648,100.010567 58.022743,99.726662 57.751835,99.442757 
	C57.634323,99.555061 57.408474,99.758858 57.414913,99.766487 
	C57.667759,100.065918 57.941750,100.347488 58.564552,100.294479 
M64.294662,99.435486 
	C64.010674,99.706444 63.726677,99.977409 63.442688,100.248367 
	C63.555038,100.365898 63.758881,100.591805 63.766533,100.585335 
	C64.066063,100.332458 64.347717,100.058411 64.294662,99.435486 
z"/>
<path fill="#297ABB" opacity="1.000000" stroke="none" 
	d="
M102.838470,70.041641 
	C102.935593,69.660378 103.032715,69.279106 103.347275,68.452362 
	C103.656937,67.678596 103.749161,67.350327 103.841393,67.022049 
	C103.841393,67.022049 104.093918,66.745552 104.360413,66.410767 
	C104.787613,65.732574 104.948311,65.389168 105.109001,65.045753 
	C105.109001,65.045753 105.031281,65.031334 105.314583,64.994400 
	C105.843781,64.679085 106.089676,64.400703 106.335571,64.122330 
	C107.059311,63.796520 107.783043,63.470711 109.090569,63.018814 
	C110.082130,62.758209 110.489906,62.623692 110.897682,62.489174 
	C115.628578,62.533024 120.359482,62.576866 125.886665,62.654373 
	C128.735474,63.593483 130.787979,64.498932 132.840500,65.404381 
	C133.205353,66.111763 133.570221,66.819138 134.087616,68.036987 
	C134.450180,68.805794 134.660187,69.064133 134.870193,69.322479 
	C134.870193,69.322479 134.797684,69.679718 134.815384,70.253128 
	C134.911285,72.214516 134.989502,73.602486 135.067719,74.990456 
	C135.017014,77.368896 134.966339,79.747330 134.895416,82.933380 
	C134.935959,84.490395 134.996765,85.239807 135.057571,85.989212 
	C134.964691,86.351120 134.871796,86.713036 134.599518,87.596268 
	C134.262131,88.737503 134.104111,89.357399 133.946106,89.977303 
	C133.946106,89.977303 134.003723,89.990753 133.776642,90.066788 
	C133.281433,90.356339 133.177841,90.631737 133.238770,90.969002 
	C132.630386,91.553665 132.022018,92.138329 130.953644,92.968887 
	C130.159653,93.339836 129.952759,93.576172 129.872955,93.923798 
	C129.872955,93.923798 129.962051,93.960197 129.480316,93.962357 
	C122.002548,93.973396 115.006523,93.982277 108.010506,93.991150 
	C108.010506,93.991150 108.000305,94.000000 107.902435,93.808853 
	C107.604118,93.382454 107.350754,93.285622 107.044487,93.327209 
	C106.110870,92.370270 105.177254,91.413330 104.008232,89.963867 
	C103.544586,89.234467 103.316345,88.997597 103.088104,88.760727 
	C103.035545,87.102257 102.982986,85.443794 102.937424,82.920792 
	C102.909111,78.051392 102.873795,74.046516 102.838470,70.041641 
z"/>
<path fill="#17BFE8" opacity="1.000000" stroke="none" 
	d="
M52.690659,139.907776 
	C54.955650,138.592117 56.911144,136.923431 59.002045,136.731750 
	C63.785759,136.293198 68.655067,136.302811 73.453232,136.643234 
	C78.303665,136.987366 80.907539,140.020615 81.044891,144.856247 
	C81.167816,149.184082 81.142464,153.519150 81.064423,157.848892 
	C80.971893,162.982483 77.949631,166.428253 72.885017,166.713013 
	C68.236847,166.974350 63.413925,167.420364 58.950424,166.465225 
	C56.176620,165.871658 52.003712,163.002090 51.801178,160.840851 
	C51.164680,154.048737 52.109894,147.108414 52.690659,139.907776 
z"/>
<path fill="#2D7BB8" opacity="1.000000" stroke="none" 
	d="
M43.849777,110.867378 
	C44.065365,111.782280 44.280956,112.697182 44.515553,113.692741 
	C46.632168,113.091934 48.488216,112.565086 50.730057,112.068405 
	C50.207787,112.931274 49.299732,113.763969 47.956070,114.882599 
	C47.328213,115.436211 47.135956,115.703911 46.943695,115.971611 
	C46.943699,115.971611 46.995548,116.001053 46.714485,116.037247 
	C46.193237,116.346161 45.953049,116.618881 45.712860,116.891602 
	C45.244434,117.137016 44.776005,117.382439 43.912361,117.897812 
	C43.319439,118.431969 43.121742,118.696182 42.924049,118.960396 
	C42.924049,118.960396 42.988285,118.994186 42.703453,119.025200 
	C42.177032,119.332458 41.935440,119.608704 41.693848,119.884956 
	C41.693851,119.884956 41.264435,120.005783 40.914001,120.201553 
	C40.306324,120.536598 40.147934,120.749466 40.088394,121.035927 
	C40.088394,121.035927 40.027950,121.000511 39.769493,121.070984 
	C39.312496,121.412674 39.113956,121.683907 38.915417,121.955132 
	C38.915417,121.955132 38.990341,121.992882 38.601044,122.079224 
	C37.489227,123.673637 36.219093,125.155174 36.144520,126.694626 
	C35.898216,131.779114 36.083855,136.884521 36.103687,141.981888 
	C36.103687,141.981888 35.897202,142.319977 35.658516,142.660538 
	C35.292759,143.337906 35.165691,143.674713 35.038624,144.011520 
	C35.038624,144.011520 34.993702,144.003769 34.775078,144.109192 
	C34.271175,144.406708 34.089596,144.670242 34.011715,145.005234 
	C34.011715,145.005234 34.000275,144.999390 33.729195,145.049576 
	C33.217777,145.365677 32.977440,145.631592 32.737103,145.897507 
	C32.737103,145.897507 32.333832,145.908737 31.692627,145.960846 
	C25.033194,146.047867 19.014965,146.082748 12.996737,146.117645 
	C12.996737,146.117645 12.616343,145.913254 12.213696,145.668915 
	C11.250546,145.198944 10.690045,144.973343 10.129543,144.747742 
	C10.129542,144.747742 10.111897,144.890427 10.125554,144.592438 
	C9.755161,143.874603 9.371111,143.454758 8.987059,143.034912 
	C8.979533,142.853989 8.972011,142.673050 8.896103,141.991669 
	C8.827719,141.491196 8.618422,141.040817 8.618422,141.040817 
	C8.670774,135.331436 8.723127,129.622070 8.856353,123.212662 
	C8.927955,122.342628 8.918683,122.172615 8.909412,122.002602 
	C8.909412,122.002602 9.124112,121.715813 9.379301,121.397385 
	C9.806229,120.745277 9.977967,120.411598 10.149706,120.077919 
	C10.149704,120.077919 10.050919,120.072266 10.450703,119.991943 
	C12.576634,119.381584 14.302781,118.851540 16.028927,118.321503 
	C20.373119,118.425186 24.717310,118.528877 29.842319,118.685287 
	C31.813272,118.221458 33.003407,117.704910 34.193542,117.188370 
	C34.193542,117.188370 34.002144,117.129921 34.399582,117.113686 
	C35.586491,116.422104 36.375961,115.746758 37.165436,115.071419 
	C37.662411,114.791595 38.159389,114.511772 39.062981,113.974304 
	C39.741760,113.547546 39.914776,113.307068 39.988647,112.995239 
	C39.988647,112.995239 39.999634,113.000916 40.262909,112.956039 
	C40.723484,112.629517 40.920784,112.347878 41.118084,112.066231 
	C41.118084,112.066231 41.022751,112.040794 41.352123,112.011421 
	C42.404255,111.610489 43.127014,111.238930 43.849777,110.867378 
z"/>
<path fill="#17BFE7" opacity="1.000000" stroke="none" 
	d="
M16.034046,89.180054 
	C15.583462,89.108162 15.132877,89.036270 14.102506,88.734039 
	C11.973934,86.355896 9.492985,84.371590 9.081290,82.024353 
	C8.350433,77.857445 8.355177,73.380219 9.078894,69.211037 
	C9.479474,66.903374 11.660184,63.504086 13.560722,63.108982 
	C20.416702,61.683701 27.576778,60.487278 34.065048,64.869293 
	C34.065048,64.869293 34.021431,64.964088 34.133339,65.371490 
	C34.542122,70.701187 35.026333,75.621223 35.085850,80.546387 
	C35.152039,86.023972 32.373730,88.761978 26.941774,88.976631 
	C23.308857,89.120178 19.670158,89.117371 16.034046,89.180054 
z"/>
<path fill="#1ABFE6" opacity="1.000000" stroke="none" 
	d="
M171.352768,102.480919 
	C170.847000,96.736977 170.577515,91.336342 170.338562,85.934349 
	C170.325211,85.632347 170.520050,85.291992 170.691711,85.015213 
	C175.229004,77.699409 182.400253,81.632141 188.401672,81.157173 
	C192.589615,80.825722 194.147842,84.464531 194.601120,88.217056 
	C194.778931,89.689171 194.718765,91.200470 194.655930,92.689232 
	C194.478790,96.885574 195.978424,102.632584 191.041885,104.111076 
	C184.785629,105.984818 177.804260,107.098869 171.352768,102.480919 
z"/>
<path fill="#ADAEB2" opacity="1.000000" stroke="none" 
	d="
M125.674980,26.142632 
	C126.931885,26.109819 127.765938,26.158920 128.591644,26.096926 
	C143.701370,24.962528 142.138840,31.279228 141.677963,43.280628 
	C141.665863,43.595413 141.466858,43.904877 141.346176,44.213356 
	C139.582336,48.721596 133.987411,50.368759 125.403572,48.758900 
	C121.215019,47.973351 119.168243,45.259975 119.121872,41.027473 
	C119.098221,38.869247 119.146538,36.710026 119.108047,34.552219 
	C119.030220,30.189199 120.789925,27.199034 125.674980,26.142632 
z"/>
<path fill="#0EAEE9" opacity="1.000000" stroke="none" 
	d="
M40.894356,10.033655 
	C48.247417,10.242869 49.118095,11.110910 49.148842,17.862442 
	C49.157181,19.693026 49.648636,21.745804 48.985001,23.297392 
	C48.182743,25.173082 46.630409,27.646315 44.971115,28.039473 
	C41.840935,28.781145 38.298370,28.693451 35.134457,28.002071 
	C33.522579,27.649847 31.527943,25.412064 31.177490,23.721605 
	C30.550129,20.695435 30.573532,17.350266 31.157526,14.297725 
	C32.179821,8.954197 36.771244,10.238116 40.894356,10.033655 
z"/>
<path fill="#2379BD" opacity="1.000000" stroke="none" 
	d="
M46.800442,41.322403 
	C47.961384,41.263172 49.122326,41.203945 50.682198,41.553207 
	C51.667850,45.119045 54.489109,44.909584 56.574162,46.128078 
	C59.946678,48.098965 57.278198,60.225754 53.521648,61.847607 
	C50.370567,63.208054 42.609093,61.638374 40.883842,59.291748 
	C38.931034,56.635609 39.631126,46.602921 42.110962,44.226807 
	C43.085442,45.431362 44.047619,46.620716 45.009800,47.810074 
	C45.472748,47.753540 45.935692,47.697006 46.398636,47.640469 
	C46.532574,45.534447 46.666508,43.428425 46.800442,41.322403 
z"/>
<path fill="#2D7BB8" opacity="1.000000" stroke="none" 
	d="
M92.870773,123.447769 
	C99.530251,127.311432 106.395195,131.330917 105.068840,141.166458 
	C104.628639,144.430817 104.996513,147.804428 104.998817,151.128098 
	C105.005173,160.317764 109.678207,165.099213 118.836067,164.960617 
	C123.612633,164.888336 128.510345,164.971268 133.123856,163.948685 
	C138.972870,162.652252 141.338287,159.382629 140.899826,153.518921 
	C140.326233,145.847839 139.039917,138.230026 138.101715,130.208923 
	C138.533600,130.122711 138.993118,130.357559 139.303955,130.719940 
	C143.698166,135.842819 144.691605,157.242386 140.095093,162.050430 
	C137.818527,164.431763 134.006378,166.060318 130.672241,166.548233 
	C125.632339,167.285767 120.400177,166.834396 115.254829,166.696869 
	C107.699791,166.494919 103.389435,162.060242 103.137932,154.433701 
	C103.088692,152.940399 102.908363,151.406555 103.158867,149.955353 
	C105.022240,139.160431 102.128410,130.261169 92.870773,123.447769 
z"/>
<path fill="#AFB0B3" opacity="1.000000" stroke="none" 
	d="
M2.548811,24.911787 
	C5.854663,21.938692 13.662243,20.763731 14.903535,23.373293 
	C16.390779,26.499920 17.041109,30.827513 16.134756,34.104160 
	C14.728517,39.188000 9.605107,36.857513 6.178131,36.688187 
	C4.727190,36.616493 2.872474,33.671844 2.217437,31.696093 
	C1.583947,29.785330 2.256530,27.441555 2.548811,24.911787 
z"/>
<path fill="#3C7EB2" opacity="1.000000" stroke="none" 
	d="
M46.489220,41.231411 
	C46.666508,43.428425 46.532574,45.534447 46.398636,47.640469 
	C45.935692,47.697006 45.472748,47.753540 45.009800,47.810074 
	C44.047619,46.620716 43.085442,45.431362 42.110962,44.226807 
	C39.631126,46.602921 38.931034,56.635609 40.883842,59.291748 
	C42.609093,61.638374 50.370567,63.208054 53.521648,61.847607 
	C57.278198,60.225754 59.946678,48.098965 56.574162,46.128078 
	C54.489109,44.909584 51.667850,45.119045 51.024529,41.627586 
	C52.035789,41.226345 53.103649,41.159222 54.805897,41.308811 
	C56.906647,43.152660 58.373009,44.779804 59.839371,46.406944 
	C59.798409,49.944649 59.757442,53.482357 59.530807,57.711315 
	C58.119522,59.889606 56.893913,61.376644 55.668304,62.863686 
	C55.668304,62.863686 55.297764,62.854816 54.747177,62.930428 
	C53.140083,63.067890 52.083584,63.129738 51.027081,63.191582 
	C50.263763,63.152145 49.500443,63.112709 48.033855,63.063744 
	C46.892914,63.097336 46.455242,63.140457 46.017570,63.183582 
	C44.747223,63.073158 43.476879,62.962734 41.650139,62.616852 
	C40.737217,62.235786 40.380692,62.090172 40.024166,61.944553 
	C40.024166,61.944553 40.002804,61.999985 39.943245,61.743805 
	C39.589973,61.323746 39.296261,61.159870 39.002544,60.995991 
	C39.002544,60.995991 39.000000,61.000000 38.940269,60.728828 
	C38.622047,60.208305 38.363552,59.958961 38.105057,59.709618 
	C38.105057,59.709618 38.086838,59.316154 38.012882,58.684822 
	C37.927834,53.709774 37.916740,49.366058 37.905647,45.022346 
	C37.905647,45.022346 38.120182,44.727997 38.368568,44.391556 
	C38.767269,43.712437 38.917587,43.369755 39.067909,43.027073 
	C39.067905,43.027073 39.003403,43.007931 39.263138,42.948341 
	C39.711449,42.607571 39.900028,42.326393 40.088608,42.045219 
	C40.088608,42.045219 40.016567,42.019520 40.330109,42.012550 
	C41.161942,41.698269 41.680229,41.390965 42.198517,41.083660 
	C43.525009,41.102581 44.851501,41.121502 46.489220,41.231411 
z"/>
<path fill="#33BAD7" opacity="1.000000" stroke="none" 
	d="
M127.041885,187.192947 
	C119.206383,188.054337 118.541946,186.790497 120.695786,174.273804 
	C123.565903,175.086136 126.525642,175.527008 129.061630,176.807266 
	C130.349609,177.457489 128.711487,186.074081 127.041885,187.192947 
z"/>
<path fill="#EAFBFD" opacity="1.000000" stroke="none" 
	d="
M34.044601,64.485870 
	C27.576778,60.487278 20.416702,61.683701 13.560722,63.108982 
	C11.660184,63.504086 9.479474,66.903374 9.078894,69.211037 
	C8.355177,73.380219 8.350433,77.857445 9.081290,82.024353 
	C9.492985,84.371590 11.973934,86.355896 13.759348,88.757294 
	C10.274255,91.332565 8.506021,87.772095 8.355169,85.901970 
	C7.802246,79.047302 7.622054,72.063110 8.428987,65.261444 
	C8.658145,63.329857 12.596468,60.666241 15.048061,60.413025 
	C20.242256,59.876537 25.596441,60.533440 30.840204,61.109154 
	C31.997118,61.236172 32.967743,63.059971 34.044601,64.485870 
z"/>
<path fill="#2D7BB8" opacity="1.000000" stroke="none" 
	d="
M171.477570,63.021431 
	C176.082474,62.628841 181.145416,62.174679 186.217087,62.032974 
	C192.953156,61.844780 197.965286,56.907623 197.997375,50.119198 
	C198.039062,41.295212 198.066254,32.471153 198.192780,23.154560 
	C198.285858,22.661997 198.710648,22.758362 198.900421,22.865200 
	C199.156570,23.536924 199.222931,24.101810 199.469818,24.889288 
	C199.691086,33.751163 199.824097,42.391716 199.705963,51.028828 
	C199.677399,53.117302 198.819199,55.194427 198.265289,57.651535 
	C195.377777,61.806824 191.654343,63.382580 186.927643,63.174126 
	C181.940186,62.954166 176.936249,63.108261 171.477570,63.021431 
z"/>
<path fill="#2DB7D8" opacity="1.000000" stroke="none" 
	d="
M58.006340,187.235626 
	C56.808155,183.398102 56.058643,179.599976 55.139767,174.943573 
	C58.294300,174.943573 60.387226,174.476242 62.079678,175.098358 
	C63.328381,175.557373 64.525772,177.313553 64.896149,178.716187 
	C65.376701,180.536026 65.013489,182.578705 65.013489,185.956131 
	C63.515022,186.257462 60.985016,186.766235 58.006340,187.235626 
z"/>
<path fill="#45C2DD" opacity="1.000000" stroke="none" 
	d="
M84.939995,183.812469 
	C85.987297,181.877548 86.499802,179.799042 87.265724,177.818527 
	C87.667068,176.780762 88.512947,175.914932 89.158073,174.971451 
	C89.761017,175.952957 90.772041,176.892120 90.879181,177.925049 
	C91.081879,179.879440 91.403328,182.273605 90.496765,183.771835 
	C89.459000,185.486862 87.145767,187.407959 85.373817,187.420502 
	C83.667572,187.432602 81.227005,185.460800 80.420143,183.744339 
	C79.512703,181.813950 79.934593,179.185074 80.080345,176.879150 
	C80.122780,176.207855 81.199745,175.601974 81.802498,174.966110 
	C82.361427,175.640106 83.240097,176.239258 83.418739,177.002289 
	C83.933868,179.202637 84.166702,181.469070 84.939995,183.812469 
z"/>
<path fill="#EAFBFD" opacity="1.000000" stroke="none" 
	d="
M106.914581,20.762299 
	C103.230553,17.211290 98.557564,15.946371 93.430199,16.274229 
	C86.560440,16.713503 79.705299,17.381594 72.453857,18.025284 
	C74.588829,16.733688 77.003242,14.523611 79.661438,14.175587 
	C85.507637,13.410173 91.548431,12.949005 97.370834,13.602257 
	C101.212830,14.033317 105.891510,15.146359 106.914581,20.762299 
z"/>
<path fill="#2D7BB8" opacity="1.000000" stroke="none" 
	d="
M55.079166,76.090866 
	C52.687469,81.716194 51.264381,87.487228 51.969395,93.687111 
	C52.444336,97.863739 52.644615,102.071594 52.999195,106.673370 
	C52.287781,106.746277 51.035496,106.874611 49.383545,106.996979 
	C48.983879,106.990997 49.036613,106.587143 49.399353,106.109161 
	C49.780750,97.762222 49.799416,89.893265 49.818077,82.024315 
	C50.065365,81.466721 50.312653,80.909134 50.810234,79.847099 
	C51.453709,78.624580 51.846893,77.906509 52.240082,77.188438 
	C52.240082,77.188438 52.099159,77.090088 52.432655,77.079086 
	C53.440720,76.649864 54.115288,76.231636 54.863209,75.881699 
	C54.936562,75.949997 55.079166,76.090866 55.079166,76.090866 
z"/>
<path fill="#2D7BB8" opacity="1.000000" stroke="none" 
	d="
M87.927681,82.069183 
	C86.405457,81.136497 83.876968,80.465271 83.553688,79.221069 
	C82.659752,75.780563 80.220932,76.059029 77.881294,76.033623 
	C70.587936,75.954430 63.293015,76.020782 55.538933,76.060783 
	C55.079166,76.090866 54.936562,75.949997 54.912613,75.679321 
	C54.888668,75.408646 55.012993,75.010880 55.012993,75.010880 
	C55.012993,75.010880 55.000572,74.999695 55.310371,74.977089 
	C55.931099,74.702408 56.242027,74.450333 56.552948,74.198257 
	C56.552948,74.198250 56.822136,74.235809 57.381367,74.132324 
	C65.619301,73.962769 73.298004,73.896706 80.976707,73.830635 
	C80.976707,73.830635 81.380135,74.050964 81.735916,74.258278 
	C82.341034,74.708893 82.636177,74.794746 82.977104,74.723152 
	C82.977104,74.723152 83.368179,74.987823 83.722275,75.258858 
	C84.387634,75.674858 84.698914,75.819832 85.010185,75.964798 
	C85.208374,76.238174 85.406555,76.511551 85.907333,77.120560 
	C86.381943,77.761055 86.637245,77.957870 86.975845,78.046646 
	C86.975845,78.046646 87.005142,78.006355 87.025490,78.281250 
	C87.321602,78.768127 87.597366,78.980118 87.873131,79.192101 
	C87.873131,79.192101 87.873978,79.085373 87.876190,79.450241 
	C87.999702,80.468010 88.121010,81.120918 88.163712,81.847725 
	C88.085106,81.921623 87.927681,82.069183 87.927681,82.069183 
z"/>
<path fill="#EAFBFD" opacity="1.000000" stroke="none" 
	d="
M105.072800,54.879463 
	C105.891602,50.728279 107.941566,46.623566 108.106697,42.444378 
	C108.375793,35.633682 107.414124,28.774359 106.902206,21.525425 
	C107.876038,22.368303 109.772873,23.588793 109.822060,24.879686 
	C110.105713,32.323612 110.338478,39.815277 109.741623,47.222538 
	C109.527725,49.877022 106.954170,52.341370 105.072800,54.879463 
z"/>
<path fill="#EAFBFD" opacity="1.000000" stroke="none" 
	d="
M16.351952,89.438339 
	C19.670158,89.117371 23.308857,89.120178 26.941774,88.976631 
	C32.373730,88.761978 35.152039,86.023972 35.085850,80.546387 
	C35.026333,75.621223 34.542122,70.701187 34.184753,65.362648 
	C36.467896,67.587631 37.713036,70.294609 36.726780,74.134918 
	C35.909645,77.316696 36.440281,80.820900 36.091637,84.152733 
	C35.660492,88.272980 33.198944,90.193810 29.023958,90.019753 
	C24.908587,89.848190 20.788101,89.799316 16.351952,89.438339 
z"/>
<path fill="#3AB8D4" opacity="1.000000" stroke="none" 
	d="
M73.155128,183.388000 
	C74.367805,184.482025 75.534599,185.153992 76.701393,185.825958 
	C76.706001,186.134476 76.710617,186.443008 76.715233,186.751526 
	C74.300240,186.751526 71.885246,186.751526 69.003555,186.751526 
	C69.003555,183.553131 68.877464,180.441406 69.090492,177.353088 
	C69.145073,176.561829 70.270889,175.844452 70.904549,175.093140 
	C71.622879,175.906174 72.783539,176.632034 72.964615,177.550934 
	C73.308807,179.297607 73.092674,181.154709 73.155128,183.388000 
z"/>
<path fill="#39BADC" opacity="1.000000" stroke="none" 
	d="
M107.403870,178.002106 
	C108.427650,176.954926 109.451439,175.907776 110.475227,174.860626 
	C111.522217,175.903122 112.973839,176.765671 113.533722,178.024765 
	C114.780144,180.827774 115.580574,183.829086 116.751472,187.310699 
	C113.341286,186.689941 110.636444,186.197571 107.747093,185.446045 
	C110.707062,183.029907 111.374535,179.868271 112.043648,175.397797 
	C109.774887,176.671249 108.589378,177.336670 107.403870,178.002106 
z"/>
<path fill="#EAFBFD" opacity="1.000000" stroke="none" 
	d="
M67.387932,24.101059 
	C67.751694,31.117552 67.662025,38.251396 67.781319,45.381741 
	C67.813820,47.323997 68.475464,49.255726 68.891731,51.611591 
	C67.965759,50.688572 66.202972,49.371727 66.158920,47.999695 
	C65.916664,40.454617 66.082161,32.895897 66.166115,25.342510 
	C66.170319,24.964279 66.718346,24.592094 67.387932,24.101059 
z"/>
<path fill="#2D7BB8" opacity="1.000000" stroke="none" 
	d="
M152.434311,98.283012 
	C154.422714,92.860710 156.557007,87.144859 159.031631,81.580360 
	C160.066132,79.254150 161.823456,77.249390 163.591095,75.034096 
	C160.192581,82.663338 156.455078,90.356949 152.434311,98.283012 
z"/>
<path fill="#EAFBFD" opacity="1.000000" stroke="none" 
	d="
M68.966484,52.450035 
	C72.544540,56.079029 76.945602,57.589085 82.339989,57.114094 
	C88.924950,56.534275 95.550896,56.419876 102.573578,56.045181 
	C101.873978,56.659416 100.771370,57.893135 99.644012,57.916180 
	C91.500290,58.082642 83.351555,57.998035 75.204422,58.006195 
	C71.675606,58.009727 69.713326,56.160328 68.966484,52.450035 
z"/>
<path fill="#EAF7FC" opacity="1.000000" stroke="none" 
	d="
M80.719025,73.553673 
	C73.298004,73.896706 65.619301,73.962769 57.471825,74.030907 
	C58.449871,73.360535 59.913818,72.080078 61.340553,72.120277 
	C67.719948,72.300026 74.088730,72.856354 80.719025,73.553673 
z"/>
<path fill="#37B8D6" opacity="1.000000" stroke="none" 
	d="
M95.079453,185.655151 
	C95.159782,181.770660 95.322212,178.337204 95.484642,174.903763 
	C96.018753,174.934799 96.552864,174.965820 97.086975,174.996857 
	C98.174042,178.836700 99.261116,182.676544 100.528954,187.154938 
	C99.392052,186.932816 97.276794,186.519516 95.079453,185.655151 
z"/>
<path fill="#EAFBFD" opacity="1.000000" stroke="none" 
	d="
M108.244125,94.298698 
	C115.006523,93.982277 122.002548,93.973396 129.460632,93.918442 
	C129.528580,94.524139 129.109573,95.757164 128.744064,95.741501 
	C121.984825,95.451950 115.231956,95.013382 108.244125,94.298698 
z"/>
<path fill="#2D7BB8" opacity="1.000000" stroke="none" 
	d="
M139.252808,124.762047 
	C142.180695,118.089355 145.370316,111.198013 148.915665,104.227371 
	C146.019104,110.946510 142.766815,117.744949 139.252808,124.762047 
z"/>
<path fill="#EAF7FC" opacity="1.000000" stroke="none" 
	d="
M49.545586,82.284119 
	C49.799416,89.893265 49.780750,97.762222 49.420792,105.906654 
	C49.144032,98.302734 49.208561,90.423332 49.545586,82.284119 
z"/>
<path fill="#2D7BB8" opacity="1.000000" stroke="none" 
	d="
M51.451340,112.036652 
	C51.238956,108.635384 54.330208,108.051193 55.903763,109.330849 
	C61.222816,113.656410 67.215668,111.409325 72.896011,111.981506 
	C74.681610,112.161362 76.484512,112.169380 78.608841,112.494644 
	C70.811592,112.203354 62.686699,111.643097 54.555981,111.186493 
	C53.657238,111.136017 52.725227,111.678001 51.451340,112.036652 
z"/>
<path fill="#EAF7FC" opacity="1.000000" stroke="none" 
	d="
M36.390148,141.731247 
	C36.083855,136.884521 35.898216,131.779114 36.144520,126.694626 
	C36.219093,125.155174 37.489227,123.673637 38.578209,122.044037 
	C38.627537,126.704651 38.395283,131.494751 37.949001,136.264816 
	C37.784073,138.027649 37.115486,139.743393 36.390148,141.731247 
z"/>
<path fill="#21B9E2" opacity="1.000000" stroke="none" 
	d="
M107.221741,178.351868 
	C108.589378,177.336670 109.774887,176.671249 112.043648,175.397797 
	C111.374535,179.868271 110.707062,183.029907 107.340927,185.419449 
	C106.485832,185.123718 105.243889,184.470520 105.322334,184.088379 
	C105.699150,182.252640 106.432716,180.490143 107.221741,178.351868 
z"/>
<path fill="#2D7BB8" opacity="1.000000" stroke="none" 
	d="
M87.000305,107.000305 
	C87.324913,98.997284 87.649529,90.994270 87.950912,82.530212 
	C87.927681,82.069183 88.085106,81.921623 88.342392,81.909470 
	C88.599670,81.897308 88.954926,82.027679 88.954926,82.027679 
	C88.980286,82.779839 89.005646,83.531990 89.024956,85.115234 
	C89.069374,91.288452 89.119850,96.630577 89.170334,101.972710 
	C89.131485,103.317741 89.092636,104.662773 89.149147,106.401779 
	C88.746773,106.857635 88.249039,106.919525 87.375656,106.990707 
	C87.000000,107.000000 87.000305,107.000305 87.000305,107.000305 
z"/>
<path fill="#EAF7FC" opacity="1.000000" stroke="none" 
	d="
M152.587341,25.339128 
	C152.890350,34.365490 152.926529,43.706154 152.909119,53.510567 
	C152.566895,49.286575 152.121155,44.601768 152.033463,39.910263 
	C151.944702,35.161434 152.210175,30.405983 152.587341,25.339128 
z"/>
<path fill="#EAF7FC" opacity="1.000000" stroke="none" 
	d="
M13.007013,146.487122 
	C19.014965,146.082748 25.033194,146.047867 31.516087,146.058441 
	C29.750978,146.407898 27.518559,146.693848 25.292080,147.020309 
	C22.232302,147.468979 19.188162,148.108627 16.113405,148.322281 
	C15.120114,148.391312 14.051466,147.375931 13.007013,146.487122 
z"/>
<path fill="#EAFBFD" opacity="1.000000" stroke="none" 
	d="
M37.621361,45.264767 
	C37.916740,49.366058 37.927834,53.709774 37.912388,58.515450 
	C35.977840,54.557617 34.804596,50.107887 37.621361,45.264767 
z"/>
<path fill="#EAFBFD" opacity="1.000000" stroke="none" 
	d="
M132.880707,64.987900 
	C130.787979,64.498932 128.735474,63.593483 126.332596,62.520069 
	C129.229843,60.169506 131.994629,59.496391 132.880707,64.987900 
z"/>
<path fill="#EAF7FC" opacity="1.000000" stroke="none" 
	d="
M89.427238,101.652954 
	C89.119850,96.630577 89.069374,91.288452 89.093796,85.486023 
	C89.340523,90.461555 89.512337,95.897377 89.427238,101.652954 
z"/>
<path fill="#EAF7FC" opacity="1.000000" stroke="none" 
	d="
M154.985077,59.415382 
	C157.698196,60.921680 160.694763,62.713963 157.297150,66.819046 
	C156.348511,64.623955 155.669464,62.210201 154.985077,59.415382 
z"/>
<path fill="#EAF7FC" opacity="1.000000" stroke="none" 
	d="
M146.657639,87.051338 
	C145.871567,89.555740 144.717651,92.096634 143.297150,94.854385 
	C144.116989,92.410110 145.203384,89.748970 146.657639,87.051338 
z"/>
<path fill="#EAF7FC" opacity="1.000000" stroke="none" 
	d="
M132.399811,115.993004 
	C131.698669,118.190926 130.644043,120.402039 129.325958,122.817947 
	C130.057083,120.683891 131.051712,118.345039 132.399811,115.993004 
z"/>
<path fill="#2D7BB8" opacity="1.000000" stroke="none" 
	d="
M198.297974,22.430065 
	C194.637711,23.622868 193.771729,21.120562 193.428650,18.065853 
	C194.142914,17.891069 194.540237,18.020481 194.937546,18.149891 
	C195.480240,18.677071 196.022919,19.204250 196.878464,20.104340 
	C197.453278,20.674314 197.715225,20.871376 197.977203,21.068436 
	C198.070328,21.429838 198.163452,21.791239 198.297974,22.430065 
z"/>
<path fill="#EAF7FC" opacity="1.000000" stroke="none" 
	d="
M96.044846,112.490417 
	C96.064613,112.850357 95.678299,112.879700 95.371017,112.634003 
	C94.760933,112.208282 94.458145,112.028267 94.084854,111.869438 
	C94.014366,111.890633 94.161545,111.888367 94.075516,111.619843 
	C93.655525,111.237251 93.321571,111.123184 92.752426,110.847618 
	C92.008667,110.128464 91.500092,109.570816 91.063782,108.754951 
	C91.101830,108.321289 91.067604,108.145844 91.057861,107.937012 
	C91.082344,107.903633 91.137520,107.841904 91.137520,107.841904 
	C92.766708,109.271431 94.395897,110.700958 96.044846,112.490417 
z"/>
<path fill="#EAFBFD" opacity="1.000000" stroke="none" 
	d="
M59.890324,45.990883 
	C58.373009,44.779804 56.906647,43.152660 55.208511,41.288414 
	C59.696087,39.195866 59.743965,42.467342 59.890324,45.990883 
z"/>
<path fill="#EAFBFD" opacity="1.000000" stroke="none" 
	d="
M102.576462,70.349915 
	C102.873795,74.046516 102.909111,78.051392 102.867905,82.511230 
	C102.632408,78.863518 102.473427,74.760849 102.576462,70.349915 
z"/>
<path fill="#EAFBFD" opacity="1.000000" stroke="none" 
	d="
M56.059784,62.906574 
	C56.893913,61.376644 58.119522,59.889606 59.554825,58.159744 
	C60.732418,61.239918 60.307335,61.885578 56.059784,62.906574 
z"/>
<path fill="#2D7BB8" opacity="1.000000" stroke="none" 
	d="
M167.418488,68.284943 
	C167.514282,66.538437 165.456757,63.563049 169.817871,63.076145 
	C169.391861,64.748459 168.541687,66.402107 167.418488,68.284943 
z"/>
<path fill="#EAF7FC" opacity="1.000000" stroke="none" 
	d="
M15.896286,118.037064 
	C14.302781,118.851540 12.576634,119.381584 10.482237,120.030067 
	C11.997206,119.349884 13.880425,118.551262 15.896286,118.037064 
z"/>
<path fill="#2D7BB8" opacity="1.000000" stroke="none" 
	d="
M86.879219,117.495010 
	C87.269318,117.131348 87.762520,117.075432 88.876938,117.011520 
	C89.498154,117.003517 89.996597,117.005821 89.996597,117.005821 
	C90.291336,118.172394 90.586075,119.338966 90.845886,120.871780 
	C89.534760,120.092926 88.258545,118.947838 86.879219,117.495010 
z"/>
<path fill="#2D7BB8" opacity="1.000000" stroke="none" 
	d="
M138.134338,129.543518 
	C135.094711,128.241058 135.192108,126.632080 138.636047,125.034531 
	C138.678146,126.390099 138.371429,127.785912 138.134338,129.543518 
z"/>
<path fill="#EAF7FC" opacity="1.000000" stroke="none" 
	d="
M194.916153,17.801296 
	C194.540237,18.020481 194.142914,17.891069 193.444458,17.674700 
	C192.237244,17.220621 191.331161,16.853500 190.198608,16.292992 
	C191.613007,16.550636 193.253891,17.001669 194.916153,17.801296 
z"/>
<path fill="#EAF7FC" opacity="1.000000" stroke="none" 
	d="
M43.857853,110.880547 
	C43.127014,111.238930 42.404255,111.610489 41.382515,112.050278 
	C42.109856,111.066490 43.136177,110.014465 44.586540,108.990715 
	C45.010586,109.018990 45.136395,109.154694 45.014694,109.400574 
	C44.551987,110.061806 44.210976,110.477142 43.869961,110.892487 
	C43.869961,110.892487 43.865929,110.893715 43.857853,110.880547 
z"/>
<path fill="#2D7BB8" opacity="1.000000" stroke="none" 
	d="
M82.248154,113.035568 
	C83.014198,113.364037 83.956017,113.952797 84.868462,114.871277 
	C84.034035,114.565948 83.228981,113.930908 82.248154,113.035568 
z"/>
<path fill="#EAF7FC" opacity="1.000000" stroke="none" 
	d="
M112.793945,126.765335 
	C111.953819,127.063622 110.897003,127.087654 109.509712,126.774918 
	C109.179245,126.438156 109.136589,125.957954 109.136589,125.957954 
	C110.283478,126.135658 111.430367,126.313362 112.793945,126.765335 
z"/>
<path fill="#BFC0C2" opacity="1.000000" stroke="none" 
	d="
M105.939552,195.334320 
	C105.995949,196.464966 105.995949,197.264984 105.995949,198.064987 
	C105.615013,197.958435 105.234077,197.851898 104.853134,197.745346 
	C105.196472,196.831451 105.539810,195.917572 105.939552,195.334320 
z"/>
<path fill="#EAF7FC" opacity="1.000000" stroke="none" 
	d="
M33.834141,117.130356 
	C33.003407,117.704910 31.813272,118.221458 30.296288,118.594345 
	C31.137871,117.991249 32.306305,117.531799 33.834141,117.130356 
z"/>
<path fill="#CBCCCE" opacity="1.000000" stroke="none" 
	d="
M107.193710,196.814941 
	C107.538406,196.134201 107.941925,195.768021 108.345444,195.401825 
	C108.487244,195.975067 108.629051,196.548309 108.770859,197.121552 
	C108.264755,197.124207 107.758644,197.126862 107.193710,196.814941 
z"/>
<path fill="#EAF7FC" opacity="1.000000" stroke="none" 
	d="
M89.218300,81.820419 
	C88.954926,82.027679 88.599670,81.897308 88.420990,81.835571 
	C88.121010,81.120918 87.999702,80.468010 87.835892,79.485229 
	C88.356155,79.974617 88.918915,80.793892 89.218300,81.820419 
z"/>
<path fill="#EAF7FC" opacity="1.000000" stroke="none" 
	d="
M99.145676,115.833122 
	C100.100075,116.603760 101.054482,117.374405 101.798279,118.494522 
	C101.587677,118.844009 101.140900,118.804367 101.140900,118.804367 
	C101.140900,118.804367 101.085373,118.885391 101.050377,118.632225 
	C100.717865,118.181664 100.420349,117.984268 100.122833,117.786880 
	C100.122833,117.786873 100.101822,117.899818 100.068153,117.627205 
	C99.725136,117.171669 99.415779,116.988747 99.106430,116.805824 
	C99.106430,116.805824 99.108521,116.925125 99.133728,116.673447 
	C99.158943,116.421761 99.030350,115.971748 99.058609,115.936615 
	C99.086861,115.901474 99.145676,115.833122 99.145676,115.833122 
z"/>
<path fill="#2D7BB8" opacity="1.000000" stroke="none" 
	d="
M101.103256,119.189041 
	C101.140900,118.804367 101.587677,118.844009 101.811920,118.848221 
	C102.036163,118.852432 102.041924,118.961220 102.165695,119.170563 
	C102.462074,119.659042 102.711990,119.811287 103.039223,119.836617 
	C103.248123,120.136665 103.457016,120.436722 103.928894,121.049423 
	C104.191872,121.362076 104.231842,121.762978 104.167984,121.831070 
	C104.104118,121.899162 103.982109,122.040497 103.982109,122.040497 
	C103.009941,121.218239 102.037773,120.395981 101.103256,119.189041 
z"/>
<path fill="#EAF7FC" opacity="1.000000" stroke="none" 
	d="
M154.879135,20.134483 
	C154.673370,21.282238 154.085739,22.445498 153.261536,23.831919 
	C153.515717,22.753382 154.006485,21.451685 154.879135,20.134483 
z"/>
<path fill="#EAF7FC" opacity="1.000000" stroke="none" 
	d="
M162.862244,15.819115 
	C162.228485,16.343473 161.439819,16.626097 160.331757,16.883932 
	C160.910690,16.431890 161.809006,16.004635 162.862244,15.819115 
z"/>
<path fill="#EAF7FC" opacity="1.000000" stroke="none" 
	d="
M36.786407,115.051514 
	C36.375961,115.746758 35.586491,116.422104 34.487000,117.162376 
	C34.920456,116.495407 35.663921,115.763504 36.786407,115.051514 
z"/>
<path fill="#EAF7FC" opacity="1.000000" stroke="none" 
	d="
M158.807007,17.059605 
	C158.368042,17.738176 157.544205,18.392269 156.420135,19.154005 
	C156.887314,18.519474 157.654724,17.777302 158.807007,17.059605 
z"/>
<path fill="#EAF7FC" opacity="1.000000" stroke="none" 
	d="
M44.946510,108.952240 
	C45.693745,108.255531 46.505058,107.625565 47.541847,107.247787 
	C47.436447,107.927315 47.105572,108.354645 46.774696,108.781982 
	C46.774696,108.781982 46.963211,108.783844 46.592556,108.804443 
	C45.860065,108.934921 45.498230,109.044807 45.136395,109.154694 
	C45.136395,109.154694 45.010586,109.018990 44.946510,108.952240 
z"/>
<path fill="#EAFBFD" opacity="1.000000" stroke="none" 
	d="
M135.323746,74.749580 
	C134.989502,73.602486 134.911285,72.214516 134.901276,70.413879 
	C135.172913,71.503708 135.376343,73.006210 135.323746,74.749580 
z"/>
<path fill="#EAF7FC" opacity="1.000000" stroke="none" 
	d="
M54.644798,75.004791 
	C55.012993,75.010880 54.888668,75.408646 54.839264,75.611023 
	C54.115288,76.231636 53.440720,76.649864 52.479149,77.151352 
	C52.886971,76.489304 53.581791,75.744003 54.644798,75.004791 
z"/>
<path fill="#EAF7FC" opacity="1.000000" stroke="none" 
	d="
M51.839172,77.191315 
	C51.846893,77.906509 51.453709,78.624580 50.825661,79.541100 
	C50.873291,78.891090 51.155781,78.042641 51.839172,77.191315 
z"/>
<path fill="#EAF7FC" opacity="1.000000" stroke="none" 
	d="
M135.761398,109.056152 
	C135.887817,109.588783 135.713745,110.138695 135.296066,110.854027 
	C135.188614,110.370773 135.324753,109.722099 135.761398,109.056152 
z"/>
<path fill="#EAFBFD" opacity="1.000000" stroke="none" 
	d="
M51.260193,63.415115 
	C52.083584,63.129738 53.140083,63.067890 54.593357,63.033798 
	C53.824520,63.253914 52.658916,63.446278 51.260193,63.415115 
z"/>
<path fill="#2D7BB8" opacity="1.000000" stroke="none" 
	d="
M84.886368,115.448181 
	C85.484001,115.610085 86.170052,116.062851 86.838745,116.871887 
	C86.205849,116.731789 85.590324,116.235420 84.886368,115.448181 
z"/>
<path fill="#2D7BB8" opacity="1.000000" stroke="none" 
	d="
M90.853302,121.476715 
	C91.457886,121.628319 92.155846,122.070992 92.838638,122.873032 
	C92.197876,122.744202 91.572273,122.255997 90.853302,121.476715 
z"/>
<path fill="#EAF7FC" opacity="1.000000" stroke="none" 
	d="
M151.749451,77.049652 
	C151.868637,77.576347 151.689438,78.122932 151.271378,78.840912 
	C151.172043,78.364723 151.311554,77.717133 151.749451,77.049652 
z"/>
<path fill="#2D7BB8" opacity="1.000000" stroke="none" 
	d="
M47.117134,108.820763 
	C47.105572,108.354645 47.436447,107.927315 47.892334,107.253410 
	C48.017342,107.006836 48.504684,106.991692 48.748451,106.988297 
	C48.481335,107.609787 47.970455,108.234665 47.117134,108.820763 
z"/>
<path fill="#EAFBFD" opacity="1.000000" stroke="none" 
	d="
M135.295609,85.802582 
	C134.996765,85.239807 134.935959,84.490395 134.967346,83.374069 
	C135.217575,83.876747 135.375610,84.746353 135.295609,85.802582 
z"/>
<path fill="#EAF7FC" opacity="1.000000" stroke="none" 
	d="
M127.428238,125.979172 
	C127.043922,126.363930 126.349594,126.749870 125.328812,127.045174 
	C125.707642,126.629814 126.412933,126.305084 127.428238,125.979172 
z"/>
<path fill="#2D7BB8" opacity="1.000000" stroke="none" 
	d="
M164.197418,74.699303 
	C164.180435,74.061668 164.406906,73.216125 164.945801,72.238037 
	C164.985794,72.900787 164.713348,73.696091 164.197418,74.699303 
z"/>
<path fill="#EAF7FC" opacity="1.000000" stroke="none" 
	d="
M155.760056,69.170319 
	C155.840561,69.563019 155.665894,70.120193 155.252777,70.856720 
	C155.177826,70.468971 155.341354,69.901878 155.760056,69.170319 
z"/>
<path fill="#EAFBFD" opacity="1.000000" stroke="none" 
	d="
M110.715012,62.350525 
	C110.489906,62.623692 110.082130,62.758209 109.349640,62.867805 
	C109.527397,62.632549 110.029869,62.422211 110.715012,62.350525 
z"/>
<path fill="#EAFBFD" opacity="1.000000" stroke="none" 
	d="
M46.172024,63.375072 
	C46.455242,63.140457 46.892914,63.097336 47.655151,63.122902 
	C47.428638,63.316586 46.877560,63.441574 46.172024,63.375072 
z"/>
<path fill="#EAF7FC" opacity="1.000000" stroke="none" 
	d="
M147.789871,85.178055 
	C147.867874,85.575165 147.684952,86.127922 147.260345,86.853775 
	C147.188766,86.462479 147.358856,85.898094 147.789871,85.178055 
z"/>
<path fill="#EAFBFD" opacity="1.000000" stroke="none" 
	d="
M41.870636,41.064907 
	C41.680229,41.390965 41.161942,41.698269 40.338905,42.049767 
	C40.537022,41.744686 41.039890,41.395420 41.870636,41.064907 
z"/>
<path fill="#EAF7FC" opacity="1.000000" stroke="none" 
	d="
M152.783203,75.175644 
	C152.871735,75.576782 152.702316,76.141457 152.284424,76.877060 
	C152.199051,76.478371 152.362152,75.908775 152.783203,75.175644 
z"/>
<path fill="#EAF7FC" opacity="1.000000" stroke="none" 
	d="
M9.006889,143.344757 
	C9.371111,143.454758 9.755161,143.874603 10.195833,144.577316 
	C9.843875,144.458328 9.435297,144.056458 9.006889,143.344757 
z"/>
<path fill="#EAF7FC" opacity="1.000000" stroke="none" 
	d="
M10.247084,145.057831 
	C10.690045,144.973343 11.250546,145.198944 11.997801,145.665939 
	C11.577910,145.727524 10.971267,145.547714 10.247084,145.057831 
z"/>
<path fill="#EAF7FC" opacity="1.000000" stroke="none" 
	d="
M153.116241,55.982765 
	C153.464722,56.187630 153.778030,56.740452 154.123474,57.616470 
	C153.797424,57.403355 153.439255,56.867035 153.116241,55.982765 
z"/>
<path fill="#EAF7FC" opacity="1.000000" stroke="none" 
	d="
M186.848984,15.764118 
	C186.548218,16.048964 186.103836,16.110146 185.333130,16.077211 
	C185.572998,15.835548 186.139191,15.688002 186.848984,15.764118 
z"/>
<path fill="#2D7BB8" opacity="1.000000" stroke="none" 
	d="
M165.459518,72.036850 
	C165.361191,71.585022 165.524811,70.972778 166.012711,70.263680 
	C166.131805,70.736687 165.926636,71.306557 165.459518,72.036850 
z"/>
<path fill="#EAF7FC" opacity="1.000000" stroke="none" 
	d="
M156.781830,67.173630 
	C156.861435,67.571053 156.683792,68.126976 156.258362,68.848907 
	C156.181915,68.453995 156.353226,67.893066 156.781830,67.173630 
z"/>
<path fill="#EAFBFD" opacity="1.000000" stroke="none" 
	d="
M134.225983,89.783997 
	C134.104111,89.357399 134.262131,88.737503 134.637268,87.875198 
	C134.738220,88.285431 134.622040,88.938065 134.225983,89.783997 
z"/>
<path fill="#EAF7FC" opacity="1.000000" stroke="none" 
	d="
M140.795410,99.175102 
	C140.878983,99.578262 140.702148,100.139862 140.273849,100.866302 
	C140.193268,100.465271 140.364136,99.899406 140.795410,99.175102 
z"/>
<path fill="#2D7BB8" opacity="1.000000" stroke="none" 
	d="
M149.471008,104.039429 
	C149.372879,103.588562 149.533691,102.975693 150.021118,102.270599 
	C150.141815,102.744728 149.935898,103.311066 149.471008,104.039429 
z"/>
<path fill="#EAF7FC" opacity="1.000000" stroke="none" 
	d="
M139.772949,101.175354 
	C139.854797,101.571938 139.676987,102.131577 139.261078,102.873718 
	C139.186417,102.483612 139.349854,101.911003 139.772949,101.175354 
z"/>
<path fill="#2D7BB8" opacity="1.000000" stroke="none" 
	d="
M107.112488,124.624466 
	C106.883446,124.701485 106.576965,124.511253 106.199532,124.049500 
	C106.430733,123.971054 106.732887,124.164124 107.112488,124.624466 
z"/>
<path fill="#EAFBFD" opacity="1.000000" stroke="none" 
	d="
M69.836975,20.152578 
	C69.925919,20.356390 69.759438,20.677750 69.346954,21.127165 
	C69.261147,20.926857 69.421341,20.598492 69.836975,20.152578 
z"/>
<path fill="#2D7BB8" opacity="1.000000" stroke="none" 
	d="
M151.374893,100.343285 
	C151.242126,100.143234 151.356918,99.762192 151.709656,99.195343 
	C151.839218,99.393784 151.730835,99.778038 151.374893,100.343285 
z"/>
<path fill="#EAF7FC" opacity="1.000000" stroke="none" 
	d="
M122.911530,126.807190 
	C122.833115,127.022293 122.666885,127.072357 122.250885,127.048706 
	C122.275322,126.864044 122.549507,126.753105 122.911530,126.807190 
z"/>
<path fill="#EAF7FC" opacity="1.000000" stroke="none" 
	d="
M84.881744,75.737282 
	C84.698914,75.819832 84.387634,75.674858 83.955574,75.295166 
	C84.140953,75.210213 84.447121,75.359993 84.881744,75.737282 
z"/>
<path fill="#2D7BB8" opacity="1.000000" stroke="none" 
	d="
M108.892303,125.881866 
	C109.136589,125.957954 109.179245,126.438156 109.231369,126.673538 
	C108.954819,126.707993 108.626137,126.507057 108.219894,126.016754 
	C108.310883,125.753510 108.479446,125.779648 108.892303,125.881866 
z"/>
<path fill="#2D7BB8" opacity="1.000000" stroke="none" 
	d="
M108.149277,125.589645 
	C107.920067,125.683495 107.599510,125.514320 107.191147,125.077354 
	C107.421539,124.981918 107.739731,125.154266 108.149277,125.589645 
z"/>
<path fill="#EAF7FC" opacity="1.000000" stroke="none" 
	d="
M8.503332,141.149475 
	C8.618422,141.040817 8.827719,141.491196 8.799360,141.737854 
	C8.414212,141.845398 8.286625,141.603271 8.503332,141.149475 
z"/>
<path fill="#EAF7FC" opacity="1.000000" stroke="none" 
	d="
M197.904083,20.834404 
	C197.715225,20.871376 197.453278,20.674314 197.142334,20.229002 
	C197.416306,20.095577 197.662170,20.302118 197.904083,20.834404 
z"/>
<path fill="#2D7BB8" opacity="1.000000" stroke="none" 
	d="
M106.141342,123.599182 
	C105.907600,123.686562 105.591568,123.505898 105.198906,123.052139 
	C105.434540,122.963066 105.746796,123.147095 106.141342,123.599182 
z"/>
<path fill="#2D7BB8" opacity="1.000000" stroke="none" 
	d="
M105.203445,122.590485 
	C104.921349,122.726768 104.598946,122.603157 104.129326,122.260025 
	C103.982109,122.040497 104.104118,121.899162 104.369675,121.852661 
	C104.635239,121.806168 105.041023,121.818962 105.041023,121.818962 
	C105.081718,121.989502 105.122421,122.160049 105.203445,122.590485 
z"/>
<path fill="#EAFBFD" opacity="1.000000" stroke="none" 
	d="
M40.176174,62.204735 
	C40.380692,62.090172 40.737217,62.235786 41.267250,62.619019 
	C41.069897,62.726063 40.699039,62.595493 40.176174,62.204735 
z"/>
<path fill="#EAF7FC" opacity="1.000000" stroke="none" 
	d="
M8.753055,122.074600 
	C8.918683,122.172615 8.927955,122.342628 8.829596,122.744247 
	C8.611126,122.789803 8.478722,122.611908 8.403241,122.412468 
	C8.381976,122.356285 8.527611,122.236954 8.753055,122.074600 
z"/>
<path fill="#EAFBFD" opacity="1.000000" stroke="none" 
	d="
M39.108345,61.224579 
	C39.296261,61.159870 39.589973,61.323746 39.969303,61.729546 
	C39.774658,61.798702 39.494400,61.625938 39.108345,61.224579 
z"/>
<path fill="#EAFBFD" opacity="1.000000" stroke="none" 
	d="
M104.843323,65.177307 
	C104.948311,65.389168 104.787613,65.732574 104.378723,66.224434 
	C104.279572,66.018204 104.428604,65.663528 104.843323,65.177307 
z"/>
<path fill="#EAFBFD" opacity="1.000000" stroke="none" 
	d="
M38.813652,43.168617 
	C38.917587,43.369755 38.767269,43.712437 38.377403,44.209652 
	C38.278370,44.012844 38.418884,43.661499 38.813652,43.168617 
z"/>
<path fill="#EAFBFD" opacity="1.000000" stroke="none" 
	d="
M38.155937,59.983421 
	C38.363552,59.958961 38.622047,60.208305 38.942230,60.727638 
	C38.738224,60.750824 38.472523,60.504025 38.155937,59.983421 
z"/>
<path fill="#EAF7FC" opacity="1.000000" stroke="none" 
	d="
M56.241089,74.212532 
	C56.242027,74.450333 55.931099,74.702408 55.313980,74.983635 
	C55.314934,74.750793 55.622078,74.488800 56.241089,74.212532 
z"/>
<path fill="#EAFBFD" opacity="1.000000" stroke="none" 
	d="
M103.115005,89.005753 
	C103.316345,88.997597 103.544586,89.234467 103.772675,89.725082 
	C103.461662,89.823341 103.251450,89.580658 103.115005,89.005753 
z"/>
<path fill="#EAFBFD" opacity="1.000000" stroke="none" 
	d="
M39.843727,42.134056 
	C39.900028,42.326393 39.711449,42.607571 39.277229,42.978886 
	C39.220673,42.786980 39.409756,42.504936 39.843727,42.134056 
z"/>
<path fill="#EAF7FC" opacity="1.000000" stroke="none" 
	d="
M82.838272,74.537994 
	C82.636177,74.794746 82.341034,74.708893 81.965706,74.262543 
	C82.165932,74.041191 82.452507,74.138969 82.838272,74.537994 
z"/>
<path fill="#EAFBFD" opacity="1.000000" stroke="none" 
	d="
M71.849182,18.131012 
	C71.906029,18.330156 71.714066,18.610203 71.270958,18.971134 
	C71.213333,18.771984 71.406860,18.491951 71.849182,18.131012 
z"/>
<path fill="#EAFBFD" opacity="1.000000" stroke="none" 
	d="
M106.048767,64.175957 
	C106.089676,64.400703 105.843781,64.679085 105.322205,65.033173 
	C105.285004,64.815788 105.523483,64.522690 106.048767,64.175957 
z"/>
<path fill="#EAFBFD" opacity="1.000000" stroke="none" 
	d="
M133.424347,90.850906 
	C133.177841,90.631737 133.281433,90.356339 133.757812,90.043945 
	C133.949707,90.253952 133.830978,90.516533 133.424347,90.850906 
z"/>
<path fill="#EAF7FC" opacity="1.000000" stroke="none" 
	d="
M33.006111,145.846558 
	C32.977440,145.631592 33.217777,145.365677 33.731178,145.054962 
	C33.761200,145.271988 33.518162,145.533783 33.006111,145.846558 
z"/>
<path fill="#EAFBFD" opacity="1.000000" stroke="none" 
	d="
M107.159195,93.495239 
	C107.350754,93.285622 107.604118,93.382454 107.905334,93.803192 
	C107.722572,93.968971 107.478508,93.860512 107.159195,93.495239 
z"/>
<path fill="#EAF7FC" opacity="1.000000" stroke="none" 
	d="
M34.236691,144.913422 
	C34.089596,144.670242 34.271175,144.406708 34.785660,144.129395 
	C34.929161,144.373535 34.744762,144.632690 34.236691,144.913422 
z"/>
<path fill="#EAF7FC" opacity="1.000000" stroke="none" 
	d="
M35.270569,143.864258 
	C35.165691,143.674713 35.292759,143.337906 35.656021,142.858612 
	C35.762310,143.049744 35.632408,143.383377 35.270569,143.864258 
z"/>
<path fill="#EAFBFD" opacity="1.000000" stroke="none" 
	d="
M130.104706,93.882568 
	C129.952759,93.576172 130.159653,93.339836 130.736786,93.199448 
	C130.855606,93.491470 130.641113,93.710541 130.104706,93.882568 
z"/>
<path fill="#2D7BB8" opacity="1.000000" stroke="none" 
	d="
M150.475891,102.151817 
	C150.331787,101.948311 150.426651,101.620720 150.741562,101.148331 
	C150.879349,101.344925 150.797104,101.686333 150.475891,102.151817 
z"/>
<path fill="#EAF7FC" opacity="1.000000" stroke="none" 
	d="
M98.166916,114.950531 
	C98.458969,115.050110 98.701469,115.220284 99.020050,115.647095 
	C99.145676,115.833122 99.086861,115.901474 98.840912,115.856110 
	C98.594955,115.810738 98.134460,115.751442 98.134460,115.751442 
	C98.134460,115.751442 98.111740,115.899040 98.158768,115.652893 
	C98.205803,115.406738 98.166916,114.950531 98.166916,114.950531 
z"/>
<path fill="#EAFBFD" opacity="1.000000" stroke="none" 
	d="
M134.862518,69.069275 
	C134.660187,69.064133 134.450180,68.805794 134.246216,68.291367 
	C134.453125,68.295540 134.653992,68.555801 134.862518,69.069275 
z"/>
<path fill="#EAF7FC" opacity="1.000000" stroke="none" 
	d="
M136.554749,108.146362 
	C136.811417,108.359177 136.715759,108.636841 136.245087,108.961670 
	C136.045792,108.757698 136.156586,108.491821 136.554749,108.146362 
z"/>
<path fill="#EAF7FC" opacity="1.000000" stroke="none" 
	d="
M154.145355,58.108311 
	C154.348343,58.071575 154.608810,58.285175 154.917068,58.756527 
	C154.710846,58.795738 154.456848,58.577190 154.145355,58.108311 
z"/>
<path fill="#EAF7FC" opacity="1.000000" stroke="none" 
	d="
M40.872765,112.138504 
	C40.920784,112.347878 40.723484,112.629517 40.261337,112.950836 
	C40.206806,112.730598 40.417122,112.470688 40.872765,112.138504 
z"/>
<path fill="#EAFBFD" opacity="1.000000" stroke="none" 
	d="
M68.564926,22.155085 
	C68.821121,22.371346 68.727089,22.662058 68.253860,23.001637 
	C68.044701,22.785456 68.158043,22.511801 68.564926,22.155085 
z"/>
<path fill="#EAF7FC" opacity="1.000000" stroke="none" 
	d="
M39.781746,113.063141 
	C39.914776,113.307068 39.741760,113.547546 39.245552,113.749290 
	C39.124260,113.495514 39.308701,113.278557 39.781746,113.063141 
z"/>
<path fill="#EAF7FC" opacity="1.000000" stroke="none" 
	d="
M96.111015,113.628967 
	C96.111015,113.628967 96.124893,113.287033 96.148636,113.117538 
	C96.454559,113.036682 96.683899,113.199684 96.719688,113.588043 
	C96.578987,113.739044 96.111015,113.628967 96.111015,113.628967 
z"/>
<path fill="#2D7BB8" opacity="1.000000" stroke="none" 
	d="
M96.185799,113.926620 
	C96.111015,113.628967 96.578987,113.739044 96.816025,113.779053 
	C97.092712,113.994095 97.132355,114.169128 97.211693,114.610580 
	C96.921112,114.659424 96.590851,114.441849 96.185799,113.926620 
z"/>
<path fill="#EAF7FC" opacity="1.000000" stroke="none" 
	d="
M87.818810,78.931679 
	C87.597366,78.980118 87.321602,78.768127 87.001572,78.288094 
	C87.226372,78.237114 87.495430,78.454185 87.818810,78.931679 
z"/>
<path fill="#EAF7FC" opacity="1.000000" stroke="none" 
	d="
M47.174683,115.898666 
	C47.135956,115.703911 47.328213,115.436211 47.773773,115.135681 
	C47.905807,115.417618 47.698669,115.658585 47.174683,115.898666 
z"/>
<path fill="#EAF7FC" opacity="1.000000" stroke="none" 
	d="
M90.194130,106.946663 
	C90.490250,107.037140 90.728279,107.208359 91.022873,107.651108 
	C91.137520,107.841904 91.082344,107.903633 90.839371,107.861626 
	C90.596397,107.819618 90.136856,107.769394 90.137543,107.758392 
	C90.138237,107.747398 90.165947,107.731522 90.167282,107.535103 
	C90.168610,107.338684 90.194130,106.946663 90.194130,106.946663 
z"/>
<path fill="#2D7BB8" opacity="1.000000" stroke="none" 
	d="
M97.909897,114.888245 
	C98.166916,114.950531 98.205803,115.406738 98.231064,115.634216 
	C97.931252,115.678406 97.606171,115.495117 97.205292,115.030823 
	C97.303947,114.775208 97.478416,114.800591 97.909897,114.888245 
z"/>
<path fill="#EAF7FC" opacity="1.000000" stroke="none" 
	d="
M104.947540,121.630234 
	C105.041023,121.818962 104.635239,121.806168 104.433540,121.784576 
	C104.231842,121.762978 104.191872,121.362076 104.184601,121.160759 
	C104.456085,121.045479 104.681664,121.206169 104.947540,121.630234 
z"/>
<path fill="#EAF7FC" opacity="1.000000" stroke="none" 
	d="
M45.989342,116.837051 
	C45.953049,116.618881 46.193237,116.346161 46.704826,116.009041 
	C46.739426,116.223930 46.502628,116.503220 45.989342,116.837051 
z"/>
<path fill="#2D7BB8" opacity="1.000000" stroke="none" 
	d="
M89.948990,106.887177 
	C90.194130,106.946663 90.168610,107.338684 89.881889,107.625153 
	C89.399185,107.947708 89.203201,107.983795 89.007210,108.019875 
	C89.026588,107.807709 89.045967,107.595551 89.134796,107.070351 
	C89.370781,106.780769 89.537308,106.804230 89.948990,106.887177 
z"/>
<path fill="#EAFBFD" opacity="1.000000" stroke="none" 
	d="
M103.193405,55.929062 
	C103.046227,55.664658 103.223778,55.428867 103.744934,55.262390 
	C103.860916,55.524639 103.670784,55.733299 103.193405,55.929062 
z"/>
<path fill="#EAF7FC" opacity="1.000000" stroke="none" 
	d="
M86.901215,77.814354 
	C86.637245,77.957870 86.381943,77.761055 86.145905,77.217560 
	C86.406097,77.086159 86.654327,77.287201 86.901215,77.814354 
z"/>
<path fill="#EAFBFD" opacity="1.000000" stroke="none" 
	d="
M103.633072,67.177200 
	C103.749161,67.350327 103.656937,67.678596 103.348991,68.156677 
	C103.230431,67.981781 103.327591,67.657066 103.633072,67.177200 
z"/>
<path fill="#2D7BB8" opacity="1.000000" stroke="none" 
	d="
M166.462341,70.145905 
	C166.321732,69.944244 166.418793,69.619110 166.734268,69.149788 
	C166.868454,69.344543 166.784241,69.683479 166.462341,70.145905 
z"/>
<path fill="#EAF7FC" opacity="1.000000" stroke="none" 
	d="
M43.159050,118.889664 
	C43.121742,118.696182 43.319439,118.431969 43.769676,118.127144 
	C43.901974,118.407127 43.692585,118.651260 43.159050,118.889664 
z"/>
<path fill="#EAF7FC" opacity="1.000000" stroke="none" 
	d="
M41.973915,119.830856 
	C41.935440,119.608704 42.177032,119.332458 42.692909,118.990479 
	C42.729458,119.208748 42.491718,119.492752 41.973915,119.830856 
z"/>
<path fill="#EAF7FC" opacity="1.000000" stroke="none" 
	d="
M102.939987,119.644493 
	C102.711990,119.811287 102.462074,119.659042 102.219818,119.164368 
	C102.432266,119.045479 102.662460,119.213326 102.939987,119.644493 
z"/>
<path fill="#EAF7FC" opacity="1.000000" stroke="none" 
	d="
M9.875694,120.192276 
	C9.977967,120.411598 9.806229,120.745277 9.381784,121.218277 
	C9.286613,121.007278 9.444147,120.656952 9.875694,120.192276 
z"/>
<path fill="#EAF7FC" opacity="1.000000" stroke="none" 
	d="
M40.271561,120.970688 
	C40.147934,120.749466 40.306324,120.536598 40.765209,120.367714 
	C40.862602,120.587212 40.691891,120.776321 40.271561,120.970688 
z"/>
<path fill="#EAF7FC" opacity="1.000000" stroke="none" 
	d="
M39.153419,121.883881 
	C39.113956,121.683907 39.312496,121.412674 39.768856,121.106003 
	C39.904942,121.394974 39.693188,121.642334 39.153419,121.883881 
z"/>
<path fill="#2379BE" opacity="1.000000" stroke="none" 
	d="
M89.004814,108.419029 
	C89.203201,107.983795 89.399185,107.947708 89.880554,107.821579 
	C90.165947,107.731522 90.138237,107.747398 90.181229,108.023880 
	C90.479988,108.537956 90.735748,108.775558 90.991508,109.013161 
	C91.500092,109.570816 92.008667,110.128464 92.881416,111.072128 
	C93.550903,111.601547 93.856224,111.744957 94.161545,111.888367 
	C94.161545,111.888367 94.014366,111.890633 94.027512,112.157478 
	C94.028770,112.619102 94.016899,112.813881 94.005020,113.008652 
	C92.843933,114.221344 91.682861,115.434029 90.259186,116.826271 
	C89.996597,117.005821 89.498154,117.003517 89.248924,117.002823 
	C89.000603,114.274155 89.001511,111.546165 89.004814,108.419029 
z"/>
<path fill="#2D7BB8" opacity="1.000000" stroke="none" 
	d="
M136.463287,136.611115 
	C136.347778,137.058380 136.066132,137.332504 135.766602,137.585464 
	C135.758957,137.591904 135.555069,137.365921 135.442719,137.248352 
	C135.726746,136.977295 136.010773,136.706253 136.463287,136.611115 
z"/>
<path fill="#2D7BB8" opacity="1.000000" stroke="none" 
	d="
M94.327293,112.985733 
	C94.016899,112.813881 94.028770,112.619102 94.098000,112.136284 
	C94.458145,112.028267 94.760933,112.208282 95.177307,112.635986 
	C95.077110,112.910049 94.863335,112.936432 94.327293,112.985733 
z"/>
<path fill="#2D7BB8" opacity="1.000000" stroke="none" 
	d="
M98.205429,116.029068 
	C98.134460,115.751442 98.594955,115.810738 98.812653,115.891243 
	C99.030350,115.971748 99.158943,116.421761 99.190048,116.653763 
	C98.906242,116.692741 98.591324,116.499725 98.205429,116.029068 
z"/>
<path fill="#2D7BB8" opacity="1.000000" stroke="none" 
	d="
M99.190132,117.072548 
	C99.415779,116.988747 99.725136,117.171669 100.124458,117.615822 
	C99.900902,117.697792 99.587364,117.518532 99.190132,117.072548 
z"/>
<path fill="#2D7BB8" opacity="1.000000" stroke="none" 
	d="
M100.196030,118.055969 
	C100.420349,117.984268 100.717865,118.181664 101.098312,118.642914 
	C100.877243,118.712868 100.573235,118.518967 100.196030,118.055969 
z"/>
<path fill="#2D7BB8" opacity="1.000000" stroke="none" 
	d="
M86.999847,106.999847 
	C86.997025,107.163567 87.056961,107.367302 86.981956,107.485130 
	C86.269341,108.604546 85.533813,109.709381 84.804886,110.818413 
	C84.252083,110.365646 83.699287,109.912872 83.146484,109.460106 
	C84.178711,108.644402 85.210930,107.828690 86.621735,107.006645 
	C87.000305,107.000305 87.000000,107.000000 86.999847,106.999847 
z"/>
<path fill="#2D7BB8" opacity="1.000000" stroke="none" 
	d="
M45.014694,109.400574 
	C45.498230,109.044807 45.860065,108.934921 46.501617,108.779633 
	C46.063717,109.474686 45.346104,110.215134 44.249226,110.924034 
	C44.210976,110.477142 44.551987,110.061806 45.014694,109.400574 
z"/>
<path fill="#2D7BB8" opacity="1.000000" stroke="none" 
	d="
M58.388763,100.462936 
	C57.941750,100.347488 57.667759,100.065918 57.414913,99.766487 
	C57.408474,99.758858 57.634323,99.555061 57.751839,99.442757 
	C58.022743,99.726662 58.293648,100.010567 58.388763,100.462936 
z"/>
<path fill="#2D7BB8" opacity="1.000000" stroke="none" 
	d="
M64.463181,99.611305 
	C64.347717,100.058411 64.066063,100.332458 63.766533,100.585335 
	C63.758881,100.591805 63.555038,100.365898 63.442688,100.248367 
	C63.726677,99.977409 64.010674,99.706444 64.463181,99.611305 
z"/>
<path fill="#2D7BB8" opacity="1.000000" stroke="none" 
	d="
M94.075516,111.619843 
	C93.856224,111.744957 93.550903,111.601547 93.116592,111.233627 
	C93.321571,111.123184 93.655525,111.237251 94.075516,111.619843 
z"/>
<path fill="#2D7BB8" opacity="1.000000" stroke="none" 
	d="
M91.063782,108.754951 
	C90.735748,108.775558 90.479988,108.537956 90.180542,108.034874 
	C90.136856,107.769394 90.596397,107.819618 90.814888,107.895004 
	C91.067604,108.145844 91.101830,108.321289 91.063782,108.754951 
z"/>
</svg>