<?xml version="1.0" encoding="UTF-8"?>
<svg version="1.1" xmlns="http://www.w3.org/2000/svg" width="768" height="616">
<path d="M0 0 C253.44 0 506.88 0 768 0 C768 203.28 768 406.56 768 616 C514.56 616 261.12 616 0 616 C0 412.72 0 209.44 0 0 Z " fill="#FEFEFE" transform="translate(0,0)"/>
<path d="M0 0 C1.55835571 -0.00430527 1.55835571 -0.00430527 3.14819336 -0.00869751 C5.33675687 -0.01073187 7.52533883 -0.00524612 9.71386719 0.00732422 C13.05184834 0.02338625 16.38861873 0.00745353 19.7265625 -0.01171875 C21.85937766 -0.00973621 23.99219206 -0.00589231 26.125 0 C27.61277954 -0.00910904 27.61277954 -0.00910904 29.13061523 -0.0184021 C36.44711515 0.05536941 42.07573432 1.28584564 47.8125 6.1484375 C48.36421875 6.59703125 48.9159375 7.045625 49.484375 7.5078125 C54.48278354 13.49600491 54.50684629 19.81477239 54.4609375 27.265625 C54.46380768 28.29978546 54.46667786 29.33394592 54.46963501 30.39944458 C54.47166969 32.57961578 54.46618169 34.75980548 54.45361328 36.93994141 C54.43758451 40.25595486 54.45346601 43.57074346 54.47265625 46.88671875 C54.47067307 49.0130235 54.46682786 51.13932749 54.4609375 53.265625 C54.46701019 54.24715546 54.47308289 55.22868591 54.4793396 56.23995972 C54.40512539 63.59917999 53.14098251 69.80106392 49.4375 76.2109375 C40.98012383 84.00062608 30.28837258 83.05792925 19.5 83.1484375 C17.8066106 83.17663635 16.11324913 83.20656917 14.41992188 83.23828125 C10.30083179 83.31168247 6.18207218 83.36153916 2.0625 83.3984375 C-2.18305475 91.86606735 -6.42626173 100.33486875 -10.66671467 108.80505466 C-12.63715447 112.74078152 -14.6083128 116.67614457 -16.58129883 120.6105957 C-18.86503932 125.16505546 -21.14656891 129.72061623 -23.42578125 134.27734375 C-23.79829073 135.02204548 -24.17080021 135.76674721 -24.55459785 136.53401566 C-29.61446049 146.65753119 -34.60312779 156.80857069 -39.40498352 167.05775452 C-42.75936344 174.18154565 -46.45331774 181.1004194 -50.31819153 187.95982361 C-51.51676141 190.12928305 -52.4125462 191.97433538 -52.9375 194.3984375 C-51.3386384 198.33923475 -49.44432036 200.76096389 -46.81420898 204.0690918 C-44.45229146 208.25921399 -44.3567631 211.26213335 -44.40625 215.98046875 C-44.4024231 216.79408371 -44.39859619 217.60769867 -44.39465332 218.44596863 C-44.39194155 220.16133873 -44.3992512 221.8767507 -44.41601562 223.59204102 C-44.43735431 226.19317852 -44.41623413 228.79152813 -44.390625 231.39257812 C-44.35963817 249.34798644 -44.35963817 249.34798644 -50.34936523 255.95605469 C-55.91889517 260.99349799 -61.2328006 261.70766391 -68.4921875 261.69921875 C-69.31196075 261.70350388 -70.13173401 261.707789 -70.97634888 261.71220398 C-72.70606567 261.71793179 -74.43580654 261.71845898 -76.16552734 261.71411133 C-78.79697267 261.71095612 -81.42728761 261.73441253 -84.05859375 261.75976562 C-85.74479026 261.76203942 -87.43098977 261.76274174 -89.1171875 261.76171875 C-89.89657684 261.7709285 -90.67596619 261.78013824 -91.47897339 261.78962708 C-97.3995885 261.74006759 -102.04271803 260.60035076 -106.86328125 256.93359375 C-107.32089844 256.44761719 -107.77851563 255.96164062 -108.25 255.4609375 C-108.72050781 254.97753906 -109.19101562 254.49414062 -109.67578125 253.99609375 C-112.3320998 250.63252011 -112.98360566 249.05385947 -112.66918945 244.58422852 C-112.46345066 243.02354784 -112.25728479 241.46292342 -112.05078125 239.90234375 C-110.24557135 221.54050659 -110.93506834 206.45859604 -123.0065918 191.69989014 C-133.51660629 179.78988534 -145.35756705 167.76067932 -161.86328125 166.1796875 C-169.36227727 165.75409118 -176.86867823 166.33823658 -184.25666809 167.68115234 C-188.81140734 168.49183809 -191.67331251 168.14580811 -195.9375 166.3984375 C-197.95729094 165.50945438 -197.95729094 165.50945438 -199.9375 165.3984375 C-202.20825744 166.54804337 -202.20825744 166.54804337 -204.421875 168.37109375 C-205.27523437 169.02400391 -206.12859375 169.67691406 -207.0078125 170.34960938 C-207.89210938 171.04634766 -208.77640625 171.74308594 -209.6875 172.4609375 C-210.55632812 173.13060547 -211.42515625 173.80027344 -212.3203125 174.49023438 C-214.050185 175.82400243 -215.76681842 177.17512542 -217.46948242 178.54345703 C-219.9375 180.3984375 -219.9375 180.3984375 -222.3371582 181.67138672 C-224.82986441 183.05853079 -226.27485795 184.0645889 -227.9375 186.3984375 C-228.94232615 191.74137005 -228.79349017 196.98276774 -228.625 202.3984375 C-228.57308286 204.57944032 -228.53334333 206.7583266 -228.52339172 208.93994141 C-228.51230579 210.91865659 -228.45982015 212.89701248 -228.4050293 214.875 C-229.12331335 219.62799198 -230.47667177 221.08895037 -233.9375 224.3984375 C-239.39231635 227.49521419 -245.70200197 226.77049288 -251.80249023 226.76904297 C-253.86591038 226.77341823 -255.92719168 226.80978421 -257.99023438 226.84765625 C-259.30185547 226.85152344 -260.61347656 226.85539063 -261.96484375 226.859375 C-263.15843506 226.86759277 -264.35202637 226.87581055 -265.58178711 226.88427734 C-270.23190374 226.21103383 -273.41904913 224.38534661 -276.29150391 220.62670898 C-277.24105889 217.35135435 -277.26279611 214.12824955 -277.2734375 210.74609375 C-277.2800943 210.00894638 -277.2867511 209.27179901 -277.29360962 208.51231384 C-277.30371333 206.9565581 -277.30842734 205.40075922 -277.30810547 203.8449707 C-277.31247944 201.47208933 -277.34882091 199.10106825 -277.38671875 196.72851562 C-277.39258742 195.213548 -277.39655648 193.69857158 -277.3984375 192.18359375 C-277.41280853 191.4782399 -277.42717957 190.77288605 -277.44198608 190.04615784 C-277.39749848 185.22078192 -276.35663192 182.78451701 -272.9375 179.3984375 C-269.91445313 177.88691407 -266.83755941 178.44615587 -263.53515625 178.57421875 C-239.64969753 179.2395566 -239.64969753 179.2395566 -219.70703125 167.109375 C-219.1035083 166.47612305 -218.49998535 165.84287109 -217.87817383 165.19042969 C-215.9375 163.3984375 -215.9375 163.3984375 -213.48706055 162.11425781 C-210.47123303 160.45994897 -208.89080386 159.2605721 -206.9375 156.3984375 C-205.35981529 149.59231575 -205.9489144 142.33028248 -206.125 135.3984375 C-206.17155163 132.52140206 -206.20491051 129.64546194 -206.21589661 126.76806641 C-206.22537081 124.9836225 -206.25633483 123.19911853 -206.31230164 121.41552734 C-206.38920877 114.67525851 -204.77663254 110.59408212 -200.2265625 105.47265625 C-199.67742187 105.01503906 -199.12828125 104.55742187 -198.5625 104.0859375 C-198.01851563 103.61542969 -197.47453125 103.14492187 -196.9140625 102.66015625 C-192.0276029 99.54093401 -186.92965202 99.07192228 -181.265625 99.02734375 C-180.54316589 99.01831528 -179.82070679 99.0092868 -179.07635498 98.99998474 C-177.5535492 98.98554332 -176.03068223 98.97661077 -174.5078125 98.97290039 C-172.20723814 98.96103926 -169.90938179 98.9118317 -167.609375 98.86132812 C-158.43280477 98.76015802 -150.3596293 99.36731154 -143.30566406 105.91259766 C-141.9375 107.4609375 -141.9375 107.4609375 -139.9375 110.3984375 C-139.54868652 110.94757813 -139.15987305 111.49671875 -138.75927734 112.0625 C-137.49897388 115.64496689 -138.30536314 119.02901827 -138.7890625 122.7109375 C-140.37814997 139.11976134 -140.51054484 153.68662413 -129.91796875 167.15234375 C-119.49852934 179.46113583 -106.55782653 193.26685899 -89.74787903 195.07618713 C-83.38434935 195.4417519 -77.14784569 194.76276848 -70.9375 193.3984375 C-70.65769287 192.51212646 -70.37788574 191.62581543 -70.08959961 190.71264648 C-69.06815698 187.77429434 -67.91477385 185.13656653 -66.50390625 182.37109375 C-66.01857422 181.41138672 -65.53324219 180.45167969 -65.03320312 179.46289062 C-64.52724609 178.47224609 -64.02128906 177.48160156 -63.5 176.4609375 C-60.00595393 169.60190041 -56.60073156 162.71297051 -53.30326843 155.75764465 C-48.87196558 146.41330287 -44.32817196 137.13516347 -39.63879585 127.91762733 C-38.70450957 126.08084703 -37.77213432 124.24310887 -36.84031677 122.40507507 C-31.69930079 112.26762 -31.69930079 112.26762 -29.22070312 107.43798828 C-27.62679903 104.33119121 -26.04660166 101.21776338 -24.4753952 98.09943008 C-23.59712147 96.36562602 -22.70425871 94.63923675 -21.81109619 92.91305542 C-21.28594421 91.86650787 -20.76079224 90.81996033 -20.21972656 89.74169922 C-19.75326721 88.827341 -19.28680786 87.91298279 -18.80621338 86.97091675 C-17.78843013 83.95700403 -17.96887623 82.3990525 -18.9375 79.3984375 C-20.49954284 77.21812083 -20.49954284 77.21812083 -22.4375 75.2734375 C-26.16656059 71.34569745 -27.0583235 68.698144 -27.09863281 63.30371094 C-27.10824036 62.26543152 -27.1178479 61.2271521 -27.12774658 60.15740967 C-27.1341214 58.47460907 -27.1341214 58.47460907 -27.140625 56.7578125 C-27.14632507 55.60226868 -27.15202515 54.44672485 -27.15789795 53.25616455 C-27.16735069 50.80831824 -27.17388301 48.36045919 -27.17773438 45.91259766 C-27.18742543 42.17718117 -27.21844114 38.44231823 -27.25 34.70703125 C-27.25653159 32.32812827 -27.26178145 29.94922135 -27.265625 27.5703125 C-27.2779718 26.45654236 -27.2903186 25.34277222 -27.30303955 24.19525146 C-27.28123902 16.56140629 -26.79834989 11.25928739 -21.1875 5.6484375 C-14.01291415 0.68141653 -8.56252004 -0.05242466 0 0 Z " fill="#2F85C5" transform="translate(509.9375,88.6015625)"/>
<path d="M0 0 C0.80745667 -0.0066568 1.61491333 -0.0133136 2.44683838 -0.02017212 C4.14780417 -0.03024733 5.84880909 -0.03499074 7.54980469 -0.03466797 C10.11982201 -0.03902721 12.68809975 -0.075361 15.2578125 -0.11328125 C26.11762278 -0.18902271 36.19940387 -0.02435219 44.453125 7.9609375 C51.38752746 15.7261119 49.76309227 29.11548701 49.76123047 38.83129883 C49.76562196 41.39666282 49.80208979 43.96032748 49.83984375 46.52539062 C49.90851385 56.51928807 49.67463292 64.28300508 42.953125 72.2109375 C36.30659635 77.72269296 31.24820216 78.49219537 22.78515625 78.50390625 C21.94651535 78.50723465 21.10787445 78.51056305 20.24382019 78.51399231 C18.46943712 78.5190497 16.69504457 78.521401 14.9206543 78.52124023 C12.23014241 78.52341566 9.54004817 78.54155322 6.84960938 78.56054688 C5.11979306 78.5634834 3.38997481 78.56546646 1.66015625 78.56640625 C0.46903984 78.57718452 0.46903984 78.57718452 -0.74613953 78.58818054 C-7.88295746 78.55956114 -15.90488742 78.21733298 -21.27270508 72.94873047 C-28.93130488 63.70805279 -28.35130284 53.65971033 -28.20629883 42.22216797 C-28.17187534 39.21096739 -28.1857027 36.20269028 -28.20507812 33.19140625 C-28.19818118 31.25780014 -28.18851018 29.32420151 -28.17578125 27.390625 C-28.18074112 26.50083954 -28.18570099 25.61105408 -28.19081116 24.69430542 C-28.06013564 17.69666248 -26.25493924 12.46697641 -21.71484375 7.09375 C-21.08191406 6.55492187 -20.44898438 6.01609375 -19.796875 5.4609375 C-19.17167969 4.90664063 -18.54648437 4.35234375 -17.90234375 3.78125 C-12.33538758 0.2722657 -6.39187137 0.01870453 0 0 Z " fill="#B2B4B6" transform="translate(514.609375,273.6640625)"/>
<path d="M0 0 C0.72766068 -0.0033284 1.45532135 -0.0066568 2.20503235 -0.01008606 C3.74402232 -0.0151403 5.28302322 -0.01749485 6.82202148 -0.01733398 C9.15041743 -0.01950757 11.47832922 -0.03764306 13.80664062 -0.05664062 C33.95967784 -0.13785321 33.95967784 -0.13785321 39.92578125 5.54296875 C40.56386719 6.12820312 41.20195312 6.7134375 41.859375 7.31640625 C46.95938517 13.11354011 46.64519351 20.58551621 46.69140625 27.97265625 C46.69710632 28.69607208 46.7028064 29.41948792 46.7086792 30.16482544 C46.71806601 31.68587815 46.7246378 33.20695061 46.72851562 34.72802734 C46.7382265 37.02998937 46.769311 39.331059 46.80078125 41.6328125 C46.92770503 58.77518657 46.92770503 58.77518657 41.65625 65.5078125 C41.00269531 66.03503906 40.34914063 66.56226563 39.67578125 67.10546875 C39.02996094 67.65074219 38.38414062 68.19601563 37.71875 68.7578125 C32.35812018 72.14693223 27.0893678 72.49618154 20.94140625 72.5390625 C20.13016296 72.54809097 19.31891968 72.55711945 18.48309326 72.56642151 C16.77196919 72.58087503 15.06079047 72.58979852 13.34960938 72.59350586 C10.75944564 72.60537179 8.17169107 72.65457582 5.58203125 72.70507812 C-3.32224789 72.79358013 -11.12876483 72.86191219 -18.51171875 67.16796875 C-20.765625 64.95703125 -20.765625 64.95703125 -22.07421875 62.79296875 C-22.52925781 62.08398438 -22.98429687 61.375 -23.453125 60.64453125 C-26.55352044 53.3912076 -25.76517291 44.79866976 -25.80688477 37.03515625 C-25.81841382 35.54384887 -25.83888066 34.05258305 -25.8684082 32.56152344 C-26.06685348 22.50844071 -25.85273247 14.28813877 -19.07421875 6.29296875 C-12.76974561 1.06486907 -8.04258641 0.01288082 0 0 Z " fill="#2CCAED" transform="translate(359.51171875,88.83203125)"/>
<path d="M0 0 C8.91 -0.12375 8.91 -0.12375 18 -0.25 C19.85882812 -0.28641602 21.71765625 -0.32283203 23.6328125 -0.36035156 C25.13019664 -0.37204988 26.62759365 -0.38223899 28.125 -0.390625 C29.26195312 -0.4213208 29.26195312 -0.4213208 30.421875 -0.45263672 C36.95430747 -0.45684576 42.09645943 1.48763852 47.05859375 5.78125 C47.74115234 6.63203125 47.74115234 6.63203125 48.4375 7.5 C48.91058594 8.0671875 49.38367188 8.634375 49.87109375 9.21875 C52.44446215 13.27915135 52.78509065 18.32322345 52 23 C50.60124022 25.87831434 48.85886809 28.40367933 47 31 C46.67 31.66 46.34 32.32 46 33 C46.94875 33.7425 47.8975 34.485 48.875 35.25 C52.43532621 38.03634225 53.80324441 40.43423971 54.37109375 44.953125 C54.49563301 51.13613308 54.5299404 56.24058221 50.76171875 61.34765625 C43.98652181 67.70222012 35.86725418 69.15968202 26.953125 69.09765625 C26.26911621 69.09664917 25.58510742 69.09564209 24.88037109 69.09460449 C22.33689689 69.0893913 19.79344668 69.07543006 17.25 69.0625 C8.71125 69.0315625 8.71125 69.0315625 0 69 C0 46.23 0 23.46 0 0 Z " fill="#2FCAED" transform="translate(541,385)"/>
<path d="M0 0 C5.89875 -0.103125 11.7975 -0.20625 17.875 -0.3125 C20.63593018 -0.38078003 20.63593018 -0.38078003 23.45263672 -0.45043945 C32.22518458 -0.57657646 39.67762254 -0.5289975 47 5 C51.0461897 9.0461897 52.11312498 12.64990343 52.375 18.25 C52.3410498 23.36799227 50.40613263 27.21196765 47 31 C46.34 31 45.68 31 45 31 C45 31.66 45 32.32 45 33 C45.7425 33.20625 46.485 33.4125 47.25 33.625 C50.83368332 35.41684166 52.03492182 37.56111318 54 41 C55.63647698 45.90943093 55.91161349 50.53628594 54.09375 55.44921875 C51.08347607 61.28644865 47.72432229 64.0965241 41.8762207 67.08544922 C37.87406474 68.3580132 34.15394108 68.24761217 29.98046875 68.1953125 C29.21883423 68.19329834 28.45719971 68.19128418 27.67248535 68.18920898 C24.8440951 68.17879341 22.01579111 68.15087096 19.1875 68.125 C12.855625 68.08375 6.52375 68.0425 0 68 C0 45.56 0 23.12 0 0 Z " fill="#2ECAED" transform="translate(192,386)"/>
<path d="M0 0 C1.70542969 0.00193359 1.70542969 0.00193359 3.4453125 0.00390625 C12.86838087 0.10229095 20.06225671 0.60244108 27 7.375 C29.48020943 11.09531414 29.3232 14.02171426 29.3359375 18.33203125 C29.3425943 19.11261398 29.3492511 19.89319672 29.35610962 20.69743347 C29.36623139 22.34912767 29.37092678 24.00086271 29.37060547 25.65258789 C29.3749665 28.16817524 29.41125419 30.68199012 29.44921875 33.19726562 C29.45508966 34.80468152 29.45905722 36.41210573 29.4609375 38.01953125 C29.47530853 38.76660843 29.48967957 39.51368561 29.50448608 40.28340149 C29.45936685 45.49400823 28.38946061 48.43426707 25 52.375 C20.48105137 56.22590221 16.74604431 56.9716018 10.96875 56.90625 C10.21460815 56.9100769 9.46046631 56.91390381 8.68347168 56.91784668 C7.0967474 56.92055594 5.50997771 56.91326395 3.92333984 56.89648438 C1.50646587 56.87505732 -0.90743628 56.89631619 -3.32421875 56.921875 C-4.87240234 56.91923154 -6.42058409 56.91410619 -7.96875 56.90625 C-8.68454224 56.91434692 -9.40033447 56.92244385 -10.13781738 56.93078613 C-15.24067542 56.83629435 -18.16798484 55.72767282 -22 52.375 C-25.6891319 47.76934946 -26.60880058 43.36031656 -26.56640625 37.5 C-26.57260483 36.77184082 -26.57880341 36.04368164 -26.58518982 35.29345703 C-26.59224896 33.76401089 -26.58918264 32.23448727 -26.57641602 30.70507812 C-26.56253021 28.38005861 -26.59669233 26.05905678 -26.63476562 23.734375 C-26.71397097 9.95301642 -26.71397097 9.95301642 -22.57397461 5.60009766 C-15.38783287 0.00678926 -8.96733219 -0.19317382 0 0 Z " fill="#3086C5" transform="translate(422,168.625)"/>
<path d="M0 0 C1.00023193 0.00523682 2.00046387 0.01047363 3.03100586 0.01586914 C4.1105957 0.0190918 5.19018555 0.02231445 6.30249023 0.02563477 C8.00695312 0.03820312 8.00695312 0.03820312 9.74584961 0.05102539 C11.45611328 0.05779297 11.45611328 0.05779297 13.20092773 0.06469727 C16.02845312 0.07652792 18.85587601 0.09301129 21.68334961 0.11352539 C26.42622887 14.58909944 30.95569964 29.12713995 35.3614502 43.70849609 C35.90911394 45.51929221 36.45867323 47.32951612 37.01013184 49.13916016 C37.79224804 51.70838187 38.56693322 54.2797295 39.33959961 56.85180664 C39.57672668 57.62688065 39.81385376 58.40195465 40.0581665 59.20051575 C41.09642081 62.68559326 41.68334961 65.44377698 41.68334961 69.11352539 C35.41334961 69.11352539 29.14334961 69.11352539 22.68334961 69.11352539 C21.69334961 65.48352539 20.70334961 61.85352539 19.68334961 58.11352539 C12.75334961 58.11352539 5.82334961 58.11352539 -1.31665039 58.11352539 C-2.30665039 61.74352539 -3.29665039 65.37352539 -4.31665039 69.11352539 C-10.58665039 69.11352539 -16.85665039 69.11352539 -23.31665039 69.11352539 C-21.86580997 61.02319734 -19.67451124 53.3233565 -17.21899414 45.48461914 C-16.8203342 44.20104135 -16.42203026 42.91735294 -16.02406311 41.63356018 C-15.19595349 38.96597571 -14.3644512 36.29948203 -13.53027344 33.63378906 C-12.45978279 30.21238479 -11.3966803 26.78873836 -10.33588314 23.36431789 C-9.51734696 20.7239717 -8.6956604 18.08461476 -7.87292671 15.44557381 C-7.28818927 13.56861 -6.70559788 11.69097806 -6.12303162 9.81333923 C-5.769189 8.68448807 -5.41534637 7.5556369 -5.05078125 6.39257812 C-4.7392662 5.39459702 -4.42775116 4.39661591 -4.10679626 3.36839294 C-2.97758199 0.14591376 -2.97758199 0.14591376 0 0 Z " fill="#30CAED" transform="translate(480.316650390625,384.886474609375)"/>
<path d="M0 0 C6.27 0 12.54 0 19 0 C19.01458252 1.42787842 19.02916504 2.85575684 19.04418945 4.3269043 C19.10220226 9.62924119 19.17943566 14.93115475 19.26245117 20.2331543 C19.29568634 22.52702967 19.32372264 24.82098654 19.34643555 27.11499023 C19.38000674 30.41425273 19.43232535 33.7127693 19.48828125 37.01171875 C19.49467117 38.03585373 19.5010611 39.05998871 19.50764465 40.11515808 C19.60101164 47.06563062 19.60101164 47.06563062 23 53 C26.21694364 54.60847182 29.52137222 54.61309149 33 54 C35.69105198 51.82425584 37.45532928 50.08934144 39 47 C39.11786691 45.51987176 39.17692938 44.03483534 39.20532227 42.55029297 C39.22526749 41.62948944 39.24521271 40.70868591 39.26576233 39.75997925 C39.28247482 38.76410797 39.29918732 37.76823669 39.31640625 36.7421875 C39.33718735 35.72399933 39.35796844 34.70581116 39.37937927 33.6567688 C39.44489466 30.39624945 39.50376902 27.13564794 39.5625 23.875 C39.60568332 21.66796017 39.64929755 19.46092872 39.69335938 17.25390625 C39.8005781 11.83602225 39.90183996 6.41805539 40 1 C45.94 1 51.88 1 58 1 C58.04968099 7.3863005 58.08585227 13.77248684 58.10986328 20.15893555 C58.11988013 22.32855185 58.13349742 24.4981548 58.15087891 26.66772461 C58.17531771 29.79804801 58.18652657 32.92819188 58.1953125 36.05859375 C58.20563507 37.01833603 58.21595764 37.97807831 58.22659302 38.96690369 C58.22822739 48.92357241 57.00319844 56.61053402 50 64 C42.94571036 69.8001937 35.05454393 71.60389026 26.0625 71.3515625 C18.40653711 70.47268921 11.25441807 67.75483884 6 62 C2.08929047 55.54253413 -0.13399058 49.7105041 -0.11352539 42.11791992 C-0.11344986 41.17732224 -0.11337433 40.23672455 -0.11329651 39.2676239 C-0.10813522 38.2653627 -0.10297394 37.2631015 -0.09765625 36.23046875 C-0.0962413 35.19432938 -0.09482635 34.15819 -0.09336853 33.09065247 C-0.08778242 29.78957196 -0.07523242 26.48855992 -0.0625 23.1875 C-0.05748321 20.94596452 -0.05292061 18.70442798 -0.04882812 16.46289062 C-0.03781753 10.97523414 -0.02056239 5.48762867 0 0 Z " fill="#31CBED" transform="translate(324,385)"/>
<path d="M0 0 C2.22556211 -0.00968583 4.4501924 -0.04071094 6.67553711 -0.07226562 C8.10066186 -0.07879834 9.52579319 -0.08404776 10.95092773 -0.08789062 C12.2410376 -0.09723633 13.53114746 -0.10658203 14.86035156 -0.11621094 C20.00226565 0.39703132 23.24466741 1.95728403 26.74389648 5.74023438 C30.4278566 11.19795306 29.61526427 17.01611519 29.61889648 23.36523438 C29.63114258 24.46867187 29.64338867 25.57210938 29.65600586 26.70898438 C29.68368182 42.24442352 29.68368182 42.24442352 25.81030273 47.39648438 C25.21088867 47.83992188 24.61147461 48.28335938 23.99389648 48.74023438 C23.39706055 49.20429688 22.80022461 49.66835938 22.18530273 50.14648438 C16.99281123 53.38456371 10.67054716 52.50136622 4.7722168 52.53540039 C3.38539407 52.54689787 1.99861482 52.56731478 0.61206055 52.59692383 C-13.75443433 52.90350497 -13.75443433 52.90350497 -19.56860352 48.24023438 C-24.72795551 41.36109838 -23.78528146 33.60411181 -23.81860352 25.36523438 C-23.83922852 24.09808594 -23.85985352 22.8309375 -23.88110352 21.52539062 C-23.88625977 20.29949219 -23.89141602 19.07359375 -23.89672852 17.81054688 C-23.90607422 16.69437988 -23.91541992 15.57821289 -23.92504883 14.42822266 C-23.30168103 8.85292351 -20.8201415 4.82746955 -16.56860352 1.24023438 C-11.26956456 -0.52611194 -5.54951747 0.01462805 0 0 Z " fill="#2CC8EE" transform="translate(329.568603515625,297.759765625)"/>
<path d="M0 0 C2.07099346 -0.01934604 4.13795236 -0.08135359 6.20800781 -0.14453125 C17.42464419 -0.23233271 17.42464419 -0.23233271 21.66894531 3.13671875 C26.92860385 8.91498284 26.67942202 15.44258523 26.65332031 22.85546875 C26.66943359 23.76296875 26.68554688 24.67046875 26.70214844 25.60546875 C26.70662975 31.82552472 26.3278244 38.19183027 21.92407227 43.0402832 C16.10752947 48.10161721 10.88322919 47.66323342 3.59082031 47.66796875 C2.61371094 47.68021484 1.63660156 47.69246094 0.62988281 47.70507812 C-6.28891281 47.71906491 -12.05302391 47.69003561 -17.53417969 43.04296875 C-21.86370953 37.82206511 -20.95090431 31.68011008 -21.00927734 25.19360352 C-21.03396622 23.18533313 -21.09057684 21.17753829 -21.14746094 19.16992188 C-21.24634589 8.29807033 -21.24634589 8.29807033 -18.32324219 4.6875 C-12.26899135 -0.32811836 -7.66648574 0.04333388 0 0 Z " fill="#2DCAED" transform="translate(253.6591796875,168.51953125)"/>
<path d="M0 0 C1.11955078 -0.01998047 2.23910156 -0.03996094 3.39257812 -0.06054688 C9.54453268 -0.05689586 13.88466465 -0.01214826 18.5625 4.4375 C22.41420291 8.88114883 21.97829402 13.60135962 21.875 19.1875 C21.87822266 20.0434375 21.88144531 20.899375 21.88476562 21.78125 C21.76581321 36.05553977 21.76581321 36.05553977 17.25 40.9375 C11.37013704 44.21928398 4.69015109 43.72194619 -1.875 43.8125 C-3.41124023 43.86857422 -3.41124023 43.86857422 -4.97851562 43.92578125 C-13.42891237 44.02423247 -13.42891237 44.02423247 -17.03515625 41.3515625 C-22.15704612 35.13866844 -21.80221249 28.0649157 -21.8125 20.375 C-21.83699219 19.40755859 -21.86148437 18.44011719 -21.88671875 17.44335938 C-21.91063478 11.61980701 -21.53886623 7.92380675 -17.4375 3.4375 C-11.83727462 -0.55778639 -6.6548717 -0.04199862 0 0 Z " fill="#2ECAED" transform="translate(533.4375,200.5625)"/>
<path d="M0 0 C5.94 0 11.88 0 18 0 C18 17.49 18 34.98 18 53 C26.91 53 35.82 53 45 53 C45 58.28 45 63.56 45 69 C30.15 69 15.3 69 0 69 C0 46.23 0 23.46 0 0 Z " fill="#2DCAED" transform="translate(267,386)"/>
<path d="M0 0 C5.94 0 11.88 0 18 0 C18 17.16 18 34.32 18 52 C26.91 52 35.82 52 45 52 C45 57.28 45 62.56 45 68 C30.15 68 15.3 68 0 68 C0 45.56 0 23.12 0 0 Z " fill="#2DCAED" transform="translate(403,386)"/>
<path d="M0 0 C1.6077832 -0.04253906 1.6077832 -0.04253906 3.24804688 -0.0859375 C12.04142714 -0.10771677 12.04142714 -0.10771677 15.69140625 2.78125 C20.03228616 7.7586016 20.38075955 11.20845974 20.3125 17.75 C20.32410156 18.83861328 20.32410156 18.83861328 20.3359375 19.94921875 C20.31756699 25.10214565 19.61992725 29.57703645 18.0625 34.5 C12.2944768 40.12382262 7.50636709 39.7714106 -0.1875 39.875 C-1.22519531 39.91238281 -2.26289063 39.94976562 -3.33203125 39.98828125 C-11.93873406 40.08720887 -11.93873406 40.08720887 -15.546875 37.2265625 C-20.53461131 31.53793513 -20.27372357 26.87410441 -20.25 19.5625 C-20.26611328 18.57314453 -20.28222656 17.58378906 -20.29882812 16.56445312 C-20.30509265 7.24910641 -20.30509265 7.24910641 -16.9375 3.5 C-11.42705792 -0.37879567 -6.53332799 -0.01565807 0 0 Z " fill="#B3B5B7" transform="translate(443.9375,106.5)"/>
<path d="M0 0 C1.24426758 -0.02416992 1.24426758 -0.02416992 2.51367188 -0.04882812 C7.99775322 -0.05315652 11.87760256 0.61188585 16.6875 3.3125 C21.16539424 8.02538194 20.16328623 13.61376214 20.125 19.75 C20.1549707 21.44866211 20.1549707 21.44866211 20.18554688 23.18164062 C20.18072215 31.36919806 20.18072215 31.36919806 18.03515625 35.47265625 C12.59885724 39.73305031 6.8086476 39.67720273 0.1875 39.6875 C-1.05580078 39.72423828 -1.05580078 39.72423828 -2.32421875 39.76171875 C-7.81974445 39.78792952 -10.99480831 39.0189522 -15.3125 35.3125 C-19.50635593 30.65461097 -18.82739573 25.9255854 -18.8125 19.9375 C-18.85503906 18.39449219 -18.85503906 18.39449219 -18.8984375 16.8203125 C-18.92024284 8.3598418 -18.92024284 8.3598418 -16.03125 4.7109375 C-10.76749117 0.06733417 -6.77263487 -0.02594879 0 0 Z " fill="#3288C6" transform="translate(301.3125,131.6875)"/>
<path d="M0 0 C0.98484375 -0.01482422 1.9696875 -0.02964844 2.984375 -0.04492188 C7.76290649 0.00996666 10.2280862 0.10566997 14.125 3.04296875 C17.18785209 7.36286638 17.18835334 10.80626853 17.25 16 C17.27578125 17.29550781 17.3015625 18.59101562 17.328125 19.92578125 C16.88856917 24.96497482 15.73450633 28.18532204 11.87109375 31.53125 C7.88584999 33.13619171 4.32218636 33.20140918 0.0625 33.1875 C-0.72318359 33.21585938 -1.50886719 33.24421875 -2.31835938 33.2734375 C-6.50906512 33.28746497 -9.19163647 32.96981276 -12.50390625 30.28125 C-16.75472965 25.86411896 -16.27842207 22.31119386 -16.375 16.4375 C-16.43107422 15.16712891 -16.43107422 15.16712891 -16.48828125 13.87109375 C-16.54449154 9.85518046 -16.41840799 6.54174287 -14.1640625 3.12109375 C-9.54459351 -0.43190524 -5.67453516 -0.15968914 0 0 Z " fill="#25BAF1" transform="translate(287,78.3125)"/>
<path d="M0 0 C1.94712891 0.00193359 1.94712891 0.00193359 3.93359375 0.00390625 C7.66956584 0.45029258 9.59969428 1.17247656 12.5625 3.4375 C14.1345124 6.58152481 13.74696744 9.92697397 13.75 13.375 C13.76224609 14.10396484 13.77449219 14.83292969 13.78710938 15.58398438 C13.79762685 19.4088391 13.73345624 21.18106564 11.5625 24.4375 C7.89858369 26.3297826 4.72088112 26.75978596 0.625 26.8125 C-0.87353516 26.85503906 -0.87353516 26.85503906 -2.40234375 26.8984375 C-6.4697739 26.28073253 -8.45046535 25.28856098 -11.4375 22.4375 C-12.26831706 19.41173619 -12.18701254 16.555294 -12.0625 13.4375 C-12.06894531 12.63054687 -12.07539063 11.82359375 -12.08203125 10.9921875 C-12.0156158 7.3332998 -11.81703499 5.04871143 -9.86328125 1.90234375 C-6.47725551 -0.14235778 -3.9326003 -0.05846284 0 0 Z " fill="#B3B5B7" transform="translate(233.4375,99.5625)"/>
<path d="M0 0 C3.11679863 0.38698506 6.19113937 0.3269488 9.328125 0.2890625 C9.38629123 3.70565741 9.42177695 7.12212455 9.453125 10.5390625 C9.47826172 11.99119141 9.47826172 11.99119141 9.50390625 13.47265625 C9.51035156 14.40722656 9.51679688 15.34179688 9.5234375 16.3046875 C9.53391113 17.16352539 9.54438477 18.02236328 9.55517578 18.90722656 C9.30782867 21.50197753 8.69445685 23.08378704 7.328125 25.2890625 C3.94050416 27.75985018 0.65996156 27.49569923 -3.421875 27.4140625 C-4.59234375 27.39601563 -5.7628125 27.37796875 -6.96875 27.359375 C-7.86078125 27.33617187 -8.7528125 27.31296875 -9.671875 27.2890625 C-10.796875 23.5390625 -10.796875 23.5390625 -9.671875 21.2890625 C-8.97320312 21.32386719 -8.27453125 21.35867188 -7.5546875 21.39453125 C-6.64460938 21.42160156 -5.73453125 21.44867187 -4.796875 21.4765625 C-3.89195312 21.51136719 -2.98703125 21.54617188 -2.0546875 21.58203125 C-1.26835937 21.48535156 -0.48203125 21.38867188 0.328125 21.2890625 C0.988125 20.2990625 1.648125 19.3090625 2.328125 18.2890625 C1.668125 18.6190625 1.008125 18.9490625 0.328125 19.2890625 C-5.85225475 19.74686841 -5.85225475 19.74686841 -8.83984375 18.078125 C-11.71374078 15.27163281 -11.53517614 12.59779322 -11.77734375 8.734375 C-11.637614 5.49471476 -10.79916099 3.72024649 -8.671875 1.2890625 C-5.21368086 -1.01640026 -3.9637387 -0.69284864 0 0 Z " fill="#B9BBBE" transform="translate(493.671875,495.7109375)"/>
<path d="M0 0 C3.41311667 2.52570633 4.66637768 3.99913304 6 8 C3.69 8.66 1.38 9.32 -1 10 C-1.33 9.01 -1.66 8.02 -2 7 C-4.64 7 -7.28 7 -10 7 C-11.41933513 11.25800538 -11.72651677 15.22911538 -10 19.4375 C-9.67 19.953125 -9.34 20.46875 -9 21 C-6.08365871 21.2502157 -6.08365871 21.2502157 -3 21 C-2.34 20.01 -1.68 19.02 -1 18 C1.31 18.66 3.62 19.32 6 20 C5.04555011 23.81779957 4.06001529 24.9564595 0.8125 27.3125 C-2.91278599 29.20605823 -5.80811553 29.60972865 -10 29 C-14.47458343 26.59060892 -17.85440671 24.02020049 -19.6875 19.1875 C-20.66572932 12.33989478 -19.95660615 8.56063568 -16 3 C-11.63784383 -1.09778306 -5.64930383 -0.92458576 0 0 Z " fill="#BBBDC0" transform="translate(302,488)"/>
<path d="M0 0 C2.8100346 1.79363911 4.50940468 3.01880935 6 6 C6.41948626 9.3858534 6.49414522 12.62068431 6 16 C3.5625 19.0625 3.5625 19.0625 1 21 C0.67 21.33 0.34 21.66 0 22 C-6.79355532 22.69087003 -6.79355532 22.69087003 -9.828125 20.953125 C-13.62716393 17.81799578 -14.88660894 16.13391061 -15.375 11.25 C-15.35058775 7.89941932 -14.75601354 6.15105468 -12.625 3.5625 C-8.70116912 -0.26790633 -5.37899258 -0.77284376 0 0 Z " fill="#BBBDC0" transform="translate(327,495)"/>
<path d="M0 0 C2 2 2 2 2.22705078 3.87939453 C2.21657715 4.62302246 2.20610352 5.36665039 2.1953125 6.1328125 C2.18886719 6.93847656 2.18242187 7.74414062 2.17578125 8.57421875 C2.15902344 9.41597656 2.14226562 10.25773437 2.125 11.125 C2.11597656 11.97449219 2.10695313 12.82398438 2.09765625 13.69921875 C2.07405647 15.79959884 2.03818483 17.89983444 2 20 C-0.31 20 -2.62 20 -5 20 C-5.33 15.38 -5.66 10.76 -6 6 C-6.99 6 -7.98 6 -9 6 C-9.33 10.62 -9.66 15.24 -10 20 C-12.64 20 -15.28 20 -18 20 C-18 13.4 -18 6.8 -18 0 C-15.03 0 -12.06 0 -9 0 C-5.88135455 -1.55932272 -3.33704665 -0.65549131 0 0 Z " fill="#BABCBF" transform="translate(356,496)"/>
<path d="M0 0 C2 2 2 2 2.22705078 3.87939453 C2.21657715 4.62302246 2.20610352 5.36665039 2.1953125 6.1328125 C2.18886719 6.93847656 2.18242187 7.74414062 2.17578125 8.57421875 C2.15902344 9.41597656 2.14226562 10.25773437 2.125 11.125 C2.11597656 11.97449219 2.10695313 12.82398438 2.09765625 13.69921875 C2.07405647 15.79959884 2.03818483 17.89983444 2 20 C-0.31 20 -2.62 20 -5 20 C-5.33 15.38 -5.66 10.76 -6 6 C-7.32 5.67 -8.64 5.34 -10 5 C-10 9.95 -10 14.9 -10 20 C-12.64 20 -15.28 20 -18 20 C-18 13.4 -18 6.8 -18 0 C-15.03 0 -12.06 0 -9 0 C-5.88135455 -1.55932272 -3.33704665 -0.65549131 0 0 Z " fill="#BABCBF" transform="translate(475,496)"/>
<path d="M0 0 C2.31 0 4.62 0 7 0 C7.33 4.62 7.66 9.24 8 14 C9.32 14 10.64 14 12 14 C12.33 9.38 12.66 4.76 13 0 C15.31 0 17.62 0 20 0 C20 6.6 20 13.2 20 20 C17.33333333 20 14.66666667 20 12 20 C10.906875 20.268125 9.81375 20.53625 8.6875 20.8125 C5 21 5 21 2.2890625 19.03125 C-0.71201958 15.05712083 -0.59234169 12.50508228 -0.3125 7.6875 C-0.28994141 6.94693359 -0.26738281 6.20636719 -0.24414062 5.44335938 C-0.1855815 3.62802643 -0.09590886 1.81374319 0 0 Z " fill="#B8BABD" transform="translate(386,496)"/>
<path d="M0 0 C2.9375 1 2.9375 1 5 2 C4.34 3.65 3.68 5.3 3 7 C0.69 6.67 -1.62 6.34 -4 6 C-2.12036423 8.14224864 -2.12036423 8.14224864 0.5 9 C3 10 3 10 5 12 C5.5565371 17.23144876 5.5565371 17.23144876 3.6875 19.8125 C-0.02751927 22.42677282 -3.61203552 22.22696368 -8 22 C-10.9375 21 -10.9375 21 -13 20 C-12.34 18.35 -11.68 16.7 -11 15 C-8.36 15 -5.72 15 -3 15 C-4.11375 14.54625 -5.2275 14.0925 -6.375 13.625 C-10 12 -10 12 -12 10 C-12.4375 7.125 -12.4375 7.125 -12 4 C-8.36453045 -0.18629827 -5.38442018 -0.57690216 0 0 Z " fill="#BBBDC0" transform="translate(376,495)"/>
<path d="M0 0 C0 2.31 0 4.62 0 7 C1.32 7 2.64 7 4 7 C4 8.65 4 10.3 4 12 C2.68 12 1.36 12 0 12 C0.33 14.97 0.66 17.94 1 21 C2.32 21.33 3.64 21.66 5 22 C5 23.65 5 25.3 5 27 C-2.05096661 28.55360281 -2.05096661 28.55360281 -6 26.25 C-8.88637537 21.55964002 -8.42318366 17.3697305 -8 12 C-8.99 12 -9.98 12 -11 12 C-11 10.35 -11 8.7 -11 7 C-10.01 7 -9.02 7 -8 7 C-8 5.02 -8 3.04 -8 1 C-5.29120665 -0.35439668 -2.99066732 -0.06501451 0 0 Z " fill="#BCBEC1" transform="translate(435,489)"/>
<path d="M0 0 C12.19277387 -0.49263733 12.19277387 -0.49263733 15.88671875 1.76171875 C18.10854563 4.11496607 18.68599663 4.89677495 18.625 8.0625 C18 12 18 12 15.88671875 13.734375 C10.72673085 15.9966701 5.56219908 15.16855149 0 15 C0 10.05 0 5.1 0 0 Z " fill="#F0FBFD" transform="translate(210,425)"/>
<path d="M0 0 C13.7920984 -0.41794238 13.7920984 -0.41794238 18 3 C18.54886514 7.39092112 18.47666082 9.28500878 16 13 C10.83608171 14.7213061 5.40708764 14.05353552 0 14 C0 9.38 0 4.76 0 0 Z " fill="#FBFEFE" transform="translate(559,425)"/>
<path d="M0 0 C2.31 0 4.62 0 7 0 C7 7.26 7 14.52 7 22 C7.99 22 8.98 22 10 22 C10 23.98 10 25.96 10 28 C3.9453125 28.1953125 3.9453125 28.1953125 2 28 C0 26 0 26 -0.22705078 23.38623047 C-0.21657715 22.30744629 -0.20610352 21.22866211 -0.1953125 20.1171875 C-0.18886719 18.95058594 -0.18242187 17.78398437 -0.17578125 16.58203125 C-0.15902344 15.35871094 -0.14226562 14.13539063 -0.125 12.875 C-0.11597656 11.64394531 -0.10695313 10.41289062 -0.09765625 9.14453125 C-0.07402548 6.09616185 -0.04108054 3.04817618 0 0 Z " fill="#B9BBBE" transform="translate(412,488)"/>
<path d="M0 0 C1.60800028 2.98108516 2.62185546 5.86692002 3.5078125 9.1328125 C3.77207031 10.10347656 4.03632813 11.07414062 4.30859375 12.07421875 C4.57800781 13.08097656 4.84742188 14.08773438 5.125 15.125 C5.40214844 16.13949219 5.67929687 17.15398437 5.96484375 18.19921875 C8 25.72829433 8 25.72829433 8 28 C3.05 28 -1.9 28 -7 28 C-4.66666667 18.66666667 -2.33333333 9.33333333 0 0 Z " fill="#F3FCFD" transform="translate(489,401)"/>
<path d="M0 0 C10.07203115 -0.60674886 10.07203115 -0.60674886 14.25 2.125 C16 5 16 5 16 8.1875 C15 11 15 11 12 13 C7.98500069 13.26874159 4.02862593 13.08663712 0 13 C0 8.71 0 4.42 0 0 Z " fill="#F3FBFD" transform="translate(210,400)"/>
<path d="M0 0 C11.35312252 -0.49361402 11.35312252 -0.49361402 14.390625 1.82421875 C16 4 16 4 16 7.0625 C14.835561 10.48303958 14.07912976 11.21955082 11 13 C7.28911458 13.38871006 3.74349839 13.13369637 0 13 C0 8.71 0 4.42 0 0 Z " fill="#F4FCFE" transform="translate(559,400)"/>
<path d="M0 0 C2.64 0 5.28 0 8 0 C8 6.6 8 13.2 8 20 C5.36 20 2.72 20 0 20 C0 13.4 0 6.8 0 0 Z " fill="#BCBEC1" transform="translate(444,496)"/>
<path d="M0 0 C1.32 0 2.64 0 4 0 C5.38125018 2.76250036 5.19079306 4.94731099 5 8 C4.34 8.66 3.68 9.32 3 10 C0.875 9.625 0.875 9.625 -1 9 C-1.09765625 2.84765625 -1.09765625 2.84765625 -1 1 C-0.67 0.67 -0.34 0.34 0 0 Z " fill="#FBFBFB" transform="translate(321,501)"/>
<path d="M0 0 C1.67542976 0.28604898 3.34385343 0.61781233 5 1 C5 3.31 5 5.62 5 8 C3.34385343 8.38218767 1.67542976 8.71395102 0 9 C-1 8 -1 8 -1.125 4.5 C-1 1 -1 1 0 0 Z " fill="#F9F9F9" transform="translate(491,501)"/>
<path d="M0 0 C1.4540625 0.0309375 1.4540625 0.0309375 2.9375 0.0625 C3.5625 2.4375 3.5625 2.4375 3.9375 5.0625 C3.2775 5.7225 2.6175 6.3825 1.9375 7.0625 C-0.6875 6.6875 -0.6875 6.6875 -3.0625 6.0625 C-3.44468767 4.40635343 -3.77645102 2.73792976 -4.0625 1.0625 C-3.0625 0.0625 -3.0625 0.0625 0 0 Z " fill="#BBBDC0" transform="translate(448.0625,486.9375)"/>
<path d="M0 0 C-0.66 1.32 -1.32 2.64 -2 4 C-4.31 4 -6.62 4 -9 4 C-8.67 3.01 -8.34 2.02 -8 1 C-2.25 0 -2.25 0 0 0 Z " fill="#EBECEC" transform="translate(496,514)"/>
</svg>
