<svg version="1.1" id="Layer_1" xmlns="http://www.w3.org/2000/svg" xmlns:xlink="http://www.w3.org/1999/xlink" x="0px" y="0px"
	 width="100%" viewBox="0 0 768 616" enable-background="new 0 0 768 616" xml:space="preserve">
<path fill="#FFFFFF" opacity="1.000000" stroke="none" 
	d="
M469.000000,617.000000 
	C312.666656,617.000000 156.833328,617.000000 1.000000,617.000000 
	C1.000000,411.666656 1.000000,206.333328 1.000000,1.000000 
	C257.000000,1.000000 513.000000,1.000000 769.000000,1.000000 
	C769.000000,206.333328 769.000000,411.666656 769.000000,617.000000 
	C669.166687,617.000000 569.333313,617.000000 469.000000,617.000000 
M495.999878,516.000000 
	C495.999878,516.000000 496.005463,516.004822 495.923767,516.747803 
	C493.718506,517.370483 491.437805,518.672791 489.327667,518.438477 
	C486.860718,518.164612 484.967010,517.844910 484.337006,520.697937 
	C483.556213,524.233765 486.396515,523.713257 488.401733,524.091919 
	C489.379700,524.276611 490.331116,524.639282 491.314087,524.754089 
	C497.061890,525.425171 503.443359,521.945496 503.798889,517.228333 
	C504.294220,510.656006 503.923584,504.018433 503.923584,497.007690 
	C501.965240,497.007690 500.503967,497.044769 499.045410,496.997528 
	C497.490997,496.947205 495.851776,497.105896 494.402588,496.667511 
	C490.055542,495.352661 485.864044,497.000549 484.125702,501.148132 
	C482.347412,505.391052 482.403442,509.638977 485.158936,513.471130 
	C487.964050,517.372375 492.024475,516.671326 495.999878,516.000000 
M544.965637,90.286110 
	C539.970398,90.143143 534.971191,89.799179 529.980835,89.899620 
	C520.003967,90.100426 509.950165,89.873337 500.080963,91.076653 
	C490.145935,92.288010 484.248749,99.001442 483.912506,109.004814 
	C483.471191,122.132996 484.432709,135.311935 483.890076,148.431808 
	C483.546570,156.737762 485.258789,163.517288 491.992615,168.662796 
	C494.318085,170.439774 494.542694,172.341644 493.152557,175.111191 
	C475.690186,209.902222 458.398712,244.779144 440.875854,279.539459 
	C440.072540,281.133026 437.545990,282.685272 435.732574,282.796265 
	C428.591309,283.233521 421.406525,283.296173 414.255188,283.031189 
	C412.052979,282.949585 409.365753,281.929077 407.820221,280.405548 
	C396.786957,269.529816 385.921112,258.480194 375.208649,247.288116 
	C373.847107,245.865585 373.095520,243.305435 373.063171,241.256516 
	C372.884491,229.944519 373.394104,218.611801 372.920044,207.317551 
	C372.555908,198.641953 364.754974,190.578506 356.155243,190.147430 
	C344.715027,189.573975 333.200867,189.517517 321.765106,190.121658 
	C312.825928,190.593918 305.314941,198.850357 305.074493,207.821045 
	C304.771271,219.133453 305.223663,230.464981 305.016754,241.782166 
	C304.978638,243.867310 303.916077,246.614395 302.365906,247.872513 
	C295.907043,253.114441 288.841797,257.618073 282.467041,262.951935 
	C277.526031,267.086182 272.327789,268.470917 266.011444,268.072357 
	C258.232727,267.581512 250.378418,267.528748 242.602478,268.015991 
	C237.215851,268.353455 234.191330,272.006409 234.037827,277.344696 
	C233.784500,286.155182 233.591431,294.983917 233.878555,303.788513 
	C234.141495,311.851837 237.438293,315.200226 245.620300,315.652496 
	C253.424759,316.083862 261.283051,316.086609 269.092834,315.731659 
	C277.923492,315.330261 281.851044,310.798492 281.817017,301.836334 
	C281.791718,295.173340 281.729523,288.506226 281.459869,281.850006 
	C281.304779,278.021393 282.454803,275.369598 285.806946,273.108612 
	C292.703857,268.456696 299.359680,263.429291 305.931000,258.320129 
	C309.464111,255.573181 312.521545,253.128677 317.173126,256.511444 
	C318.872284,257.747131 321.646271,257.839508 323.937531,257.869232 
	C334.594238,258.007507 345.256317,257.817902 355.909851,258.049255 
	C358.103241,258.096924 360.840973,258.841766 362.355103,260.285431 
	C373.447052,270.861023 384.391174,281.598633 395.111572,292.549805 
	C396.828339,294.303467 397.988953,297.360626 398.047791,299.847351 
	C398.307922,310.835785 398.013092,321.836121 398.033569,332.831909 
	C398.049133,341.179108 404.304718,349.240204 412.531250,349.946503 
	C423.449463,350.883850 434.466461,351.015259 445.435944,350.919037 
	C457.583069,350.812531 465.022522,343.570160 465.701050,331.442932 
	C466.156525,323.301971 465.770782,315.116486 466.122650,306.966492 
	C466.441650,299.577362 464.542664,293.144135 459.362061,287.797913 
	C457.544403,285.922089 457.194244,284.229614 458.488403,281.649109 
	C476.163361,246.406555 493.727631,211.108322 511.222382,175.775879 
	C512.622620,172.947922 514.531250,171.945679 517.513794,172.028030 
	C524.506531,172.221115 531.503906,172.240524 538.498413,172.381287 
	C557.020874,172.754013 564.556702,165.846176 565.029541,147.420990 
	C565.328308,135.778244 565.277893,124.115852 564.995972,112.471687 
	C564.676636,99.284462 558.922424,92.893906 544.965637,90.286110 
M496.194611,348.421539 
	C499.394470,349.652679 502.546875,351.783081 505.802704,351.954926 
	C518.080994,352.603119 530.411072,353.142914 542.687378,352.721283 
	C555.970642,352.265045 564.639404,343.582214 564.934143,331.307800 
	C565.197876,320.322113 565.245911,309.313538 564.854553,298.334137 
	C564.334106,283.733154 556.493958,276.188721 541.900085,275.925690 
	C530.953674,275.728363 519.980347,276.321442 509.056122,275.794128 
	C498.541260,275.286469 488.950928,284.685913 488.079590,295.804047 
	C487.430847,304.081512 486.996307,312.425323 487.271942,320.712799 
	C487.595184,330.431488 487.316345,340.580017 496.194611,348.421539 
M350.973572,91.175003 
	C341.546722,93.850304 336.101746,100.084122 335.767120,109.843719 
	C335.397278,120.630150 335.533112,131.453430 335.944916,142.241745 
	C336.372559,153.443741 344.050293,161.303253 355.307709,161.798904 
	C365.942688,162.267151 376.633820,162.288406 387.265259,161.777695 
	C398.247162,161.250168 406.135651,154.139420 406.674255,143.269836 
	C407.289673,130.850204 406.744629,118.325974 405.917603,105.899513 
	C405.416504,98.369392 399.127136,91.833832 391.601318,91.420479 
	C378.363037,90.693352 365.062347,91.102821 350.973572,91.175003 
M208.502686,455.643280 
	C215.314987,455.417297 222.169266,455.588196 228.929855,454.873230 
	C239.335022,453.772827 246.404175,447.202911 247.639679,437.759125 
	C248.712799,429.556580 245.141846,423.338959 237.856949,419.019989 
	C244.477661,413.681824 246.437637,407.211304 244.229553,399.587585 
	C242.066940,392.120911 236.272614,387.968414 229.218903,387.480225 
	C217.345413,386.658539 205.373749,387.255127 193.310150,387.255127 
	C193.310150,409.741455 193.310150,432.453491 193.310150,455.642731 
	C198.243454,455.642731 202.874573,455.642731 208.502686,455.643280 
M595.931335,429.770996 
	C593.300354,425.765289 590.669434,421.759583 588.077209,417.812866 
	C589.433105,415.618011 591.862610,412.909058 592.927368,409.741394 
	C596.734314,398.414948 589.883667,387.904846 576.644958,386.563934 
	C565.338135,385.418701 553.823364,386.327087 542.264832,386.327087 
	C542.264832,409.197266 542.264832,431.868744 542.264832,454.001038 
	C554.885376,454.001038 567.236267,454.958252 579.367249,453.734558 
	C591.754761,452.485016 598.303955,442.205597 595.931335,429.770996 
M408.905823,171.060760 
	C402.120941,173.224731 397.440857,177.459595 397.152100,184.862610 
	C396.808624,193.668365 396.839752,202.508438 397.179535,211.315445 
	C397.501312,219.656525 403.165558,225.493820 411.405487,225.838791 
	C420.365051,226.213898 429.365631,226.206970 438.324646,225.819458 
	C446.172974,225.479980 451.743256,219.726135 451.993195,211.988129 
	C452.282806,203.022156 452.322083,194.035263 452.071228,185.068604 
	C451.857758,177.437241 446.344757,171.400574 438.610046,171.002365 
	C429.006897,170.507980 419.356323,170.933960 408.905823,171.060760 
M383.067352,421.492035 
	C383.067352,409.904327 383.067352,398.316589 383.067352,386.665985 
	C376.654297,386.665985 370.934479,386.665985 364.878601,386.665985 
	C364.878601,390.365479 364.890137,393.680847 364.876495,396.996094 
	C364.831360,407.984406 365.128479,418.989471 364.605682,429.955261 
	C364.243805,437.545410 360.021088,441.244507 353.750702,440.960663 
	C347.342468,440.670624 343.923798,436.755157 343.749878,429.100494 
	C343.594818,422.276306 343.702728,415.446075 343.699585,408.618530 
	C343.696259,401.346680 343.698853,394.074829 343.698853,386.668335 
	C337.182526,386.668335 331.305359,386.668335 325.544067,386.668335 
	C325.337128,387.372864 325.163300,387.689575 325.162598,388.006683 
	C325.134308,401.161926 325.081696,414.317291 325.116699,427.472443 
	C325.162689,444.763123 333.156555,454.438568 350.163940,456.503113 
	C364.994202,458.303314 380.077728,452.202240 382.724426,433.957245 
	C383.270020,430.196503 382.975006,426.313812 383.067352,421.492035 
M488.551239,443.537872 
	C492.522736,443.661102 497.233002,442.533875 500.230927,444.305023 
	C502.609436,445.710205 502.883179,450.667847 504.118195,454.038361 
	C504.217682,454.309937 504.524048,454.505737 504.527161,454.509155 
	C510.809448,454.509155 516.836548,454.509155 523.238037,454.509155 
	C522.667297,452.279846 522.282410,450.517792 521.765076,448.795532 
	C516.081116,429.873718 510.187958,411.011444 504.806335,392.004303 
	C503.412201,387.080444 501.294800,385.304993 496.251587,385.867859 
	C491.815277,386.362976 487.267456,386.176483 482.792816,385.901337 
	C479.674866,385.709656 478.510468,386.934296 477.656433,389.815430 
	C473.221069,404.777954 468.547302,419.669830 463.964447,434.588715 
	C461.935822,441.192596 459.925690,447.802155 457.748932,454.927124 
	C463.268188,454.927124 468.088989,454.704132 472.876801,455.005524 
	C476.070862,455.206543 477.185730,453.832428 477.894836,451.024017 
	C479.790375,443.517181 479.884247,443.540894 488.551239,443.537872 
M306.994415,326.475677 
	C307.199158,330.288757 307.148376,334.136566 307.661530,337.907684 
	C308.749176,345.900391 313.406708,350.437469 321.560272,350.833557 
	C329.689117,351.228455 337.863403,351.178833 345.997070,350.834900 
	C352.960632,350.540436 358.522827,345.701904 358.902679,339.195129 
	C359.443359,329.933685 359.569397,320.602692 359.092224,311.341614 
	C358.713226,303.986115 353.480865,299.288177 345.964478,298.988007 
	C337.517029,298.650665 329.037231,298.692200 320.586792,298.995056 
	C313.753754,299.239960 309.309143,302.819305 307.996094,309.636902 
	C307.002991,314.793365 307.279724,320.194427 306.994415,326.475677 
M280.729492,187.816101 
	C280.490753,185.499268 280.393158,183.157288 279.985901,180.870483 
	C278.912079,174.840942 274.375580,170.314590 268.552032,170.107101 
	C260.736420,169.828598 252.894028,169.828781 245.080109,170.138245 
	C239.783539,170.348007 234.435944,175.045547 234.157349,180.183365 
	C233.690475,188.793823 233.562027,197.480164 234.184891,206.069763 
	C234.535477,210.904434 237.782074,215.207199 242.949310,215.738876 
	C251.028992,216.570282 259.235046,216.882187 267.345093,216.503860 
	C274.918457,216.150604 279.356079,211.344650 280.157471,203.695068 
	C280.675812,198.746918 280.562927,193.732635 280.729492,187.816101 
M513.813904,235.386703 
	C515.918091,241.835495 519.015381,244.716675 525.015808,244.913895 
	C531.331787,245.121475 537.680298,245.105652 543.984314,244.708084 
	C551.040710,244.263092 554.764648,240.890839 555.431763,233.862076 
	C556.042603,227.426208 556.007751,220.889786 555.734497,214.419739 
	C555.425720,207.108978 551.526428,202.985321 544.215820,202.461136 
	C537.759277,201.998199 531.222656,202.022446 524.760681,202.439743 
	C518.090515,202.870483 514.273865,206.397842 513.726562,213.155670 
	C513.152161,220.248962 513.630005,227.427460 513.813904,235.386703 
M415.402405,386.290131 
	C411.777588,386.290131 408.152771,386.290131 404.358093,386.290131 
	C404.358093,409.523254 404.358093,432.212860 404.358093,454.787872 
	C419.439453,454.787872 434.153595,454.787872 448.844238,454.787872 
	C448.844238,449.445312 448.844238,444.528870 448.844238,438.921509 
	C439.843079,438.921509 431.143951,438.921509 422.088196,438.921509 
	C422.088196,421.126190 422.088196,404.024445 422.088196,386.290527 
	C419.916229,386.290527 418.134918,386.290527 415.402405,386.290131 
M267.927338,425.500000 
	C267.927338,435.557892 267.927338,445.615753 267.927338,455.664978 
	C283.350098,455.664978 297.926849,455.664978 312.769348,455.664978 
	C312.769348,450.373169 312.769348,445.334930 312.769348,439.655823 
	C303.764618,439.655823 295.058746,439.655823 285.909119,439.655823 
	C285.909119,421.798309 285.909119,404.578033 285.909119,387.313812 
	C279.710266,387.313812 273.992126,387.313812 267.927277,387.313812 
	C267.927277,399.934692 267.927277,412.217346 267.927338,425.500000 
M444.526978,107.167030 
	C442.536469,107.244064 440.518890,107.138458 438.560089,107.429230 
	C429.293610,108.804764 426.268646,111.126160 425.433899,118.838982 
	C424.829346,124.424850 424.890259,130.160706 425.380066,135.766266 
	C425.927185,142.027222 430.066132,146.349197 435.811920,146.753036 
	C441.768219,147.171661 447.818237,147.233627 453.753296,146.671341 
	C458.558990,146.216034 463.076996,143.946915 463.790070,138.484543 
	C464.581635,132.420715 464.961182,126.233498 464.749878,120.126648 
	C464.504700,113.039200 460.346588,108.939102 453.366791,107.881432 
	C450.754700,107.485619 448.096252,107.395615 444.526978,107.167030 
M294.331665,171.508057 
	C300.633392,171.350723 306.954468,171.443527 313.230713,170.957382 
	C318.311188,170.563858 321.611816,167.213837 321.846100,162.256989 
	C322.152069,155.782578 322.082581,149.277466 321.865753,142.795914 
	C321.723694,138.548584 319.328003,134.977829 315.195404,134.528503 
	C307.998352,133.746002 300.622528,133.344101 293.443573,134.040298 
	C287.190430,134.646713 284.351044,138.804520 284.119995,145.095856 
	C283.949097,149.749710 283.967255,154.417480 284.095245,159.073700 
	C284.290222,166.166748 286.558441,169.012497 294.331665,171.508057 
M303.944733,105.080757 
	C303.925568,98.982941 304.373077,92.835350 303.729614,86.804131 
	C303.270721,82.502197 300.292389,79.775734 295.396210,79.918869 
	C290.574341,80.059830 285.745087,79.978409 280.919403,79.946312 
	C276.085449,79.914154 273.182587,82.648491 272.790619,87.047440 
	C272.278107,92.798264 272.240753,98.694092 272.972931,104.402618 
	C273.265686,106.685486 275.981262,110.244987 277.890137,110.448746 
	C284.844635,111.191078 291.947632,111.073051 298.939606,110.547218 
	C300.617401,110.421028 302.082886,107.471542 303.944733,105.080757 
M247.257782,122.346703 
	C247.489197,120.216606 247.901215,118.088341 247.922745,115.956123 
	C248.063858,101.984871 246.596878,100.625496 232.537247,100.873207 
	C228.274323,100.948311 224.210556,101.580040 223.077774,106.330856 
	C221.605133,112.506966 221.694016,118.729660 225.022476,124.492157 
	C225.095993,124.619446 225.299438,124.668449 225.436005,124.763008 
	C230.582169,128.326096 241.911331,127.450775 247.257782,122.346703 
M284.032715,497.863068 
	C283.720154,499.322357 283.259430,500.767700 283.120209,502.243347 
	C282.447998,509.367218 287.223938,516.209290 293.812195,517.687378 
	C300.110321,519.100342 306.153076,515.889893 308.636597,509.621979 
	C306.703766,508.796173 304.764282,507.967499 302.913696,507.176788 
	C298.427002,511.609863 294.779083,512.346008 292.847168,509.059662 
	C290.605286,505.245941 290.402313,501.067993 292.967621,497.286194 
	C294.692261,494.743713 297.599640,493.792633 299.749451,496.288300 
	C303.072754,500.146271 305.678680,498.037262 308.774780,496.249969 
	C306.659302,490.663086 302.212646,488.311005 297.058929,488.387268 
	C291.263977,488.473053 286.575867,491.370209 284.032715,497.863068 
M351.989990,511.452423 
	C352.071381,513.214417 352.152802,514.976440 352.250641,517.094666 
	C355.028748,516.965759 357.242798,516.863037 359.792847,516.744690 
	C359.792847,512.048523 360.029022,507.899567 359.726837,503.790161 
	C359.420868,499.629639 357.480133,496.166473 352.799377,496.150055 
	C348.418213,496.134644 344.034149,496.943573 339.446350,497.410583 
	C339.446350,503.911469 339.446350,510.274506 339.446350,516.667175 
	C342.063873,516.667175 344.278717,516.667175 346.937286,516.667175 
	C346.937286,512.806824 346.726074,509.326294 347.044861,505.894958 
	C347.166412,504.586700 348.503510,503.391357 349.286682,502.144562 
	C350.186829,503.441162 351.415588,504.628906 351.891602,506.065979 
	C352.338287,507.414398 351.989014,509.026459 351.989990,511.452423 
M313.083374,509.031738 
	C315.120026,515.058411 318.511017,517.937195 323.581177,517.943787 
	C328.930298,517.950745 332.399719,515.448730 334.037933,510.402710 
	C335.607819,505.567139 334.250366,500.793152 330.347229,497.974945 
	C326.785858,495.403473 322.816620,495.172974 319.019440,497.112091 
	C314.622620,499.357452 312.538635,503.169647 313.083374,509.031738 
M458.038635,508.464966 
	C458.038635,511.218475 458.038635,513.971985 458.038635,517.108826 
	C461.116241,516.967896 463.334442,516.866333 465.913513,516.748230 
	C465.913513,512.700867 465.694611,509.207001 466.027191,505.766479 
	C466.150818,504.487366 467.565857,503.333069 468.391968,502.121857 
	C469.246796,503.309937 470.721191,504.440063 470.838806,505.697113 
	C471.173920,509.278931 470.956482,512.912476 470.956482,516.653564 
	C473.633301,516.653564 475.661041,516.653564 478.029053,516.653564 
	C478.029053,511.442078 478.152405,506.639008 477.990417,501.845581 
	C477.858459,497.940033 475.099823,496.138092 471.678253,496.154602 
	C467.296875,496.175751 462.919098,496.942474 458.038727,497.438873 
	C458.038727,500.906067 458.038727,504.195618 458.038635,508.464966 
M394.818176,498.900970 
	C392.550751,498.037048 390.283325,497.173126 387.125397,495.969940 
	C387.125397,502.238953 386.424042,507.153748 387.411530,511.701874 
	C387.931000,514.094360 391.204468,517.241516 393.585632,517.580444 
	C397.834503,518.185242 402.349609,516.919373 406.754761,516.435608 
	C406.754761,509.942474 406.754761,503.713593 406.754761,497.306274 
	C404.409943,497.306274 402.390350,497.306274 399.932220,497.306274 
	C399.932220,501.161133 400.158600,504.642212 399.816315,508.066376 
	C399.686646,509.363495 398.245880,510.529480 397.402740,511.755249 
	C396.562500,510.592926 395.164337,509.505615 394.995941,508.252960 
	C394.623352,505.481415 394.869019,502.626709 394.818176,498.900970 
M426.600464,496.158020 
	C426.128571,497.725433 424.951691,500.478516 425.291595,500.680634 
	C429.651733,503.273041 427.646301,507.410522 428.068939,510.901794 
	C428.740234,516.447083 434.214294,519.643799 439.031281,516.900452 
	C439.938568,516.383789 439.704315,513.862732 439.996796,512.266541 
	C433.463013,511.237061 436.708801,506.321533 436.187927,503.742340 
	C438.030548,501.907166 440.692963,500.257996 440.468231,499.256866 
	C440.079407,497.524475 437.900421,496.193909 436.078094,494.280884 
	C435.942474,493.398376 435.698792,491.812805 435.481812,490.401001 
	C430.344055,489.117859 427.993927,491.286713 426.600464,496.158020 
M376.029907,504.541077 
	C374.859680,504.017670 373.689484,503.494232 372.519287,502.970795 
	C372.651123,502.573395 372.782990,502.175995 372.914856,501.778595 
	C374.994812,502.037109 377.074738,502.295624 379.469604,502.593262 
	C380.213837,501.397552 381.057800,500.041565 381.908997,498.673950 
	C375.150757,494.829071 368.350006,495.031372 365.987091,499.665070 
	C361.635315,508.199097 370.367188,508.291840 374.602142,511.229218 
	C371.503052,514.122192 365.173859,507.379242 364.247711,516.350525 
	C368.103455,516.766479 372.086395,518.017151 375.673553,517.296875 
	C378.098053,516.810059 380.988495,513.900818 381.837830,511.441986 
	C383.062531,507.896484 380.113861,505.776978 376.029907,504.541077 
M420.063049,494.641754 
	C419.978241,492.887970 419.893402,491.134186 419.807007,489.347839 
	C417.331421,489.347839 415.420715,489.347839 412.928314,489.347839 
	C412.928314,493.745453 412.923584,497.846832 412.929688,501.948212 
	C412.935120,505.596405 412.474731,509.338348 413.164154,512.853699 
	C413.514709,514.640991 415.697662,516.549561 417.520416,517.399780 
	C418.751678,517.974121 420.799683,516.797363 422.482330,516.403870 
	C421.976532,514.697388 421.446930,512.997559 420.973022,511.282257 
	C420.631714,510.046814 420.141357,508.797150 420.105957,507.542847 
	C419.993713,503.565948 420.063690,499.583954 420.063049,494.641754 
M451.879608,496.736206 
	C449.201477,496.192078 445.638062,494.709167 445.220764,498.940216 
	C444.641296,504.815582 445.075073,510.790894 445.075073,516.635864 
	C448.080902,516.635864 450.301849,516.635864 452.921234,516.635864 
	C452.921234,511.562653 452.957550,506.920135 452.901733,502.278748 
	C452.881927,500.632050 452.637909,498.988068 451.879608,496.736206 
M450.054016,494.862701 
	C450.935242,493.160004 451.816467,491.457306 452.697693,489.754578 
	C451.185883,489.012634 449.514282,487.486816 448.208069,487.753113 
	C446.945648,488.010498 444.931946,490.617737 445.238495,491.304504 
	C445.917786,492.826416 447.845001,493.791321 450.054016,494.862701 
z"/>
<path fill="#2F86C5" opacity="1.000000" stroke="none" 
	d="
M545.404541,90.341751 
	C558.922424,92.893906 564.676636,99.284462 564.995972,112.471687 
	C565.277893,124.115852 565.328308,135.778244 565.029541,147.420990 
	C564.556702,165.846176 557.020874,172.754013 538.498413,172.381287 
	C531.503906,172.240524 524.506531,172.221115 517.513794,172.028030 
	C514.531250,171.945679 512.622620,172.947922 511.222382,175.775879 
	C493.727631,211.108322 476.163361,246.406555 458.488403,281.649109 
	C457.194244,284.229614 457.544403,285.922089 459.362061,287.797913 
	C464.542664,293.144135 466.441650,299.577362 466.122650,306.966492 
	C465.770782,315.116486 466.156525,323.301971 465.701050,331.442932 
	C465.022522,343.570160 457.583069,350.812531 445.435944,350.919037 
	C434.466461,351.015259 423.449463,350.883850 412.531250,349.946503 
	C404.304718,349.240204 398.049133,341.179108 398.033569,332.831909 
	C398.013092,321.836121 398.307922,310.835785 398.047791,299.847351 
	C397.988953,297.360626 396.828339,294.303467 395.111572,292.549805 
	C384.391174,281.598633 373.447052,270.861023 362.355103,260.285431 
	C360.840973,258.841766 358.103241,258.096924 355.909851,258.049255 
	C345.256317,257.817902 334.594238,258.007507 323.937531,257.869232 
	C321.646271,257.839508 318.872284,257.747131 317.173126,256.511444 
	C312.521545,253.128677 309.464111,255.573181 305.931000,258.320129 
	C299.359680,263.429291 292.703857,268.456696 285.806946,273.108612 
	C282.454803,275.369598 281.304779,278.021393 281.459869,281.850006 
	C281.729523,288.506226 281.791718,295.173340 281.817017,301.836334 
	C281.851044,310.798492 277.923492,315.330261 269.092834,315.731659 
	C261.283051,316.086609 253.424759,316.083862 245.620300,315.652496 
	C237.438293,315.200226 234.141495,311.851837 233.878555,303.788513 
	C233.591431,294.983917 233.784500,286.155182 234.037827,277.344696 
	C234.191330,272.006409 237.215851,268.353455 242.602478,268.015991 
	C250.378418,267.528748 258.232727,267.581512 266.011444,268.072357 
	C272.327789,268.470917 277.526031,267.086182 282.467041,262.951935 
	C288.841797,257.618073 295.907043,253.114441 302.365906,247.872513 
	C303.916077,246.614395 304.978638,243.867310 305.016754,241.782166 
	C305.223663,230.464981 304.771271,219.133453 305.074493,207.821045 
	C305.314941,198.850357 312.825928,190.593918 321.765106,190.121658 
	C333.200867,189.517517 344.715027,189.573975 356.155243,190.147430 
	C364.754974,190.578506 372.555908,198.641953 372.920044,207.317551 
	C373.394104,218.611801 372.884491,229.944519 373.063171,241.256516 
	C373.095520,243.305435 373.847107,245.865585 375.208649,247.288116 
	C385.921112,258.480194 396.786957,269.529816 407.820221,280.405548 
	C409.365753,281.929077 412.052979,282.949585 414.255188,283.031189 
	C421.406525,283.296173 428.591309,283.233521 435.732574,282.796265 
	C437.545990,282.685272 440.072540,281.133026 440.875854,279.539459 
	C458.398712,244.779144 475.690186,209.902222 493.152557,175.111191 
	C494.542694,172.341644 494.318085,170.439774 491.992615,168.662796 
	C485.258789,163.517288 483.546570,156.737762 483.890076,148.431808 
	C484.432709,135.311935 483.471191,122.132996 483.912506,109.004814 
	C484.248749,99.001442 490.145935,92.288010 500.080963,91.076653 
	C509.950165,89.873337 520.003967,90.100426 529.980835,89.899620 
	C534.971191,89.799179 539.970398,90.143143 545.404541,90.341751 
z"/>
<path fill="#B3B5B6" opacity="1.000000" stroke="none" 
	d="
M495.912415,348.185577 
	C487.316345,340.580017 487.595184,330.431488 487.271942,320.712799 
	C486.996307,312.425323 487.430847,304.081512 488.079590,295.804047 
	C488.950928,284.685913 498.541260,275.286469 509.056122,275.794128 
	C519.980347,276.321442 530.953674,275.728363 541.900085,275.925690 
	C556.493958,276.188721 564.334106,283.733154 564.854553,298.334137 
	C565.245911,309.313538 565.197876,320.322113 564.934143,331.307800 
	C564.639404,343.582214 555.970642,352.265045 542.687378,352.721283 
	C530.411072,353.142914 518.080994,352.603119 505.802704,351.954926 
	C502.546875,351.783081 499.394470,349.652679 495.912415,348.185577 
z"/>
<path fill="#2CCAED" opacity="1.000000" stroke="none" 
	d="
M351.380676,91.105667 
	C365.062347,91.102821 378.363037,90.693352 391.601318,91.420479 
	C399.127136,91.833832 405.416504,98.369392 405.917603,105.899513 
	C406.744629,118.325974 407.289673,130.850204 406.674255,143.269836 
	C406.135651,154.139420 398.247162,161.250168 387.265259,161.777695 
	C376.633820,162.288406 365.942688,162.267151 355.307709,161.798904 
	C344.050293,161.303253 336.372559,153.443741 335.944916,142.241745 
	C335.533112,131.453430 335.397278,120.630150 335.767120,109.843719 
	C336.101746,100.084122 341.546722,93.850304 351.380676,91.105667 
z"/>
<path fill="#2FCAED" opacity="1.000000" stroke="none" 
	d="
M208.004181,455.643005 
	C202.874573,455.642731 198.243454,455.642731 193.310150,455.642731 
	C193.310150,432.453491 193.310150,409.741455 193.310150,387.255127 
	C205.373749,387.255127 217.345413,386.658539 229.218903,387.480225 
	C236.272614,387.968414 242.066940,392.120911 244.229553,399.587585 
	C246.437637,407.211304 244.477661,413.681824 237.856949,419.019989 
	C245.141846,423.338959 248.712799,429.556580 247.639679,437.759125 
	C246.404175,447.202911 239.335022,453.772827 228.929855,454.873230 
	C222.169266,455.588196 215.314987,455.417297 208.004181,455.643005 
M229.563004,434.299438 
	C228.373871,426.876068 221.554977,424.227631 211.534927,427.300385 
	C211.534927,431.688293 211.534927,436.076172 211.534927,440.800140 
	C215.349869,440.800140 218.822189,441.031769 222.248886,440.735535 
	C225.733658,440.434296 228.683426,439.008392 229.563004,434.299438 
M211.170456,403.855408 
	C211.170456,407.148346 211.170456,410.441284 211.170456,413.619568 
	C218.443680,415.528381 224.212479,414.403717 226.024139,410.854675 
	C227.606262,407.755341 226.930130,405.008759 224.314529,402.853149 
	C221.345734,400.406433 213.999847,400.553223 211.170456,403.855408 
z"/>
<path fill="#2FCAED" opacity="1.000000" stroke="none" 
	d="
M595.999817,430.162903 
	C598.303955,442.205597 591.754761,452.485016 579.367249,453.734558 
	C567.236267,454.958252 554.885376,454.001038 542.264832,454.001038 
	C542.264832,431.868744 542.264832,409.197266 542.264832,386.327087 
	C553.823364,386.327087 565.338135,385.418701 576.644958,386.563934 
	C589.883667,387.904846 596.734314,398.414948 592.927368,409.741394 
	C591.862610,412.909058 589.433105,415.618011 588.077209,417.812866 
	C590.669434,421.759583 593.300354,425.765289 595.999817,430.162903 
M560.863770,439.802734 
	C564.660400,439.834656 568.491089,440.194977 572.243896,439.805023 
	C575.916504,439.423462 578.151978,437.157196 578.204102,433.127869 
	C578.255737,429.129242 576.171692,426.674438 572.481873,426.251801 
	C568.484070,425.793823 564.393188,426.147980 560.244263,426.147980 
	C560.244263,430.876007 560.244263,434.992035 560.863770,439.802734 
M573.084351,402.029633 
	C568.954285,401.486938 564.824219,400.944244 560.428345,400.366608 
	C560.428345,405.424500 560.428345,409.436554 560.428345,413.821777 
	C563.248779,413.821777 565.712830,413.961975 568.155823,413.795105 
	C575.058411,413.323639 577.372559,408.555237 573.084351,402.029633 
z"/>
<path fill="#3086C5" opacity="1.000000" stroke="none" 
	d="
M409.316040,171.011581 
	C419.356323,170.933960 429.006897,170.507980 438.610046,171.002365 
	C446.344757,171.400574 451.857758,177.437241 452.071228,185.068604 
	C452.322083,194.035263 452.282806,203.022156 451.993195,211.988129 
	C451.743256,219.726135 446.172974,225.479980 438.324646,225.819458 
	C429.365631,226.206970 420.365051,226.213898 411.405487,225.838791 
	C403.165558,225.493820 397.501312,219.656525 397.179535,211.315445 
	C396.839752,202.508438 396.808624,193.668365 397.152100,184.862610 
	C397.440857,177.459595 402.120941,173.224731 409.316040,171.011581 
z"/>
<path fill="#32CBED" opacity="1.000000" stroke="none" 
	d="
M383.067383,421.989685 
	C382.975006,426.313812 383.270020,430.196503 382.724426,433.957245 
	C380.077728,452.202240 364.994202,458.303314 350.163940,456.503113 
	C333.156555,454.438568 325.162689,444.763123 325.116699,427.472443 
	C325.081696,414.317291 325.134308,401.161926 325.162598,388.006683 
	C325.163300,387.689575 325.337128,387.372864 325.544067,386.668335 
	C331.305359,386.668335 337.182526,386.668335 343.698853,386.668335 
	C343.698853,394.074829 343.696259,401.346680 343.699585,408.618530 
	C343.702728,415.446075 343.594818,422.276306 343.749878,429.100494 
	C343.923798,436.755157 347.342468,440.670624 353.750702,440.960663 
	C360.021088,441.244507 364.243805,437.545410 364.605682,429.955261 
	C365.128479,418.989471 364.831360,407.984406 364.876495,396.996094 
	C364.890137,393.680847 364.878601,390.365479 364.878601,386.665985 
	C370.934479,386.665985 376.654297,386.665985 383.067352,386.665985 
	C383.067352,398.316589 383.067352,409.904327 383.067383,421.989685 
z"/>
<path fill="#30CBED" opacity="1.000000" stroke="none" 
	d="
M488.065918,443.537506 
	C479.884247,443.540894 479.790375,443.517181 477.894836,451.024017 
	C477.185730,453.832428 476.070862,455.206543 472.876801,455.005524 
	C468.088989,454.704132 463.268188,454.927124 457.748932,454.927124 
	C459.925690,447.802155 461.935822,441.192596 463.964447,434.588715 
	C468.547302,419.669830 473.221069,404.777954 477.656433,389.815430 
	C478.510468,386.934296 479.674866,385.709656 482.792816,385.901337 
	C487.267456,386.176483 491.815277,386.362976 496.251587,385.867859 
	C501.294800,385.304993 503.412201,387.080444 504.806335,392.004303 
	C510.187958,411.011444 516.081116,429.873718 521.765076,448.795532 
	C522.282410,450.517792 522.667297,452.279846 523.238037,454.509155 
	C516.836548,454.509155 510.809448,454.509155 504.527161,454.509155 
	C504.524048,454.505737 504.217682,454.309937 504.118195,454.038361 
	C502.883179,450.667847 502.609436,445.710205 500.230927,444.305023 
	C497.233002,442.533875 492.522736,443.661102 488.065918,443.537506 
M486.075958,429.912292 
	C489.814117,429.912292 493.552246,429.912292 497.810425,429.912292 
	C495.365112,420.398438 493.109375,411.622284 490.520386,401.549469 
	C488.075104,410.961151 485.913574,419.074463 483.937836,427.232788 
	C483.758301,427.974304 484.772461,429.004944 486.075958,429.912292 
z"/>
<path fill="#2CC9EE" opacity="1.000000" stroke="none" 
	d="
M306.992859,325.981140 
	C307.279724,320.194427 307.002991,314.793365 307.996094,309.636902 
	C309.309143,302.819305 313.753754,299.239960 320.586792,298.995056 
	C329.037231,298.692200 337.517029,298.650665 345.964478,298.988007 
	C353.480865,299.288177 358.713226,303.986115 359.092224,311.341614 
	C359.569397,320.602692 359.443359,329.933685 358.902679,339.195129 
	C358.522827,345.701904 352.960632,350.540436 345.997070,350.834900 
	C337.863403,351.178833 329.689117,351.228455 321.560272,350.833557 
	C313.406708,350.437469 308.749176,345.900391 307.661530,337.907684 
	C307.148376,334.136566 307.199158,330.288757 306.992859,325.981140 
z"/>
<path fill="#2ECBED" opacity="1.000000" stroke="none" 
	d="
M280.731201,188.282043 
	C280.562927,193.732635 280.675812,198.746918 280.157471,203.695068 
	C279.356079,211.344650 274.918457,216.150604 267.345093,216.503860 
	C259.235046,216.882187 251.028992,216.570282 242.949310,215.738876 
	C237.782074,215.207199 234.535477,210.904434 234.184891,206.069763 
	C233.562027,197.480164 233.690475,188.793823 234.157349,180.183365 
	C234.435944,175.045547 239.783539,170.348007 245.080109,170.138245 
	C252.894028,169.828781 260.736420,169.828598 268.552032,170.107101 
	C274.375580,170.314590 278.912079,174.840942 279.985901,180.870483 
	C280.393158,183.157288 280.490753,185.499268 280.731201,188.282043 
z"/>
<path fill="#2ECBED" opacity="1.000000" stroke="none" 
	d="
M513.730957,234.977722 
	C513.630005,227.427460 513.152161,220.248962 513.726562,213.155670 
	C514.273865,206.397842 518.090515,202.870483 524.760681,202.439743 
	C531.222656,202.022446 537.759277,201.998199 544.215820,202.461136 
	C551.526428,202.985321 555.425720,207.108978 555.734497,214.419739 
	C556.007751,220.889786 556.042603,227.426208 555.431763,233.862076 
	C554.764648,240.890839 551.040710,244.263092 543.984314,244.708084 
	C537.680298,245.105652 531.331787,245.121475 525.015808,244.913895 
	C519.015381,244.716675 515.918091,241.835495 513.730957,234.977722 
z"/>
<path fill="#2FCAED" opacity="1.000000" stroke="none" 
	d="
M415.877991,386.290344 
	C418.134918,386.290527 419.916229,386.290527 422.088196,386.290527 
	C422.088196,404.024445 422.088196,421.126190 422.088196,438.921509 
	C431.143951,438.921509 439.843079,438.921509 448.844238,438.921509 
	C448.844238,444.528870 448.844238,449.445312 448.844238,454.787872 
	C434.153595,454.787872 419.439453,454.787872 404.358093,454.787872 
	C404.358093,432.212860 404.358093,409.523254 404.358093,386.290131 
	C408.152771,386.290131 411.777588,386.290131 415.877991,386.290344 
z"/>
<path fill="#2ECAED" opacity="1.000000" stroke="none" 
	d="
M267.927307,425.000000 
	C267.927277,412.217346 267.927277,399.934692 267.927277,387.313812 
	C273.992126,387.313812 279.710266,387.313812 285.909119,387.313812 
	C285.909119,404.578033 285.909119,421.798309 285.909119,439.655823 
	C295.058746,439.655823 303.764618,439.655823 312.769348,439.655823 
	C312.769348,445.334930 312.769348,450.373169 312.769348,455.664978 
	C297.926849,455.664978 283.350098,455.664978 267.927338,455.664978 
	C267.927338,445.615753 267.927338,435.557892 267.927307,425.000000 
z"/>
<path fill="#B3B5B7" opacity="1.000000" stroke="none" 
	d="
M444.992981,107.166595 
	C448.096252,107.395615 450.754700,107.485619 453.366791,107.881432 
	C460.346588,108.939102 464.504700,113.039200 464.749878,120.126648 
	C464.961182,126.233498 464.581635,132.420715 463.790070,138.484543 
	C463.076996,143.946915 458.558990,146.216034 453.753296,146.671341 
	C447.818237,147.233627 441.768219,147.171661 435.811920,146.753036 
	C430.066132,146.349197 425.927185,142.027222 425.380066,135.766266 
	C424.890259,130.160706 424.829346,124.424850 425.433899,118.838982 
	C426.268646,111.126160 429.293610,108.804764 438.560089,107.429230 
	C440.518890,107.138458 442.536469,107.244064 444.992981,107.166595 
z"/>
<path fill="#3288C6" opacity="1.000000" stroke="none" 
	d="
M293.924561,171.414093 
	C286.558441,169.012497 284.290222,166.166748 284.095245,159.073700 
	C283.967255,154.417480 283.949097,149.749710 284.119995,145.095856 
	C284.351044,138.804520 287.190430,134.646713 293.443573,134.040298 
	C300.622528,133.344101 307.998352,133.746002 315.195404,134.528503 
	C319.328003,134.977829 321.723694,138.548584 321.865753,142.795914 
	C322.082581,149.277466 322.152069,155.782578 321.846100,162.256989 
	C321.611816,167.213837 318.311188,170.563858 313.230713,170.957382 
	C306.954468,171.443527 300.633392,171.350723 293.924561,171.414093 
z"/>
<path fill="#24BAF1" opacity="1.000000" stroke="none" 
	d="
M303.795380,105.450630 
	C302.082886,107.471542 300.617401,110.421028 298.939606,110.547218 
	C291.947632,111.073051 284.844635,111.191078 277.890137,110.448746 
	C275.981262,110.244987 273.265686,106.685486 272.972931,104.402618 
	C272.240753,98.694092 272.278107,92.798264 272.790619,87.047440 
	C273.182587,82.648491 276.085449,79.914154 280.919403,79.946312 
	C285.745087,79.978409 290.574341,80.059830 295.396210,79.918869 
	C300.292389,79.775734 303.270721,82.502197 303.729614,86.804131 
	C304.373077,92.835350 303.925568,98.982941 303.795380,105.450630 
z"/>
<path fill="#B3B5B7" opacity="1.000000" stroke="none" 
	d="
M247.093292,122.724060 
	C241.911331,127.450775 230.582169,128.326096 225.436005,124.763008 
	C225.299438,124.668449 225.095993,124.619446 225.022476,124.492157 
	C221.694016,118.729660 221.605133,112.506966 223.077774,106.330856 
	C224.210556,101.580040 228.274323,100.948311 232.537247,100.873207 
	C246.596878,100.625496 248.063858,101.984871 247.922745,115.956123 
	C247.901215,118.088341 247.489197,120.216606 247.093292,122.724060 
z"/>
<path fill="#BABCBF" opacity="1.000000" stroke="none" 
	d="
M495.993896,515.992798 
	C492.024475,516.671326 487.964050,517.372375 485.158936,513.471130 
	C482.403442,509.638977 482.347412,505.391052 484.125702,501.148132 
	C485.864044,497.000549 490.055542,495.352661 494.402588,496.667511 
	C495.851776,497.105896 497.490997,496.947205 499.045410,496.997528 
	C500.503967,497.044769 501.965240,497.007690 503.923584,497.007690 
	C503.923584,504.018433 504.294220,510.656006 503.798889,517.228333 
	C503.443359,521.945496 497.061890,525.425171 491.314087,524.754089 
	C490.331116,524.639282 489.379700,524.276611 488.401733,524.091919 
	C486.396515,523.713257 483.556213,524.233765 484.337006,520.697937 
	C484.967010,517.844910 486.860718,518.164612 489.327667,518.438477 
	C491.437805,518.672791 493.718506,517.370483 496.115326,516.322449 
	C496.202576,515.929016 496.098236,515.960938 495.993896,515.992798 
M490.229340,506.497986 
	C491.670990,507.960876 493.112640,509.423767 494.554352,510.886658 
	C495.347809,509.623474 496.814209,508.336334 496.770294,507.102966 
	C496.710693,505.429077 495.495026,503.796387 494.775238,502.146057 
	C493.288788,503.344543 491.802338,504.542999 490.229340,506.497986 
z"/>
<path fill="#BBBDBF" opacity="1.000000" stroke="none" 
	d="
M284.116272,497.478821 
	C286.575867,491.370209 291.263977,488.473053 297.058929,488.387268 
	C302.212646,488.311005 306.659302,490.663086 308.774780,496.249969 
	C305.678680,498.037262 303.072754,500.146271 299.749451,496.288300 
	C297.599640,493.792633 294.692261,494.743713 292.967621,497.286194 
	C290.402313,501.067993 290.605286,505.245941 292.847168,509.059662 
	C294.779083,512.346008 298.427002,511.609863 302.913696,507.176788 
	C304.764282,507.967499 306.703766,508.796173 308.636597,509.621979 
	C306.153076,515.889893 300.110321,519.100342 293.812195,517.687378 
	C287.223938,516.209290 282.447998,509.367218 283.120209,502.243347 
	C283.259430,500.767700 283.720154,499.322357 284.116272,497.478821 
z"/>
<path fill="#BBBDBF" opacity="1.000000" stroke="none" 
	d="
M351.989990,510.987488 
	C351.989014,509.026459 352.338287,507.414398 351.891602,506.065979 
	C351.415588,504.628906 350.186829,503.441162 349.286652,502.144531 
	C348.503510,503.391357 347.166412,504.586700 347.044861,505.894958 
	C346.726074,509.326294 346.937286,512.806824 346.937286,516.667175 
	C344.278717,516.667175 342.063873,516.667175 339.446350,516.667175 
	C339.446350,510.274506 339.446350,503.911469 339.446350,497.410583 
	C344.034149,496.943573 348.418213,496.134644 352.799377,496.150055 
	C357.480133,496.166473 359.420868,499.629639 359.726837,503.790161 
	C360.029022,507.899567 359.792847,512.048523 359.792847,516.744690 
	C357.242798,516.863037 355.028748,516.965759 352.250641,517.094666 
	C352.152802,514.976440 352.071381,513.214417 351.989990,510.987488 
z"/>
<path fill="#BBBDBF" opacity="1.000000" stroke="none" 
	d="
M313.059875,508.622742 
	C312.538635,503.169647 314.622620,499.357452 319.019440,497.112091 
	C322.816620,495.172974 326.785858,495.403473 330.347229,497.974945 
	C334.250366,500.793152 335.607819,505.567139 334.037933,510.402710 
	C332.399719,515.448730 328.930298,517.950745 323.581177,517.943787 
	C318.511017,517.937195 315.120026,515.058411 313.059875,508.622742 
M322.000519,511.206146 
	C325.839813,512.902039 327.017792,510.343292 326.835846,507.510620 
	C326.716339,505.649933 325.128784,502.454315 323.978943,502.353119 
	C320.318665,502.031067 320.983398,505.355377 320.934021,507.719086 
	C320.914124,508.673004 321.280609,509.634949 322.000519,511.206146 
z"/>
<path fill="#BBBDBF" opacity="1.000000" stroke="none" 
	d="
M458.038696,507.975067 
	C458.038727,504.195618 458.038727,500.906067 458.038727,497.438873 
	C462.919098,496.942474 467.296875,496.175751 471.678253,496.154602 
	C475.099823,496.138092 477.858459,497.940033 477.990417,501.845581 
	C478.152405,506.639008 478.029053,511.442078 478.029053,516.653564 
	C475.661041,516.653564 473.633301,516.653564 470.956482,516.653564 
	C470.956482,512.912476 471.173920,509.278931 470.838806,505.697113 
	C470.721191,504.440063 469.246796,503.309937 468.391968,502.121887 
	C467.565857,503.333069 466.150818,504.487366 466.027191,505.766479 
	C465.694611,509.207001 465.913513,512.700867 465.913513,516.748230 
	C463.334442,516.866333 461.116241,516.967896 458.038635,517.108826 
	C458.038635,513.971985 458.038635,511.218475 458.038696,507.975067 
z"/>
<path fill="#BBBDBF" opacity="1.000000" stroke="none" 
	d="
M394.840332,499.353455 
	C394.869019,502.626709 394.623352,505.481415 394.995941,508.252960 
	C395.164337,509.505615 396.562500,510.592926 397.402710,511.755249 
	C398.245880,510.529480 399.686646,509.363495 399.816315,508.066376 
	C400.158600,504.642212 399.932220,501.161133 399.932220,497.306274 
	C402.390350,497.306274 404.409943,497.306274 406.754761,497.306274 
	C406.754761,503.713593 406.754761,509.942474 406.754761,516.435608 
	C402.349609,516.919373 397.834503,518.185242 393.585632,517.580444 
	C391.204468,517.241516 387.931000,514.094360 387.411530,511.701874 
	C386.424042,507.153748 387.125397,502.238953 387.125397,495.969940 
	C390.283325,497.173126 392.550751,498.037048 394.840332,499.353455 
z"/>
<path fill="#BCBEC0" opacity="1.000000" stroke="none" 
	d="
M426.966919,495.989258 
	C427.993927,491.286713 430.344055,489.117859 435.481812,490.401001 
	C435.698792,491.812805 435.942474,493.398376 436.078094,494.280884 
	C437.900421,496.193909 440.079407,497.524475 440.468231,499.256866 
	C440.692963,500.257996 438.030548,501.907166 436.187927,503.742340 
	C436.708801,506.321533 433.463013,511.237061 439.996796,512.266541 
	C439.704315,513.862732 439.938568,516.383789 439.031281,516.900452 
	C434.214294,519.643799 428.740234,516.447083 428.068939,510.901794 
	C427.646301,507.410522 429.651733,503.273041 425.291595,500.680634 
	C424.951691,500.478516 426.128571,497.725433 426.966919,495.989258 
z"/>
<path fill="#BBBDBF" opacity="1.000000" stroke="none" 
	d="
M376.380981,504.677155 
	C380.113861,505.776978 383.062531,507.896484 381.837830,511.441986 
	C380.988495,513.900818 378.098053,516.810059 375.673553,517.296875 
	C372.086395,518.017151 368.103455,516.766479 364.247711,516.350525 
	C365.173859,507.379242 371.503052,514.122192 374.602142,511.229218 
	C370.367188,508.291840 361.635315,508.199097 365.987091,499.665070 
	C368.350006,495.031372 375.150757,494.829071 381.908997,498.673950 
	C381.057800,500.041565 380.213837,501.397552 379.469604,502.593262 
	C377.074738,502.295624 374.994812,502.037109 372.914856,501.778595 
	C372.782990,502.175995 372.651123,502.573395 372.519287,502.970795 
	C373.689484,503.494232 374.859680,504.017670 376.380981,504.677155 
z"/>
<path fill="#BABCBF" opacity="1.000000" stroke="none" 
	d="
M420.063141,495.122833 
	C420.063690,499.583954 419.993713,503.565948 420.105957,507.542847 
	C420.141357,508.797150 420.631714,510.046814 420.973022,511.282257 
	C421.446930,512.997559 421.976532,514.697388 422.482330,516.403870 
	C420.799683,516.797363 418.751678,517.974121 417.520416,517.399780 
	C415.697662,516.549561 413.514709,514.640991 413.164154,512.853699 
	C412.474731,509.338348 412.935120,505.596405 412.929688,501.948212 
	C412.923584,497.846832 412.928314,493.745453 412.928314,489.347839 
	C415.420715,489.347839 417.331421,489.347839 419.807007,489.347839 
	C419.893402,491.134186 419.978241,492.887970 420.063141,495.122833 
z"/>
<path fill="#BCBEC0" opacity="1.000000" stroke="none" 
	d="
M452.187927,497.039520 
	C452.637909,498.988068 452.881927,500.632050 452.901733,502.278748 
	C452.957550,506.920135 452.921234,511.562653 452.921234,516.635864 
	C450.301849,516.635864 448.080902,516.635864 445.075073,516.635864 
	C445.075073,510.790894 444.641296,504.815582 445.220764,498.940216 
	C445.638062,494.709167 449.201477,496.192078 452.187927,497.039520 
z"/>
<path fill="#BCBEC0" opacity="1.000000" stroke="none" 
	d="
M449.658691,494.923035 
	C447.845001,493.791321 445.917786,492.826416 445.238495,491.304504 
	C444.931946,490.617737 446.945648,488.010498 448.208069,487.753113 
	C449.514282,487.486816 451.185883,489.012634 452.697693,489.754578 
	C451.816467,491.457306 450.935242,493.160004 449.658691,494.923035 
z"/>
<path fill="#F6FDFE" opacity="1.000000" stroke="none" 
	d="
M229.475845,434.658264 
	C228.683426,439.008392 225.733658,440.434296 222.248886,440.735535 
	C218.822189,441.031769 215.349869,440.800140 211.534927,440.800140 
	C211.534927,436.076172 211.534927,431.688293 211.531387,427.297485 
	C221.554977,424.227631 228.373871,426.876068 229.475845,434.658264 
z"/>
<path fill="#F5FCFE" opacity="1.000000" stroke="none" 
	d="
M211.190247,403.409851 
	C213.999847,400.553223 221.345734,400.406433 224.314529,402.853149 
	C226.930130,405.008759 227.606262,407.755341 226.024139,410.854675 
	C224.212479,414.403717 218.443680,415.528381 211.170456,413.619568 
	C211.170456,410.441284 211.170456,407.148346 211.190247,403.409851 
z"/>
<path fill="#FBFEFF" opacity="1.000000" stroke="none" 
	d="
M560.554016,439.455414 
	C560.244263,434.992035 560.244263,430.876007 560.244263,426.147980 
	C564.393188,426.147980 568.484070,425.793823 572.481873,426.251801 
	C576.171692,426.674438 578.255737,429.129242 578.204102,433.127869 
	C578.151978,437.157196 575.916504,439.423462 572.243896,439.805023 
	C568.491089,440.194977 564.660400,439.834656 560.554016,439.455414 
z"/>
<path fill="#F6FDFE" opacity="1.000000" stroke="none" 
	d="
M573.392090,402.283630 
	C577.372559,408.555237 575.058411,413.323639 568.155823,413.795105 
	C565.712830,413.961975 563.248779,413.821777 560.428345,413.821777 
	C560.428345,409.436554 560.428345,405.424500 560.428345,400.366608 
	C564.824219,400.944244 568.954285,401.486938 573.392090,402.283630 
z"/>
<path fill="#F5FCFE" opacity="1.000000" stroke="none" 
	d="
M485.654114,429.906799 
	C484.772461,429.004944 483.758301,427.974304 483.937836,427.232788 
	C485.913574,419.074463 488.075104,410.961151 490.520386,401.549469 
	C493.109375,411.622284 495.365112,420.398438 497.810425,429.912292 
	C493.552246,429.912292 489.814117,429.912292 485.654114,429.906799 
z"/>
<path fill="#F6FDFE" opacity="1.000000" stroke="none" 
	d="
M490.272644,506.119751 
	C491.802338,504.542999 493.288788,503.344543 494.775208,502.146057 
	C495.495026,503.796387 496.710693,505.429077 496.770294,507.102966 
	C496.814209,508.336334 495.347809,509.623474 494.554321,510.886658 
	C493.112640,509.423767 491.670990,507.960876 490.272644,506.119751 
z"/>
<path fill="#FFFFFF" opacity="1.000000" stroke="none" 
	d="
M495.996887,515.996399 
	C496.098236,515.960938 496.202576,515.929016 496.156189,515.950928 
	C496.005463,516.004822 495.999878,516.000000 495.996887,515.996399 
z"/>
<path fill="#FBFEFF" opacity="1.000000" stroke="none" 
	d="
M321.735901,510.899719 
	C321.280609,509.634949 320.914124,508.673004 320.934021,507.719086 
	C320.983398,505.355377 320.318665,502.031067 323.978943,502.353119 
	C325.128784,502.454315 326.716339,505.649933 326.835846,507.510620 
	C327.017792,510.343292 325.839813,512.902039 321.735901,510.899719 
z"/>
</svg>